<?xml version="1.0" encoding="UTF-8"?>
<svg xmlns="http://www.w3.org/2000/svg" width="800.000" height="600.000" viewBox="0.0 0.0 800.000 600.000" version="1.1">
  <title>Produce by Acme CAD Converter</title>
  <desc>Produce by Acme CAD Converter</desc>
<path d="M585.82 429.85L585.82 151.74"
fill="none" stroke="black" stroke-width="2.0"/>
<path d="M691.28 429.85L691.28 126.06"
fill="none" stroke="black" stroke-width="2.0"/>
<path d="M661.12 598.3L138.88 598.3"
fill="none" stroke="black" stroke-width="2.0"/>
<path d="M691.28 126.06L691.28 105.28"
fill="none" stroke="black" stroke-width="2.0"/>
<path d="M208.67 129.51L218.74 123.33M218.74 123.33L228.95 117.49M228.95 117.49L239.31 111.98M239.31 111.98L249.8 106.83M249.8 106.83L260.41 102.02M260.41 102.02L271.15 97.57M271.15 97.57L281.99 93.47M281.99 93.47L292.93 89.74M292.93 89.74L303.96 86.37M303.96 86.37L315.07 83.37M315.07 83.37L326.25 80.74M326.25 80.74L337.49 78.48M337.49 78.48L348.78 76.59M348.78 76.59L360.12 75.08M360.12 75.08L371.49 73.95M371.49 73.95L382.88 73.19M382.88 73.19L394.29 72.81M394.29 72.81L405.71 72.81M405.71 72.81L417.12 73.19M417.12 73.19L428.51 73.95M428.51 73.95L439.88 75.08M439.88 75.08L451.22 76.59M451.22 76.59L462.51 78.48M462.51 78.48L473.75 80.74M473.75 80.74L484.93 83.37M484.93 83.37L496.04 86.37M496.04 86.37L507.07 89.74M507.07 89.74L518.01 93.47M518.01 93.47L528.85 97.57M528.85 97.57L539.59 102.02M539.59 102.02L550.2 106.83M550.2 106.83L560.69 111.98M560.69 111.98L571.05 117.49M571.05 117.49L581.26 123.33M581.26 123.33L591.33 129.51"
fill="none" stroke="black" stroke-width="2.0"/>
<path d="M163.39 1.7L636.61 1.7"
fill="none" stroke="black" stroke-width="2.0"/>
<path d="M671.71 36.79L671.71 74.66"
fill="none" stroke="black" stroke-width="2.0"/>
<path d="M128.29 36.79L128.29 74.66"
fill="none" stroke="black" stroke-width="2.0"/>
<path d="M671.71 36.79L671.52 33.12M671.52 33.12L670.94 29.5M670.94 29.5L669.99 25.95M669.99 25.95L668.67 22.52M668.67 22.52L667.01 19.24M667.01 19.24L665.01 16.16M665.01 16.16L662.69 13.31M662.69 13.31L660.1 10.71M660.1 10.71L657.24 8.4M657.24 8.4L654.16 6.4M654.16 6.4L650.89 4.73M650.89 4.73L647.46 3.42M647.46 3.42L643.91 2.46M643.91 2.46L640.28 1.89M640.28 1.89L636.61 1.7"
fill="none" stroke="black" stroke-width="2.0"/>
<path d="M163.39 1.7L159.72 1.89M159.72 1.89L156.09 2.46M156.09 2.46L152.54 3.42M152.54 3.42L149.11 4.73M149.11 4.73L145.84 6.4M145.84 6.4L142.76 8.4M142.76 8.4L139.9 10.71M139.9 10.71L137.31 13.31M137.31 13.31L134.99 16.16M134.99 16.16L132.99 19.24M132.99 19.24L131.33 22.52M131.33 22.52L130.01 25.95M130.01 25.95L129.06 29.5M129.06 29.5L128.48 33.12M128.48 33.12L128.29 36.79"
fill="none" stroke="black" stroke-width="2.0"/>
<path d="M673.84 74.7L667.99 74.72M667.99 74.72L662.16 75.15M662.16 75.15L656.37 75.96M656.37 75.96L650.65 77.17M650.65 77.17L645.03 78.77M645.03 78.77L639.52 80.75M639.52 80.75L634.17 83.09M634.17 83.09L628.98 85.8M628.98 85.8L623.99 88.85M623.99 88.85L619.22 92.23M619.22 92.23L614.7 95.93M614.7 95.93L610.43 99.93M610.43 99.93L606.44 104.21M606.44 104.21L602.76 108.75M602.76 108.75L599.39 113.53M599.39 113.53L596.36 118.53M596.36 118.53L593.67 123.72M593.67 123.72L591.35 129.08M591.35 129.08L589.39 134.59M589.39 134.59L587.81 140.22M587.81 140.22L586.62 145.95M586.62 145.95L585.82 151.74"
fill="none" stroke="black" stroke-width="2.0"/>
<path d="M214.18 429.85L214.18 151.74"
fill="none" stroke="black" stroke-width="2.0"/>
<path d="M108.72 429.85L108.72 126.06"
fill="none" stroke="black" stroke-width="2.0"/>
<path d="M108.72 126.06L108.72 105.28"
fill="none" stroke="black" stroke-width="2.0"/>
<path d="M214.18 151.74L213.38 145.95M213.38 145.95L212.19 140.22M212.19 140.22L210.61 134.59M210.61 134.59L208.65 129.08M208.65 129.08L206.33 123.72M206.33 123.72L203.64 118.53M203.64 118.53L200.61 113.53M200.61 113.53L197.24 108.75M197.24 108.75L193.56 104.21M193.56 104.21L189.57 99.93M189.57 99.93L185.3 95.93M185.3 95.93L180.78 92.23M180.78 92.23L176.01 88.85M176.01 88.85L171.02 85.8M171.02 85.8L165.83 83.09M165.83 83.09L160.48 80.75M160.48 80.75L154.97 78.77M154.97 78.77L149.35 77.17M149.35 77.17L143.63 75.96M143.63 75.96L137.84 75.15M137.84 75.15L132.01 74.72M132.01 74.72L126.16 74.7"
fill="none" stroke="black" stroke-width="2.0"/>
<path d="M599.86 443.89L677.25 443.89"
fill="none" stroke="black" stroke-width="2.0"/>
<path d="M677.25 443.89L679.44 443.71M679.44 443.71L681.58 443.2M681.58 443.2L683.62 442.36M683.62 442.36L685.5 441.21M685.5 441.21L687.17 439.78M687.17 439.78L688.6 438.1M688.6 438.1L689.75 436.22M689.75 436.22L690.6 434.19M690.6 434.19L691.11 432.05M691.11 432.05L691.28 429.85"
fill="none" stroke="black" stroke-width="2.0"/>
<path d="M585.82 429.85L586 432.05M586 432.05L586.51 434.19M586.51 434.19L587.35 436.22M587.35 436.22L588.51 438.1M588.51 438.1L589.94 439.78M589.94 439.78L591.61 441.21M591.61 441.21L593.49 442.36M593.49 442.36L595.52 443.2M595.52 443.2L597.67 443.71M597.67 443.71L599.86 443.89"
fill="none" stroke="black" stroke-width="2.0"/>
<path d="M200.14 443.89L122.75 443.89"
fill="none" stroke="black" stroke-width="2.0"/>
<path d="M108.72 429.85L108.89 432.05M108.89 432.05L109.4 434.19M109.4 434.19L110.25 436.22M110.25 436.22L111.4 438.1M111.4 438.1L112.83 439.78M112.83 439.78L114.5 441.21M114.5 441.21L116.38 442.36M116.38 442.36L118.42 443.2M118.42 443.2L120.56 443.71M120.56 443.71L122.75 443.89"
fill="none" stroke="black" stroke-width="2.0"/>
<path d="M200.14 443.89L202.33 443.71M202.33 443.71L204.48 443.2M204.48 443.2L206.51 442.36M206.51 442.36L208.39 441.21M208.39 441.21L210.06 439.78M210.06 439.78L211.49 438.1M211.49 438.1L212.65 436.22M212.65 436.22L213.49 434.19M213.49 434.19L214 432.05M214 432.05L214.18 429.85"
fill="none" stroke="black" stroke-width="2.0"/>
<path d="M674.71 587.8L677.15 577.71M677.15 577.71L679.25 567.55M679.25 567.55L681 557.32M681 557.32L682.41 547.04M682.41 547.04L683.47 536.72M683.47 536.72L684.17 526.36M684.17 526.36L684.53 515.99M684.53 515.99L684.54 505.62M684.54 505.62L684.2 495.24M684.2 495.24L683.5 484.89M683.5 484.89L682.46 474.57M682.46 474.57L681.07 464.28M681.07 464.28L679.33 454.05M679.33 454.05L677.25 443.89"
fill="none" stroke="black" stroke-width="2.0"/>
<path d="M661.12 598.3L663.42 598.11M663.42 598.11L665.66 597.55M665.66 597.55L667.77 596.63M667.77 596.63L669.71 595.37M669.71 595.37L671.41 593.81M671.41 593.81L672.84 592M672.84 592L673.95 589.97M673.95 589.97L674.71 587.8"
fill="none" stroke="black" stroke-width="2.0"/>
<path d="M122.75 443.89L120.67 454.05M120.67 454.05L118.93 464.28M118.93 464.28L117.54 474.57M117.54 474.57L116.5 484.89M116.5 484.89L115.8 495.24M115.8 495.24L115.46 505.62M115.46 505.62L115.47 515.99M115.47 515.99L115.83 526.36M115.83 526.36L116.53 536.72M116.53 536.72L117.59 547.04M117.59 547.04L119 557.32M119 557.32L120.75 567.55M120.75 567.55L122.85 577.71M122.85 577.71L125.29 587.8"
fill="none" stroke="black" stroke-width="2.0"/>
<path d="M125.29 587.8L126.05 589.97M126.05 589.97L127.16 592M127.16 592L128.59 593.81M128.59 593.81L130.29 595.37M130.29 595.37L132.23 596.63M132.23 596.63L134.34 597.55M134.34 597.55L136.58 598.11M136.58 598.11L138.88 598.3"
fill="none" stroke="black" stroke-width="2.0"/>
<path d="M665.16 580.6L667.27 570.2M667.27 570.2L669 559.72M669 559.72L670.35 549.19M670.35 549.19L671.32 538.62M671.32 538.62L671.9 528.02M671.9 528.02L672.1 517.41M672.1 517.41L671.92 506.8M671.92 506.8L671.35 496.2M671.35 496.2L670.39 485.62M670.39 485.62L669.06 475.09M669.06 475.09L667.34 464.62M667.34 464.62L665.24 454.21M665.24 454.21L662.77 443.89"
fill="none" stroke="black" stroke-width="2.0"/>
<path d="M651.53 591.28L148.47 591.28"
fill="none" stroke="black" stroke-width="2.0"/>
<path d="M651.53 591.28L653.86 591.09M653.86 591.09L656.11 590.52M656.11 590.52L658.24 589.57M658.24 589.57L660.19 588.29M660.19 588.29L661.9 586.71M661.9 586.71L663.32 584.87M663.32 584.87L664.42 582.81M664.42 582.81L665.16 580.6"
fill="none" stroke="black" stroke-width="2.0"/>
<path d="M137.23 443.89L134.76 454.21M134.76 454.21L132.66 464.62M132.66 464.62L130.94 475.09M130.94 475.09L129.61 485.62M129.61 485.62L128.65 496.2M128.65 496.2L128.08 506.8M128.08 506.8L127.9 517.41M127.9 517.41L128.1 528.02M128.1 528.02L128.68 538.62M128.68 538.62L129.65 549.19M129.65 549.19L131 559.72M131 559.72L132.73 570.2M132.73 570.2L134.84 580.6"
fill="none" stroke="black" stroke-width="2.0"/>
<path d="M134.84 580.6L135.58 582.81M135.58 582.81L136.68 584.87M136.68 584.87L138.1 586.71M138.1 586.71L139.81 588.29M139.81 588.29L141.76 589.57M141.76 589.57L143.89 590.52M143.89 590.52L146.14 591.09M146.14 591.09L148.47 591.28"
fill="none" stroke="black" stroke-width="2.0"/>
<path d="M214.18 301.29L215.19 304.16M215.19 304.16L216.52 306.91M216.52 306.91L218.14 309.49M218.14 309.49L220.05 311.87M220.05 311.87L222.21 314.02M222.21 314.02L224.61 315.92M224.61 315.92L227.19 317.53M227.19 317.53L229.95 318.84M229.95 318.84L232.83 319.84M232.83 319.84L235.81 320.5M235.81 320.5L238.84 320.83"
fill="none" stroke="black" stroke-width="2.0"/>
<path d="M561.16 320.83L564.19 320.5M564.19 320.5L567.17 319.84M567.17 319.84L570.05 318.84M570.05 318.84L572.81 317.53M572.81 317.53L575.39 315.92M575.39 315.92L577.79 314.02M577.79 314.02L579.95 311.87M579.95 311.87L581.86 309.49M581.86 309.49L583.48 306.91M583.48 306.91L584.81 304.16M584.81 304.16L585.82 301.29"
fill="none" stroke="black" stroke-width="2.0"/>
<path d="M238.84 320.83L271.05 322.32M271.05 322.32L303.28 323.48M303.28 323.48L335.51 324.31M335.51 324.31L367.75 324.8M367.75 324.8L400 324.97M400 324.97L432.25 324.8M432.25 324.8L464.49 324.31M464.49 324.31L496.72 323.48M496.72 323.48L528.95 322.32M528.95 322.32L561.16 320.83"
fill="none" stroke="black" stroke-width="2.0"/>
<path d="M126.16 74.7L123.15 76.79M123.15 76.79L120.35 79.17M120.35 79.17L117.81 81.81M117.81 81.81L115.54 84.69M115.54 84.69L113.57 87.78M113.57 87.78L111.91 91.06M111.91 91.06L110.58 94.48M110.58 94.48L109.6 98.01M109.6 98.01L108.98 101.63M108.98 101.63L108.72 105.28"
fill="none" stroke="black" stroke-width="2.0"/>
<path d="M691.28 105.28L691.02 101.63M691.02 101.63L690.4 98.01M690.4 98.01L689.42 94.48M689.42 94.48L688.09 91.06M688.09 91.06L686.43 87.78M686.43 87.78L684.46 84.69M684.46 84.69L682.19 81.81M682.19 81.81L679.65 79.17M679.65 79.17L676.85 76.79M676.85 76.79L673.84 74.7"
fill="none" stroke="black" stroke-width="2.0"/>
</svg>
