<?xml version="1.0" encoding="UTF-8"?>
<svg xmlns="http://www.w3.org/2000/svg" width="800.000" height="600.000" viewBox="0.0 0.0 800.000 600.000" version="1.1">
<path d="M515.26 454.6L515.26 286.6Z"
fill="none" stroke="black" stroke-width="2.0"/>
<path d="M284.35 221.53L284.35 454.6Z"
fill="none" stroke="black" stroke-width="2.0"/>
<path d="M 512.07 457.8 A 3.194 3.194 0 0 0 515.26 454.6"
fill="none" stroke="black" stroke-width="2.0"/>
<path d="M 284.35 454.6 A 3.194 3.194 0 0 0 287.55 457.8"
fill="none" stroke="black" stroke-width="2.0"/>
<path d="M287.55 457.8L512.07 457.8"
fill="none" stroke="black" stroke-width="2.0"/>
<path d="M 284.35 258.68 A 3.194 3.194 0 0 0 287.55 261.87"
fill="none" stroke="black" stroke-width="2.0"/>
<path d="M287.55 261.87L426.42 261.87"
fill="none" stroke="black" stroke-width="2.0"/>
<path d="M 287.55 218.33 A 3.194 3.194 0 0 0 284.35 221.53"
fill="none" stroke="black" stroke-width="2.0"/>
<path d="M416.55 218.33L287.55 218.33"
fill="none" stroke="black" stroke-width="2.0"/>
<path d="M416.55 218.33L515.26 286.6"
fill="none" stroke="black" stroke-width="2.0"/>
<path d="M280.23 148.67L519.8 148.67"
fill="none" stroke="black" stroke-width="2.0"/>
<path d="M 416.55 218.33 A 59.905 59.905 0 0 0 426.66 235.92"
fill="none" stroke="black" stroke-width="2.0"/>
<path d="M 426.66 235.92 A 28.767 28.767 0 0 0 428.13 249.9"
fill="none" stroke="black" stroke-width="2.0"/>
<path d="M428.13 249.9L425.95 265.14"
fill="none" stroke="black" stroke-width="2.0"/>
<path d="M425.95 265.14L426.23 285.92"
fill="none" stroke="black" stroke-width="2.0"/>
<path d="M 445.01 283.08 A 603.743 603.743 0 0 0 426.23 285.92"
fill="none" stroke="black" stroke-width="2.0"/>
<path d="M 460.47 280.2 A 413.343 413.343 0 0 0 445.01 283.08"
fill="none" stroke="black" stroke-width="2.0"/>
<path d="M 470.85 277.91 A 401.815 401.815 0 0 0 460.47 280.2"
fill="none" stroke="black" stroke-width="2.0"/>
<path d="M 470.85 277.91 A 31.009 31.009 0 0 0 473.75 277.37"
fill="none" stroke="black" stroke-width="2.0"/>
<path d="M 473.75 277.37 A 9.284 9.284 0 0 0 476.73 277.45"
fill="none" stroke="black" stroke-width="2.0"/>
<path d="M 476.73 277.45 A 649.181 649.181 0 0 0 501.1 282.55"
fill="none" stroke="black" stroke-width="2.0"/>
<path d="M 501.1 282.55 A 104.997 104.997 0 0 0 506.45 283.93"
fill="none" stroke="black" stroke-width="2.0"/>
<path d="M 506.45 283.93 A 293.105 293.105 0 0 0 515.26 286.6"
fill="none" stroke="black" stroke-width="2.0"/>
<path d="M 296.09 163.11 A 14.351 14.351 0 0 0 298.36 165.19"
fill="none" stroke="black" stroke-width="2.0"/>
<path d="M 298.36 165.19 A 8.402 8.402 0 0 0 299.66 167.15"
fill="none" stroke="black" stroke-width="2.0"/>
<path d="M 299.66 167.15 A 24.132 24.132 0 0 0 300.25 168.52"
fill="none" stroke="black" stroke-width="2.0"/>
<path d="M 300.25 168.52 A 32.831 32.831 0 0 0 300.86 170.15"
fill="none" stroke="black" stroke-width="2.0"/>
<path d="M 300.86 170.15 A 8.97 8.97 0 0 0 301.33 173.04"
fill="none" stroke="black" stroke-width="2.0"/>
<path d="M 301.33 173.04 A 14.619 14.619 0 0 0 300.86 176.74"
fill="none" stroke="black" stroke-width="2.0"/>
<path d="M 315.15 211.32 A 117.978 117.978 0 0 0 310.79 212.76"
fill="none" stroke="black" stroke-width="2.0"/>
<path d="M 319.45 209.71 A 117.978 117.978 0 0 0 315.15 211.32"
fill="none" stroke="black" stroke-width="2.0"/>
<path d="M 322.92 208.27 A 117.978 117.978 0 0 0 319.45 209.71"
fill="none" stroke="black" stroke-width="2.0"/>
<path d="M 326.35 206.71 A 117.978 117.978 0 0 0 322.92 208.27"
fill="none" stroke="black" stroke-width="2.0"/>
<path d="M 379.52 208.82 A 116.374 116.374 0 0 0 385.74 213.01"
fill="none" stroke="black" stroke-width="2.0"/>
<path d="M 375.24 206.41 A 49.934 49.934 0 0 0 379.52 208.82"
fill="none" stroke="black" stroke-width="2.0"/>
<path d="M 367.41 202.69 A 228.761 228.761 0 0 0 375.24 206.41"
fill="none" stroke="black" stroke-width="2.0"/>
<path d="M 362.64 200.72 A 80.92 80.92 0 0 0 367.41 202.69"
fill="none" stroke="black" stroke-width="2.0"/>
<path d="M 360.03 200.15 A 9.259 9.259 0 0 0 362.64 200.72"
fill="none" stroke="black" stroke-width="2.0"/>
<path d="M 354.24 200.12 A 43.452 43.452 0 0 0 360.03 200.15"
fill="none" stroke="black" stroke-width="2.0"/>
<path d="M 428.43 211.32 A 117.978 117.978 0 0 0 424.07 212.76"
fill="none" stroke="black" stroke-width="2.0"/>
<path d="M 432.73 209.71 A 117.978 117.978 0 0 0 428.43 211.32"
fill="none" stroke="black" stroke-width="2.0"/>
<path d="M 436.2 208.27 A 117.978 117.978 0 0 0 432.73 209.71"
fill="none" stroke="black" stroke-width="2.0"/>
<path d="M 439.63 206.71 A 117.978 117.978 0 0 0 436.2 208.27"
fill="none" stroke="black" stroke-width="2.0"/>
<path d="M 296.36 160.56 A 5.46 5.46 0 0 0 291.89 157.56"
fill="none" stroke="black" stroke-width="2.0"/>
<path d="M 291.89 157.56 A 2.096 2.096 0 0 0 293.36 154.56"
fill="none" stroke="black" stroke-width="2.0"/>
<path d="M 293.36 154.56 A 14.438 14.438 0 0 0 296.18 154.28"
fill="none" stroke="black" stroke-width="2.0"/>
<path d="M 296.18 154.28 A 25.736 25.736 0 0 0 299.96 154.56"
fill="none" stroke="black" stroke-width="2.0"/>
<path d="M 299.96 154.56 A 48.676 48.676 0 0 0 306.02 155.86"
fill="none" stroke="black" stroke-width="2.0"/>
<path d="M 311.44 156.98 A 38.69 38.69 0 0 0 306.02 155.86"
fill="none" stroke="black" stroke-width="2.0"/>
<path d="M 325.76 157.92 A 109.037 109.037 0 0 0 311.44 156.98"
fill="none" stroke="black" stroke-width="2.0"/>
<path d="M 343.52 156.98 A 167.541 167.541 0 0 0 325.76 157.92"
fill="none" stroke="black" stroke-width="2.0"/>
<path d="M 349.52 156.12 A 84.536 84.536 0 0 0 343.52 156.98"
fill="none" stroke="black" stroke-width="2.0"/>
<path d="M 349.52 156.12 A 24.337 24.337 0 0 0 352.74 155.76"
fill="none" stroke="black" stroke-width="2.0"/>
<path d="M 352.74 155.76 A 46.271 46.271 0 0 0 358.67 155.88"
fill="none" stroke="black" stroke-width="2.0"/>
<path d="M 368.94 156.36 A 139.467 139.467 0 0 0 358.67 155.88"
fill="none" stroke="black" stroke-width="2.0"/>
<path d="M 379.28 156.24 A 238.661 238.661 0 0 0 368.94 156.36"
fill="none" stroke="black" stroke-width="2.0"/>
<path d="M 386.94 155.76 A 131.094 131.094 0 0 0 379.28 156.24"
fill="none" stroke="black" stroke-width="2.0"/>
<path d="M 390.54 154.59 A 8.612 8.612 0 0 0 386.94 155.76"
fill="none" stroke="black" stroke-width="2.0"/>
<path d="M 390.54 154.59 A 4.612 4.612 0 0 0 393.23 153.96"
fill="none" stroke="black" stroke-width="2.0"/>
<path d="M 393.23 153.96 A 4.011 4.011 0 0 0 394.42 154.24"
fill="none" stroke="black" stroke-width="2.0"/>
<path d="M 394.42 154.24 A 0.546 0.546 0 0 0 394.73 154.56"
fill="none" stroke="black" stroke-width="2.0"/>
<path d="M 394.73 154.56 A 0.37 0.37 0 0 0 394.31 155.05"
fill="none" stroke="black" stroke-width="2.0"/>
<path d="M 393.53 155.46 A 0.683 0.683 0 0 0 394.31 155.05"
fill="none" stroke="black" stroke-width="2.0"/>
<path d="M 393.52 157.3 A 2.491 2.491 0 0 0 393.53 155.46"
fill="none" stroke="black" stroke-width="2.0"/>
<path d="M 393.52 157.3 A 5.237 5.237 0 0 0 393.83 159.96"
fill="none" stroke="black" stroke-width="2.0"/>
<path d="M 393.83 159.96 A 39.296 39.296 0 0 0 393.35 162.64"
fill="none" stroke="black" stroke-width="2.0"/>
<path d="M 392.93 165.05 A 31.677 31.677 0 0 0 393.35 162.64"
fill="none" stroke="black" stroke-width="2.0"/>
<path d="M 391.88 175.97 A 145.831 145.831 0 0 0 392.93 165.05"
fill="none" stroke="black" stroke-width="2.0"/>
<path d="M 391.73 185.43 A 108.405 108.405 0 0 0 391.88 175.97"
fill="none" stroke="black" stroke-width="2.0"/>
<path d="M 391.96 190.84 A 218.051 218.051 0 0 0 391.73 185.43"
fill="none" stroke="black" stroke-width="2.0"/>
<path d="M 392.93 207.91 A 2177.836 2177.836 0 0 0 391.96 190.84"
fill="none" stroke="black" stroke-width="2.0"/>
<path d="M 393.62 213.68 A 51.298 51.298 0 0 0 392.93 207.91"
fill="none" stroke="black" stroke-width="2.0"/>
<path d="M 393.62 213.68 A 3.087 3.087 0 0 0 393.53 215.11"
fill="none" stroke="black" stroke-width="2.0"/>
<path d="M 393.53 215.11 A 0.211 0.211 0 0 0 393.31 215.26"
fill="none" stroke="black" stroke-width="2.0"/>
<path d="M 393.31 215.26 A 13.972 13.972 0 0 0 391.13 214.81"
fill="none" stroke="black" stroke-width="2.0"/>
<path d="M 391.13 214.81 A 12.255 12.255 0 0 0 388.94 213.93"
fill="none" stroke="black" stroke-width="2.0"/>
<path d="M 387.23 213.31 A 7.234 7.234 0 0 0 388.94 213.93"
fill="none" stroke="black" stroke-width="2.0"/>
<path d="M 383.5 212.77 A 23.3 23.3 0 0 0 387.23 213.31"
fill="none" stroke="black" stroke-width="2.0"/>
<path d="M 372.84 212.41 A 185.913 185.913 0 0 0 383.5 212.77"
fill="none" stroke="black" stroke-width="2.0"/>
<path d="M 352.8 212.53 A 913.345 913.345 0 0 0 372.84 212.41"
fill="none" stroke="black" stroke-width="2.0"/>
<path d="M 337.45 213.01 A 536.999 536.999 0 0 0 352.8 212.53"
fill="none" stroke="black" stroke-width="2.0"/>
<path d="M 330.65 213.44 A 194.289 194.289 0 0 0 337.45 213.01"
fill="none" stroke="black" stroke-width="2.0"/>
<path d="M 330.65 213.44 A 224.365 224.365 0 0 0 323.35 213.91"
fill="none" stroke="black" stroke-width="2.0"/>
<path d="M 323.35 213.91 A 36.743 36.743 0 0 0 314.23 213.2"
fill="none" stroke="black" stroke-width="2.0"/>
<path d="M 306.94 212.88 A 23.305 23.305 0 0 0 314.23 213.2"
fill="none" stroke="black" stroke-width="2.0"/>
<path d="M 303.37 213.63 A 19.124 19.124 0 0 0 306.94 212.88"
fill="none" stroke="black" stroke-width="2.0"/>
<path d="M 303.37 213.63 A 36.682 36.682 0 0 0 298.46 214.81"
fill="none" stroke="black" stroke-width="2.0"/>
<path d="M 298.46 214.81 A 43.244 43.244 0 0 0 294.41 215.29"
fill="none" stroke="black" stroke-width="2.0"/>
<path d="M 294.41 215.29 A 0.146 0.146 0 0 0 294.26 215.11"
fill="none" stroke="black" stroke-width="2.0"/>
<path d="M294.26 215.11L295.46 210.31"
fill="none" stroke="black" stroke-width="2.0"/>
<path d="M295.46 210.31L298.76 197.12"
fill="none" stroke="black" stroke-width="2.0"/>
<path d="M 299.07 194 A 10.815 10.815 0 0 0 298.76 197.12"
fill="none" stroke="black" stroke-width="2.0"/>
<path d="M 298.16 184.23 A 105.219 105.219 0 0 0 299.07 194"
fill="none" stroke="black" stroke-width="2.0"/>
<path d="M 297.51 180.59 A 50.65 50.65 0 0 0 298.16 184.23"
fill="none" stroke="black" stroke-width="2.0"/>
<path d="M 297.51 180.59 A 140.876 140.876 0 0 0 296.33 174.52"
fill="none" stroke="black" stroke-width="2.0"/>
<path d="M 296.33 174.52 A 32.579 32.579 0 0 0 295.87 169.04"
fill="none" stroke="black" stroke-width="2.0"/>
<path d="M 295.87 169.04 A 78.554 78.554 0 0 0 296.33 160.51"
fill="none" stroke="black" stroke-width="2.0"/>
<path d="M 296.33 160.55 A 22.352 22.352 0 0 0 301.89 164.6"
fill="none" stroke="black" stroke-width="2.0"/>
<path d="M 301.89 164.6 A 22.352 22.352 0 0 0 305.95 170.15"
fill="none" stroke="black" stroke-width="2.0"/>
<path d="M 305.95 170.15 A 22.352 22.352 0 0 0 307.54 174.08"
fill="none" stroke="black" stroke-width="2.0"/>
<path d="M 307.54 174.08 A 22.352 22.352 0 0 0 308.35 178.24"
fill="none" stroke="black" stroke-width="2.0"/>
<path d="M 379.62 156.03 A 15.845 15.845 0 0 0 385.14 155.46"
fill="none" stroke="black" stroke-width="2.0"/>
<path d="M 374.64 158.46 A 15.845 15.845 0 0 0 379.62 156.03"
fill="none" stroke="black" stroke-width="2.0"/>
<path d="M 371.18 161.91 A 15.845 15.845 0 0 0 374.64 158.46"
fill="none" stroke="black" stroke-width="2.0"/>
<path d="M 368.94 166.25 A 15.845 15.845 0 0 0 371.18 161.91"
fill="none" stroke="black" stroke-width="2.0"/>
<path d="M 368.24 158.07 A 37.377 37.377 0 0 0 372.04 156.37"
fill="none" stroke="black" stroke-width="2.0"/>
<path d="M 366.24 159.36 A 12.263 12.263 0 0 0 368.24 158.07"
fill="none" stroke="black" stroke-width="2.0"/>
<path d="M 361.78 163.25 A 62.553 62.553 0 0 0 366.24 159.36"
fill="none" stroke="black" stroke-width="2.0"/>
<path d="M 358.74 166.55 A 35.968 35.968 0 0 0 361.78 163.25"
fill="none" stroke="black" stroke-width="2.0"/>
<path d="M 357.93 167.78 A 7.877 7.877 0 0 0 358.74 166.55"
fill="none" stroke="black" stroke-width="2.0"/>
<path d="M 356.64 170.45 A 31.973 31.973 0 0 0 357.93 167.78"
fill="none" stroke="black" stroke-width="2.0"/>
<path d="M 409.63 160.56 A 5.46 5.46 0 0 0 405.17 157.56"
fill="none" stroke="black" stroke-width="2.0"/>
<path d="M 405.17 157.56 A 2.096 2.096 0 0 0 406.64 154.56"
fill="none" stroke="black" stroke-width="2.0"/>
<path d="M 406.64 154.56 A 14.438 14.438 0 0 0 409.46 154.28"
fill="none" stroke="black" stroke-width="2.0"/>
<path d="M 409.46 154.28 A 25.736 25.736 0 0 0 413.23 154.56"
fill="none" stroke="black" stroke-width="2.0"/>
<path d="M 413.23 154.56 A 48.676 48.676 0 0 0 419.3 155.86"
fill="none" stroke="black" stroke-width="2.0"/>
<path d="M 424.72 156.98 A 38.69 38.69 0 0 0 419.3 155.86"
fill="none" stroke="black" stroke-width="2.0"/>
<path d="M 439.04 157.92 A 109.037 109.037 0 0 0 424.72 156.98"
fill="none" stroke="black" stroke-width="2.0"/>
<path d="M 456.8 156.98 A 167.541 167.541 0 0 0 439.04 157.92"
fill="none" stroke="black" stroke-width="2.0"/>
<path d="M 462.79 156.12 A 84.536 84.536 0 0 0 456.8 156.98"
fill="none" stroke="black" stroke-width="2.0"/>
<path d="M 462.79 156.12 A 24.337 24.337 0 0 0 466.02 155.76"
fill="none" stroke="black" stroke-width="2.0"/>
<path d="M 466.02 155.76 A 46.271 46.271 0 0 0 471.94 155.88"
fill="none" stroke="black" stroke-width="2.0"/>
<path d="M 482.22 156.36 A 139.467 139.467 0 0 0 471.94 155.88"
fill="none" stroke="black" stroke-width="2.0"/>
<path d="M 492.56 156.24 A 238.661 238.661 0 0 0 482.22 156.36"
fill="none" stroke="black" stroke-width="2.0"/>
<path d="M 500.21 155.76 A 131.094 131.094 0 0 0 492.56 156.24"
fill="none" stroke="black" stroke-width="2.0"/>
<path d="M 503.81 154.59 A 8.612 8.612 0 0 0 500.21 155.76"
fill="none" stroke="black" stroke-width="2.0"/>
<path d="M 503.81 154.59 A 4.612 4.612 0 0 0 506.51 153.96"
fill="none" stroke="black" stroke-width="2.0"/>
<path d="M 506.51 153.96 A 4.011 4.011 0 0 0 507.7 154.24"
fill="none" stroke="black" stroke-width="2.0"/>
<path d="M 507.7 154.24 A 0.546 0.546 0 0 0 508.01 154.56"
fill="none" stroke="black" stroke-width="2.0"/>
<path d="M 508.01 154.56 A 0.37 0.37 0 0 0 507.59 155.05"
fill="none" stroke="black" stroke-width="2.0"/>
<path d="M 506.81 155.46 A 0.683 0.683 0 0 0 507.59 155.05"
fill="none" stroke="black" stroke-width="2.0"/>
<path d="M 506.8 157.3 A 2.491 2.491 0 0 0 506.81 155.46"
fill="none" stroke="black" stroke-width="2.0"/>
<path d="M 506.8 157.3 A 5.237 5.237 0 0 0 507.11 159.96"
fill="none" stroke="black" stroke-width="2.0"/>
<path d="M 507.11 159.96 A 39.296 39.296 0 0 0 506.63 162.64"
fill="none" stroke="black" stroke-width="2.0"/>
<path d="M 506.21 165.05 A 31.677 31.677 0 0 0 506.63 162.64"
fill="none" stroke="black" stroke-width="2.0"/>
<path d="M 505.15 175.97 A 145.831 145.831 0 0 0 506.21 165.05"
fill="none" stroke="black" stroke-width="2.0"/>
<path d="M 505.01 185.43 A 108.405 108.405 0 0 0 505.15 175.97"
fill="none" stroke="black" stroke-width="2.0"/>
<path d="M 505.23 190.84 A 218.051 218.051 0 0 0 505.01 185.43"
fill="none" stroke="black" stroke-width="2.0"/>
<path d="M 506.21 207.91 A 2177.836 2177.836 0 0 0 505.23 190.84"
fill="none" stroke="black" stroke-width="2.0"/>
<path d="M 506.89 213.68 A 51.298 51.298 0 0 0 506.21 207.91"
fill="none" stroke="black" stroke-width="2.0"/>
<path d="M 506.89 213.68 A 3.087 3.087 0 0 0 506.81 215.11"
fill="none" stroke="black" stroke-width="2.0"/>
<path d="M 506.81 215.11 A 0.211 0.211 0 0 0 506.58 215.26"
fill="none" stroke="black" stroke-width="2.0"/>
<path d="M 506.58 215.26 A 13.972 13.972 0 0 0 504.41 214.81"
fill="none" stroke="black" stroke-width="2.0"/>
<path d="M 504.41 214.81 A 12.255 12.255 0 0 0 502.22 213.93"
fill="none" stroke="black" stroke-width="2.0"/>
<path d="M 500.51 213.31 A 7.234 7.234 0 0 0 502.22 213.93"
fill="none" stroke="black" stroke-width="2.0"/>
<path d="M 496.78 212.77 A 23.3 23.3 0 0 0 500.51 213.31"
fill="none" stroke="black" stroke-width="2.0"/>
<path d="M 486.12 212.41 A 185.913 185.913 0 0 0 496.78 212.77"
fill="none" stroke="black" stroke-width="2.0"/>
<path d="M 466.08 212.53 A 913.345 913.345 0 0 0 486.12 212.41"
fill="none" stroke="black" stroke-width="2.0"/>
<path d="M 450.72 213.01 A 536.999 536.999 0 0 0 466.08 212.53"
fill="none" stroke="black" stroke-width="2.0"/>
<path d="M 443.93 213.44 A 194.289 194.289 0 0 0 450.72 213.01"
fill="none" stroke="black" stroke-width="2.0"/>
<path d="M 443.93 213.44 A 224.365 224.365 0 0 0 436.63 213.91"
fill="none" stroke="black" stroke-width="2.0"/>
<path d="M 436.63 213.91 A 36.743 36.743 0 0 0 427.5 213.2"
fill="none" stroke="black" stroke-width="2.0"/>
<path d="M 420.22 212.88 A 23.305 23.305 0 0 0 427.5 213.2"
fill="none" stroke="black" stroke-width="2.0"/>
<path d="M 416.65 213.63 A 19.124 19.124 0 0 0 420.22 212.88"
fill="none" stroke="black" stroke-width="2.0"/>
<path d="M 416.65 213.63 A 36.682 36.682 0 0 0 411.73 214.81"
fill="none" stroke="black" stroke-width="2.0"/>
<path d="M 411.73 214.81 A 43.244 43.244 0 0 0 407.69 215.29"
fill="none" stroke="black" stroke-width="2.0"/>
<path d="M 407.69 215.29 A 0.146 0.146 0 0 0 407.54 215.11"
fill="none" stroke="black" stroke-width="2.0"/>
<path d="M407.54 215.11L408.73 210.31"
fill="none" stroke="black" stroke-width="2.0"/>
<path d="M408.73 210.31L412.03 197.12"
fill="none" stroke="black" stroke-width="2.0"/>
<path d="M 412.35 194 A 10.815 10.815 0 0 0 412.03 197.12"
fill="none" stroke="black" stroke-width="2.0"/>
<path d="M 411.43 184.23 A 105.219 105.219 0 0 0 412.35 194"
fill="none" stroke="black" stroke-width="2.0"/>
<path d="M 410.78 180.59 A 50.65 50.65 0 0 0 411.43 184.23"
fill="none" stroke="black" stroke-width="2.0"/>
<path d="M 410.78 180.59 A 140.876 140.876 0 0 0 409.61 174.52"
fill="none" stroke="black" stroke-width="2.0"/>
<path d="M 409.61 174.52 A 32.579 32.579 0 0 0 409.15 169.04"
fill="none" stroke="black" stroke-width="2.0"/>
<path d="M 409.15 169.04 A 78.554 78.554 0 0 0 409.61 160.51"
fill="none" stroke="black" stroke-width="2.0"/>
<path d="M 492.9 156.03 A 15.845 15.845 0 0 0 498.41 155.46"
fill="none" stroke="black" stroke-width="2.0"/>
<path d="M 487.92 158.46 A 15.845 15.845 0 0 0 492.9 156.03"
fill="none" stroke="black" stroke-width="2.0"/>
<path d="M 484.46 161.91 A 15.845 15.845 0 0 0 487.92 158.46"
fill="none" stroke="black" stroke-width="2.0"/>
<path d="M 482.22 166.25 A 15.845 15.845 0 0 0 484.46 161.91"
fill="none" stroke="black" stroke-width="2.0"/>
<path d="M 481.52 158.07 A 37.377 37.377 0 0 0 485.32 156.37"
fill="none" stroke="black" stroke-width="2.0"/>
<path d="M 479.52 159.36 A 12.263 12.263 0 0 0 481.52 158.07"
fill="none" stroke="black" stroke-width="2.0"/>
<path d="M 475.06 163.25 A 62.553 62.553 0 0 0 479.52 159.36"
fill="none" stroke="black" stroke-width="2.0"/>
<path d="M 472.02 166.55 A 35.968 35.968 0 0 0 475.06 163.25"
fill="none" stroke="black" stroke-width="2.0"/>
<path d="M 471.2 167.78 A 7.877 7.877 0 0 0 472.02 166.55"
fill="none" stroke="black" stroke-width="2.0"/>
<path d="M 469.92 170.45 A 31.973 31.973 0 0 0 471.2 167.78"
fill="none" stroke="black" stroke-width="2.0"/>
<path d="M280.23 459.74L280.23 140.31Z"
fill="none" stroke="black" stroke-width="2.0"/>
<path d="M280.23 140.31L519.8 140.31"
fill="none" stroke="black" stroke-width="2.0"/>
<path d="M519.8 140.31L519.8 459.74Z"
fill="none" stroke="black" stroke-width="2.0"/>
<path d="M519.8 459.74L280.23 459.74"
fill="none" stroke="black" stroke-width="2.0"/>
<path d="M280.44 140.31L280.4 140.23"
fill="none" stroke="black" stroke-width="2.0"/>
<path d="M280.44 140.23L280.4 140.31"
fill="none" stroke="black" stroke-width="2.0"/>
<path d="M280.34 140.24L280.34 140.23Z"
fill="none" stroke="black" stroke-width="2.0"/>
<path d="M280.34 140.23L280.35 140.23Z"
fill="none" stroke="black" stroke-width="2.0"/>
<path d="M280.35 140.23L280.37 140.23"
fill="none" stroke="black" stroke-width="2.0"/>
<path d="M280.37 140.23L280.37 140.23Z"
fill="none" stroke="black" stroke-width="2.0"/>
<path d="M280.37 140.23L280.38 140.24Z"
fill="none" stroke="black" stroke-width="2.0"/>
<path d="M280.38 140.24L280.38 140.24Z"
fill="none" stroke="black" stroke-width="2.0"/>
<path d="M280.38 140.24L280.38 140.25Z"
fill="none" stroke="black" stroke-width="2.0"/>
<path d="M280.38 140.25L280.37 140.26Z"
fill="none" stroke="black" stroke-width="2.0"/>
<path d="M280.37 140.26L280.37 140.26Z"
fill="none" stroke="black" stroke-width="2.0"/>
<path d="M280.37 140.26L280.35 140.27"
fill="none" stroke="black" stroke-width="2.0"/>
<path d="M280.35 140.27L280.34 140.27Z"
fill="none" stroke="black" stroke-width="2.0"/>
<path d="M280.34 140.27L280.34 140.27Z"
fill="none" stroke="black" stroke-width="2.0"/>
<path d="M280.34 140.27L280.34 140.28Z"
fill="none" stroke="black" stroke-width="2.0"/>
<path d="M280.34 140.28L280.34 140.29Z"
fill="none" stroke="black" stroke-width="2.0"/>
<path d="M280.34 140.29L280.34 140.3Z"
fill="none" stroke="black" stroke-width="2.0"/>
<path d="M280.34 140.3L280.35 140.31Z"
fill="none" stroke="black" stroke-width="2.0"/>
<path d="M280.35 140.31L280.37 140.31"
fill="none" stroke="black" stroke-width="2.0"/>
<path d="M280.37 140.31L280.37 140.3Z"
fill="none" stroke="black" stroke-width="2.0"/>
<path d="M280.37 140.3L280.38 140.29Z"
fill="none" stroke="black" stroke-width="2.0"/>
<path d="M280.32 140.31L280.32 140.23Z"
fill="none" stroke="black" stroke-width="2.0"/>
<path d="M280.3 140.23L280.25 140.23"
fill="none" stroke="black" stroke-width="2.0"/>
<path d="M280.25 140.23L280.3 140.31"
fill="none" stroke="black" stroke-width="2.0"/>
<path d="M280.3 140.31L280.25 140.31"
fill="none" stroke="black" stroke-width="2.0"/>
<path d="M280.23 140.31L280.23 140.23Z"
fill="none" stroke="black" stroke-width="2.0"/>
<path d="M280.23 140.23L280.2 140.23"
fill="none" stroke="black" stroke-width="2.0"/>
<path d="M280.23 140.26L280.21 140.26"
fill="none" stroke="black" stroke-width="2.0"/>
<path d="M280.23 140.31L280.2 140.31"
fill="none" stroke="black" stroke-width="2.0"/>
<path d="M280.45 140.23L280.43 140.26"
fill="none" stroke="black" stroke-width="2.0"/>
<path d="M280.43 140.26L280.41 140.23"
fill="none" stroke="black" stroke-width="2.0"/>
<path d="M280.43 140.26L280.43 140.31Z"
fill="none" stroke="black" stroke-width="2.0"/>
<path d="M280.35 140.24L280.36 140.23Z"
fill="none" stroke="black" stroke-width="2.0"/>
<path d="M280.36 140.23L280.37 140.23Z"
fill="none" stroke="black" stroke-width="2.0"/>
<path d="M280.37 140.23L280.38 140.23"
fill="none" stroke="black" stroke-width="2.0"/>
<path d="M280.38 140.23L280.39 140.23Z"
fill="none" stroke="black" stroke-width="2.0"/>
<path d="M280.39 140.23L280.39 140.24Z"
fill="none" stroke="black" stroke-width="2.0"/>
<path d="M280.39 140.24L280.39 140.24Z"
fill="none" stroke="black" stroke-width="2.0"/>
<path d="M280.39 140.24L280.39 140.25Z"
fill="none" stroke="black" stroke-width="2.0"/>
<path d="M280.39 140.25L280.39 140.26Z"
fill="none" stroke="black" stroke-width="2.0"/>
<path d="M280.39 140.26L280.38 140.26Z"
fill="none" stroke="black" stroke-width="2.0"/>
<path d="M280.38 140.26L280.36 140.27"
fill="none" stroke="black" stroke-width="2.0"/>
<path d="M280.36 140.27L280.36 140.27Z"
fill="none" stroke="black" stroke-width="2.0"/>
<path d="M280.36 140.27L280.35 140.27Z"
fill="none" stroke="black" stroke-width="2.0"/>
<path d="M280.35 140.27L280.35 140.28Z"
fill="none" stroke="black" stroke-width="2.0"/>
<path d="M280.35 140.28L280.35 140.29Z"
fill="none" stroke="black" stroke-width="2.0"/>
<path d="M280.35 140.29L280.36 140.3Z"
fill="none" stroke="black" stroke-width="2.0"/>
<path d="M280.36 140.3L280.37 140.31Z"
fill="none" stroke="black" stroke-width="2.0"/>
<path d="M280.37 140.31L280.38 140.31"
fill="none" stroke="black" stroke-width="2.0"/>
<path d="M280.38 140.31L280.39 140.3Z"
fill="none" stroke="black" stroke-width="2.0"/>
<path d="M280.39 140.3L280.39 140.29Z"
fill="none" stroke="black" stroke-width="2.0"/>
<path d="M280.33 140.31L280.33 140.23Z"
fill="none" stroke="black" stroke-width="2.0"/>
<path d="M280.31 140.23L280.27 140.23"
fill="none" stroke="black" stroke-width="2.0"/>
<path d="M280.27 140.23L280.31 140.31"
fill="none" stroke="black" stroke-width="2.0"/>
<path d="M280.31 140.31L280.27 140.31"
fill="none" stroke="black" stroke-width="2.0"/>
<path d="M280.25 140.31L280.25 140.23Z"
fill="none" stroke="black" stroke-width="2.0"/>
<path d="M280.25 140.23L280.21 140.23"
fill="none" stroke="black" stroke-width="2.0"/>
<path d="M280.25 140.26L280.22 140.26"
fill="none" stroke="black" stroke-width="2.0"/>
<path d="M280.25 140.31L280.21 140.31"
fill="none" stroke="black" stroke-width="2.0"/>
</svg>
