<?xml version="1.0" encoding="UTF-8"?>
<svg xmlns="http://www.w3.org/2000/svg" width="800.000" height="600.000" viewBox="0.0 0.0 800.000 600.000" version="1.1">
  <title>Produce by Acme CAD Converter</title>
  <desc>Produce by Acme CAD Converter</desc>
<path d="M704.33 225.06L704.14 217.99M704.14 217.99L703.57 210.95M703.57 210.95L702.61 203.96M702.61 203.96L701.28 197.02M701.28 197.02L699.58 190.16M699.58 190.16L697.5 183.41M697.5 183.41L695.07 176.78M695.07 176.78L692.28 170.29M692.28 170.29L689.14 163.96M689.14 163.96L685.66 157.81M685.66 157.81L681.86 151.86M681.86 151.86L677.74 146.12M677.74 146.12L673.31 140.62M673.31 140.62L668.59 135.36M668.59 135.36L663.6 130.37M663.6 130.37L658.34 125.65M658.34 125.65L652.83 121.22M652.83 121.22L647.1 117.1M647.1 117.1L641.15 113.3M641.15 113.3L635 109.82M635 109.82L628.67 106.68M628.67 106.68L622.18 103.89M622.18 103.89L615.55 101.46M615.55 101.46L608.8 99.38M608.8 99.38L601.94 97.68M601.94 97.68L595 96.35M595 96.35L588 95.39M588 95.39L580.96 94.82M580.96 94.82L573.9 94.63"
fill="none" stroke="black" stroke-width="3.0"/>
<path d="M573.9 94.63L226.1 94.63"
fill="none" stroke="black" stroke-width="3.0"/>
<path d="M226.1 94.63L219.04 94.82M219.04 94.82L212 95.39M212 95.39L205 96.35M205 96.35L198.06 97.68M198.06 97.68L191.2 99.38M191.2 99.38L184.45 101.46M184.45 101.46L177.82 103.89M177.82 103.89L171.33 106.68M171.33 106.68L165 109.82M165 109.82L158.85 113.3M158.85 113.3L152.9 117.1M152.9 117.1L147.17 121.22M147.17 121.22L141.66 125.65M141.66 125.65L136.4 130.37M136.4 130.37L131.41 135.36M131.41 135.36L126.69 140.62M126.69 140.62L122.26 146.12M122.26 146.12L118.14 151.86M118.14 151.86L114.34 157.81M114.34 157.81L110.86 163.96M110.86 163.96L107.72 170.29M107.72 170.29L104.93 176.78M104.93 176.78L102.5 183.41M102.5 183.41L100.42 190.16M100.42 190.16L98.72 197.02M98.72 197.02L97.39 203.96M97.39 203.96L96.43 210.95M96.43 210.95L95.86 217.99M95.86 217.99L95.67 225.06"
fill="none" stroke="black" stroke-width="3.0"/>
<path d="M95.67 225.06L95.67 467.87"
fill="none" stroke="black" stroke-width="3.0"/>
<path d="M95.67 467.87L95.86 474.94M95.86 474.94L96.43 481.98M96.43 481.98L97.39 488.98M97.39 488.98L98.72 495.91M98.72 495.91L100.42 502.77M100.42 502.77L102.5 509.52M102.5 509.52L104.93 516.15M104.93 516.15L107.72 522.64M107.72 522.64L110.86 528.97M110.86 528.97L114.34 535.12M114.34 535.12L118.14 541.07M118.14 541.07L122.26 546.81M122.26 546.81L126.69 552.31M126.69 552.31L131.41 557.57M131.41 557.57L136.4 562.56M136.4 562.56L141.66 567.28M141.66 567.28L147.17 571.71M147.17 571.71L152.9 575.83M152.9 575.83L158.85 579.63M158.85 579.63L165 583.11M165 583.11L171.33 586.25M171.33 586.25L177.82 589.04M177.82 589.04L184.45 591.47M184.45 591.47L191.2 593.55M191.2 593.55L198.06 595.25M198.06 595.25L205 596.58M205 596.58L212 597.54M212 597.54L219.04 598.11M219.04 598.11L226.1 598.3"
fill="none" stroke="black" stroke-width="3.0"/>
<path d="M226.1 598.3L573.9 598.3"
fill="none" stroke="black" stroke-width="3.0"/>
<path d="M573.9 598.3L580.96 598.11M580.96 598.11L588 597.54M588 597.54L595 596.58M595 596.58L601.94 595.25M601.94 595.25L608.8 593.55M608.8 593.55L615.55 591.47M615.55 591.47L622.18 589.04M622.18 589.04L628.67 586.25M628.67 586.25L635 583.11M635 583.11L641.15 579.63M641.15 579.63L647.1 575.83M647.1 575.83L652.83 571.71M652.83 571.71L658.34 567.28M658.34 567.28L663.6 562.56M663.6 562.56L668.59 557.57M668.59 557.57L673.31 552.31M673.31 552.31L677.74 546.81M677.74 546.81L681.86 541.07M681.86 541.07L685.66 535.12M685.66 535.12L689.14 528.97M689.14 528.97L692.28 522.64M692.28 522.64L695.07 516.15M695.07 516.15L697.5 509.52M697.5 509.52L699.58 502.77M699.58 502.77L701.28 495.91M701.28 495.91L702.61 488.98M702.61 488.98L703.57 481.98M703.57 481.98L704.14 474.94M704.14 474.94L704.33 467.87"
fill="none" stroke="black" stroke-width="3.0"/>
<path d="M704.33 467.87L704.33 225.06"
fill="none" stroke="black" stroke-width="3.0"/>
<path d="M690.23 47.71L690.05 45.45M690.05 45.45L689.52 43.23M689.52 43.23L688.65 41.13M688.65 41.13L687.46 39.19M687.46 39.19L685.99 37.47M685.99 37.47L684.26 35.99M684.26 35.99L682.32 34.8M682.32 34.8L680.22 33.93M680.22 33.93L678 33.4M678 33.4L675.74 33.22"
fill="none" stroke="black" stroke-width="3.0"/>
<path d="M690.23 47.71L690.23 53.08"
fill="none" stroke="black" stroke-width="3.0"/>
<path d="M675.74 67.57L678 67.39M678 67.39L680.22 66.86M680.22 66.86L682.32 65.99M682.32 65.99L684.26 64.8M684.26 64.8L685.99 63.33M685.99 63.33L687.46 61.6M687.46 61.6L688.65 59.66M688.65 59.66L689.52 57.56M689.52 57.56L690.05 55.35M690.05 55.35L690.23 53.08"
fill="none" stroke="black" stroke-width="3.0"/>
<path d="M675.74 67.57L134.27 67.57"
fill="none" stroke="black" stroke-width="3.0"/>
<path d="M119.78 53.08L119.96 55.35M119.96 55.35L120.49 57.56M120.49 57.56L121.36 59.66M121.36 59.66L122.55 61.6M122.55 61.6L124.03 63.33M124.03 63.33L125.76 64.8M125.76 64.8L127.7 65.99M127.7 65.99L129.8 66.86M129.8 66.86L132.01 67.39M132.01 67.39L134.27 67.57"
fill="none" stroke="black" stroke-width="3.0"/>
<path d="M119.78 53.08L119.78 47.71"
fill="none" stroke="black" stroke-width="3.0"/>
<path d="M134.27 33.22L132.01 33.4M132.01 33.4L129.8 33.93M129.8 33.93L127.7 34.8M127.7 34.8L125.76 35.99M125.76 35.99L124.03 37.47M124.03 37.47L122.55 39.19M122.55 39.19L121.36 41.13M121.36 41.13L120.49 43.23M120.49 43.23L119.96 45.45M119.96 45.45L119.78 47.71"
fill="none" stroke="black" stroke-width="3.0"/>
<path d="M675.74 33.22L654.99 28.52M654.99 28.52L634.16 24.2M634.16 24.2L613.26 20.25M613.26 20.25L592.29 16.68M592.29 16.68L571.26 13.49M571.26 13.49L550.17 10.67M550.17 10.67L529.04 8.24M529.04 8.24L507.87 6.2M507.87 6.2L486.66 4.53M486.66 4.53L465.43 3.25M465.43 3.25L444.17 2.35M444.17 2.35L422.91 1.83M422.91 1.83L401.64 1.7M401.64 1.7L380.37 1.96M380.37 1.96L359.1 2.59M359.1 2.59L337.86 3.61M337.86 3.61L316.63 5.02M316.63 5.02L295.43 6.8M295.43 6.8L274.27 8.97M274.27 8.97L253.15 11.52M253.15 11.52L232.08 14.46M232.08 14.46L211.07 17.77M211.07 17.77L190.12 21.46M190.12 21.46L169.24 25.53M169.24 25.53L148.44 29.97M148.44 29.97L127.72 34.79"
fill="none" stroke="black" stroke-width="3.0"/>
<path d="M631.75 67.57L610.66 63.28M610.66 63.28L589.5 59.37M589.5 59.37L568.27 55.85M568.27 55.85L546.98 52.71M546.98 52.71L525.63 49.97M525.63 49.97L504.24 47.62M504.24 47.62L482.81 45.65M482.81 45.65L461.35 44.08M461.35 44.08L439.86 42.91M439.86 42.91L418.36 42.12M418.36 42.12L396.84 41.73M396.84 41.73L375.32 41.73M375.32 41.73L353.8 42.12M353.8 42.12L332.3 42.91M332.3 42.91L310.81 44.08M310.81 44.08L289.35 45.65M289.35 45.65L267.92 47.62M267.92 47.62L246.53 49.97M246.53 49.97L225.18 52.71M225.18 52.71L203.89 55.85M203.89 55.85L182.66 59.37M182.66 59.37L161.5 63.28M161.5 63.28L140.41 67.57"
fill="none" stroke="black" stroke-width="3.0"/>
<path d="M573.62 67.57L573.9 94.63"
fill="none" stroke="black" stroke-width="3.0"/>
<path d="M555.12 67.57L555.12 94.63"
fill="none" stroke="black" stroke-width="3.0"/>
<path d="M226.38 67.57L226.1 94.63"
fill="none" stroke="black" stroke-width="3.0"/>
<path d="M244.88 67.57L244.88 94.63"
fill="none" stroke="black" stroke-width="3.0"/>
</svg>
