<?xml version="1.0" encoding="UTF-8"?>
<svg xmlns="http://www.w3.org/2000/svg" width="800.000" height="600.000" viewBox="0.0 0.0 800.000 600.000" version="1.1">
  <desc>Produce by Acme CAD Converter</desc>
<path d="M275.68 230.59L264.51 250"
fill="none" stroke="black" stroke-width="2.0"/>
<path d="M264.51 250L262.61 263.23"
fill="none" stroke="black" stroke-width="2.0"/>
<path d="M262.61 263.23L261.07 276.5"
fill="none" stroke="black" stroke-width="2.0"/>
<path d="M261.07 276.5L259.87 289.82"
fill="none" stroke="black" stroke-width="2.0"/>
<path d="M259.87 289.82L259.03 303.16"
fill="none" stroke="black" stroke-width="2.0"/>
<path d="M259.03 303.16L258.55 316.51"
fill="none" stroke="black" stroke-width="2.0"/>
<path d="M258.55 316.51L258.41 329.88"
fill="none" stroke="black" stroke-width="2.0"/>
<path d="M258.41 329.88L258.63 343.24"
fill="none" stroke="black" stroke-width="2.0"/>
<path d="M258.63 343.24L259.21 356.6"
fill="none" stroke="black" stroke-width="2.0"/>
<path d="M259.21 356.6L260.14 369.93"
fill="none" stroke="black" stroke-width="2.0"/>
<path d="M260.14 369.93L263.88 411.19"
fill="none" stroke="black" stroke-width="2.0"/>
<path d="M299.16 448.98L312.71 451.61"
fill="none" stroke="black" stroke-width="2.0"/>
<path d="M312.71 451.61L326.34 453.87"
fill="none" stroke="black" stroke-width="2.0"/>
<path d="M326.34 453.87L340.02 455.75"
fill="none" stroke="black" stroke-width="2.0"/>
<path d="M340.02 455.75L353.74 457.25"
fill="none" stroke="black" stroke-width="2.0"/>
<path d="M353.74 457.25L367.51 458.38"
fill="none" stroke="black" stroke-width="2.0"/>
<path d="M367.51 458.38L381.29 459.13"
fill="none" stroke="black" stroke-width="2.0"/>
<path d="M381.29 459.13L395.1 459.5"
fill="none" stroke="black" stroke-width="2.0"/>
<path d="M395.1 459.5L408.91 459.49"
fill="none" stroke="black" stroke-width="2.0"/>
<path d="M408.91 459.49L422.71 459.1"
fill="none" stroke="black" stroke-width="2.0"/>
<path d="M422.71 459.1L436.5 458.33"
fill="none" stroke="black" stroke-width="2.0"/>
<path d="M436.5 458.33L450.26 457.18"
fill="none" stroke="black" stroke-width="2.0"/>
<path d="M450.26 457.18L463.98 455.65"
fill="none" stroke="black" stroke-width="2.0"/>
<path d="M463.98 455.65L477.66 453.75"
fill="none" stroke="black" stroke-width="2.0"/>
<path d="M477.66 453.75L491.28 451.47"
fill="none" stroke="black" stroke-width="2.0"/>
<path d="M491.28 451.47L504.83 448.82"
fill="none" stroke="black" stroke-width="2.0"/>
<path d="M538.64 407.61L541.43 370.25"
fill="none" stroke="black" stroke-width="2.0"/>
<path d="M541.43 370.25L542.21 355.08"
fill="none" stroke="black" stroke-width="2.0"/>
<path d="M542.21 355.08L542.63 339.9"
fill="none" stroke="black" stroke-width="2.0"/>
<path d="M542.63 339.9L542.67 324.71"
fill="none" stroke="black" stroke-width="2.0"/>
<path d="M542.67 324.71L542.34 309.53"
fill="none" stroke="black" stroke-width="2.0"/>
<path d="M542.34 309.53L541.63 294.36"
fill="none" stroke="black" stroke-width="2.0"/>
<path d="M541.63 294.36L540.55 279.21"
fill="none" stroke="black" stroke-width="2.0"/>
<path d="M540.55 279.21L539.1 264.09"
fill="none" stroke="black" stroke-width="2.0"/>
<path d="M539.1 264.09L537.28 249.01"
fill="none" stroke="black" stroke-width="2.0"/>
<path d="M537.28 249.01L523.92 230.11"
fill="none" stroke="black" stroke-width="2.0"/>
<path d="M294.6 238.64L297.33 238.66"
fill="none" stroke="black" stroke-width="2.0"/>
<path d="M503.35 237.14L507.08 236.91"
fill="none" stroke="black" stroke-width="2.0"/>
<path d="M340.93 210.34L331.55 212.5"
fill="none" stroke="black" stroke-width="2.0"/>
<path d="M331.55 212.5L322.24 214.96"
fill="none" stroke="black" stroke-width="2.0"/>
<path d="M322.24 214.96L313.01 217.72"
fill="none" stroke="black" stroke-width="2.0"/>
<path d="M313.01 217.72L303.88 220.78"
fill="none" stroke="black" stroke-width="2.0"/>
<path d="M303.88 220.78L294.86 224.14"
fill="none" stroke="black" stroke-width="2.0"/>
<path d="M282.62 217.74L284.7 219.62"
fill="none" stroke="black" stroke-width="2.0"/>
<path d="M284.7 219.62L287 221.22"
fill="none" stroke="black" stroke-width="2.0"/>
<path d="M287 221.22L289.49 222.52"
fill="none" stroke="black" stroke-width="2.0"/>
<path d="M289.49 222.52L292.12 223.5"
fill="none" stroke="black" stroke-width="2.0"/>
<path d="M292.12 223.5L294.86 224.14"
fill="none" stroke="black" stroke-width="2.0"/>
<path d="M505.57 222.58L507.87 222.13"
fill="none" stroke="black" stroke-width="2.0"/>
<path d="M507.87 222.13L510.09 221.4"
fill="none" stroke="black" stroke-width="2.0"/>
<path d="M510.09 221.4L512.2 220.39"
fill="none" stroke="black" stroke-width="2.0"/>
<path d="M512.2 220.39L514.17 219.14"
fill="none" stroke="black" stroke-width="2.0"/>
<path d="M514.17 219.14L515.97 217.64"
fill="none" stroke="black" stroke-width="2.0"/>
<path d="M505.57 222.58L497.37 219.65"
fill="none" stroke="black" stroke-width="2.0"/>
<path d="M497.37 219.65L489.08 216.96"
fill="none" stroke="black" stroke-width="2.0"/>
<path d="M489.08 216.96L480.71 214.52"
fill="none" stroke="black" stroke-width="2.0"/>
<path d="M480.71 214.52L472.28 212.33"
fill="none" stroke="black" stroke-width="2.0"/>
<path d="M472.28 212.33L463.78 210.39"
fill="none" stroke="black" stroke-width="2.0"/>
<path d="M 503.35 237.14 A 260.711 260.711 0 0 0 297.33 238.66"
fill="none" stroke="black" stroke-width="2.0"/>
<path d="M 503.35 237.14 A 33.08 33.08 0 0 0 531.39 186.84"
fill="none" stroke="black" stroke-width="2.0"/>
<path d="M 269.29 188.36 A 33.08 33.08 0 0 0 297.33 238.66"
fill="none" stroke="black" stroke-width="2.0"/>
<path d="M 531.39 186.84 A 207.058 207.058 0 0 0 269.29 188.36"
fill="none" stroke="black" stroke-width="2.0"/>
<path d="M 263.88 411.19 A 53.114 53.114 0 0 0 299.16 448.98"
fill="none" stroke="black" stroke-width="2.0"/>
<path d="M 504.84 448.98 A 54.351 54.351 0 0 0 538.64 407.61"
fill="none" stroke="black" stroke-width="2.0"/>
</svg>
