<?xml version="1.0" encoding="UTF-8"?>
<svg xmlns="http://www.w3.org/2000/svg" width="800.000" height="600.000" viewBox="0.0 0.0 800.000 600.000" version="1.1">
  <title>Produce by Acme CAD Converter</title>
  <desc>Produce by Acme CAD Converter</desc>
<path d="M417.63 209.49L415.17 189.39"
fill="none" stroke="black" stroke-width="0.5"/>
<path d="M415.17 189.39L412.21 189.75"
fill="none" stroke="black" stroke-width="0.5"/>
<path d="M412.21 189.75L414.67 209.85"
fill="none" stroke="black" stroke-width="0.5"/>
<path d="M414.67 209.85L417.63 209.49"
fill="none" stroke="black" stroke-width="0.5"/>
<path d="M397.63 209.01L397.63 188.76"
fill="none" stroke="black" stroke-width="0.5"/>
<path d="M397.63 188.76L394.65 188.76"
fill="none" stroke="black" stroke-width="0.5"/>
<path d="M394.65 188.76L394.65 209.01"
fill="none" stroke="black" stroke-width="0.5"/>
<path d="M394.65 209.01L397.63 209.01"
fill="none" stroke="black" stroke-width="0.5"/>
<path d="M301.97 209.01L301.97 188.76"
fill="none" stroke="black" stroke-width="0.5"/>
<path d="M301.97 188.76L298.99 188.76"
fill="none" stroke="black" stroke-width="0.5"/>
<path d="M298.99 188.76L298.99 209.01"
fill="none" stroke="black" stroke-width="0.5"/>
<path d="M298.99 209.01L301.97 209.01"
fill="none" stroke="black" stroke-width="0.5"/>
<path d="M308.52 209.01L308.52 188.76"
fill="none" stroke="black" stroke-width="0.5"/>
<path d="M308.52 188.76L305.54 188.76"
fill="none" stroke="black" stroke-width="0.5"/>
<path d="M305.54 188.76L305.54 209.01"
fill="none" stroke="black" stroke-width="0.5"/>
<path d="M305.54 209.01L308.52 209.01"
fill="none" stroke="black" stroke-width="0.5"/>
<path d="M327.16 209.88L324.01 189.88"
fill="none" stroke="black" stroke-width="0.5"/>
<path d="M324.01 189.88L321.07 190.34"
fill="none" stroke="black" stroke-width="0.5"/>
<path d="M321.07 190.34L324.22 210.35"
fill="none" stroke="black" stroke-width="0.5"/>
<path d="M324.22 210.35L327.16 209.88"
fill="none" stroke="black" stroke-width="0.5"/>
<path d="M441.21 209.41L442.83 189.22"
fill="none" stroke="black" stroke-width="0.5"/>
<path d="M442.83 189.22L439.86 188.98"
fill="none" stroke="black" stroke-width="0.5"/>
<path d="M439.86 188.98L438.24 209.17"
fill="none" stroke="black" stroke-width="0.5"/>
<path d="M438.24 209.17L441.21 209.41"
fill="none" stroke="black" stroke-width="0.5"/>
<path d="M449.25 209.01L449.25 188.76"
fill="none" stroke="black" stroke-width="0.5"/>
<path d="M449.25 188.76L446.27 188.76"
fill="none" stroke="black" stroke-width="0.5"/>
<path d="M446.27 188.76L446.27 209.01"
fill="none" stroke="black" stroke-width="0.5"/>
<path d="M446.27 209.01L449.25 209.01"
fill="none" stroke="black" stroke-width="0.5"/>
<path d="M439.09 385.11L441.55 405.21"
fill="none" stroke="black" stroke-width="0.5"/>
<path d="M441.55 405.21L438.59 405.58"
fill="none" stroke="black" stroke-width="0.5"/>
<path d="M438.59 405.58L436.14 385.47"
fill="none" stroke="black" stroke-width="0.5"/>
<path d="M436.14 385.47L439.09 385.11"
fill="none" stroke="black" stroke-width="0.5"/>
<path d="M397.63 385.94L397.63 406.19"
fill="none" stroke="black" stroke-width="0.5"/>
<path d="M397.63 406.19L394.65 406.19"
fill="none" stroke="black" stroke-width="0.5"/>
<path d="M394.65 406.19L394.65 385.94"
fill="none" stroke="black" stroke-width="0.5"/>
<path d="M394.65 385.94L397.63 385.94"
fill="none" stroke="black" stroke-width="0.5"/>
<path d="M427.05 385.77L425.43 405.95"
fill="none" stroke="black" stroke-width="0.5"/>
<path d="M425.43 405.95L422.46 405.72"
fill="none" stroke="black" stroke-width="0.5"/>
<path d="M422.46 405.72L424.08 385.53"
fill="none" stroke="black" stroke-width="0.5"/>
<path d="M424.08 385.53L427.05 385.77"
fill="none" stroke="black" stroke-width="0.5"/>
<path d="M301.97 385.94L301.97 406.19"
fill="none" stroke="black" stroke-width="0.5"/>
<path d="M301.97 406.19L298.99 406.19"
fill="none" stroke="black" stroke-width="0.5"/>
<path d="M298.99 406.19L298.99 385.94"
fill="none" stroke="black" stroke-width="0.5"/>
<path d="M298.99 385.94L301.97 385.94"
fill="none" stroke="black" stroke-width="0.5"/>
<path d="M308.52 385.94L308.52 406.19"
fill="none" stroke="black" stroke-width="0.5"/>
<path d="M308.52 406.19L305.54 406.19"
fill="none" stroke="black" stroke-width="0.5"/>
<path d="M305.54 406.19L305.54 385.94"
fill="none" stroke="black" stroke-width="0.5"/>
<path d="M305.54 385.94L308.52 385.94"
fill="none" stroke="black" stroke-width="0.5"/>
<path d="M354.64 384.66L357.79 404.67"
fill="none" stroke="black" stroke-width="0.5"/>
<path d="M357.79 404.67L354.85 405.13"
fill="none" stroke="black" stroke-width="0.5"/>
<path d="M354.85 405.13L351.7 385.13"
fill="none" stroke="black" stroke-width="0.5"/>
<path d="M351.7 385.13L354.64 384.66"
fill="none" stroke="black" stroke-width="0.5"/>
<path d="M449.25 385.94L449.25 406.19"
fill="none" stroke="black" stroke-width="0.5"/>
<path d="M449.25 406.19L446.27 406.19"
fill="none" stroke="black" stroke-width="0.5"/>
<path d="M446.27 406.19L446.27 385.94"
fill="none" stroke="black" stroke-width="0.5"/>
<path d="M446.27 385.94L449.25 385.94"
fill="none" stroke="black" stroke-width="0.5"/>
<path d="M47.62 182.84L232.73 421.43"
fill="none" stroke="black" stroke-width="0.5"/>
<path d="M232.73 182.84L47.62 421.43"
fill="none" stroke="black" stroke-width="0.5"/>
<path d="M232.73 421.43L47.62 421.43"
fill="none" stroke="black" stroke-width="0.5"/>
<path d="M47.62 421.43L47.62 182.84"
fill="none" stroke="black" stroke-width="0.5"/>
<path d="M47.62 182.84L232.73 182.84"
fill="none" stroke="black" stroke-width="0.5"/>
<path d="M232.73 182.84L232.73 421.43"
fill="none" stroke="black" stroke-width="0.5"/>
<path d="M425.57 385.65L439.72 209.29"
fill="none" stroke="black" stroke-width="0.5"/>
<path d="M437.62 385.29L416.15 209.67"
fill="none" stroke="black" stroke-width="0.5"/>
<path d="M396.14 385.94L396.14 209.01"
fill="none" stroke="black" stroke-width="0.5"/>
<path d="M300.48 385.94L300.48 209.01"
fill="none" stroke="black" stroke-width="0.5"/>
<path d="M307.03 385.94L307.03 209.01"
fill="none" stroke="black" stroke-width="0.5"/>
<path d="M353.17 384.89L325.69 210.11"
fill="none" stroke="black" stroke-width="0.5"/>
<path d="M447.76 385.94L447.76 209.01"
fill="none" stroke="black" stroke-width="0.5"/>
<path d="M263.07 169.59L276.11 169.59"
fill="none" stroke="black" stroke-width="0.5"/>
<path d="M276.11 169.59L276.11 430.41"
fill="none" stroke="black" stroke-width="0.5"/>
<path d="M276.11 430.41L263.07 430.41"
fill="none" stroke="black" stroke-width="0.5"/>
<path d="M263.07 430.41L263.07 169.59"
fill="none" stroke="black" stroke-width="0.5"/>
<path d="M2.26 169.59L15.3 169.59"
fill="none" stroke="black" stroke-width="0.5"/>
<path d="M15.3 169.59L15.3 430.41"
fill="none" stroke="black" stroke-width="0.5"/>
<path d="M15.3 430.41L2.26 430.41"
fill="none" stroke="black" stroke-width="0.5"/>
<path d="M2.26 430.41L2.26 169.59"
fill="none" stroke="black" stroke-width="0.5"/>
<path d="M484.62 209.75L484.62 189.5"
fill="none" stroke="black" stroke-width="0.5"/>
<path d="M484.62 189.5L481.64 189.5"
fill="none" stroke="black" stroke-width="0.5"/>
<path d="M481.64 189.5L481.64 209.75"
fill="none" stroke="black" stroke-width="0.5"/>
<path d="M481.64 209.75L484.62 209.75"
fill="none" stroke="black" stroke-width="0.5"/>
<path d="M472.84 209.01L472.84 188.76"
fill="none" stroke="black" stroke-width="0.5"/>
<path d="M472.84 188.76L469.86 188.76"
fill="none" stroke="black" stroke-width="0.5"/>
<path d="M469.86 188.76L469.86 209.01"
fill="none" stroke="black" stroke-width="0.5"/>
<path d="M469.86 209.01L472.84 209.01"
fill="none" stroke="black" stroke-width="0.5"/>
<path d="M733.34 209.01L733.34 188.76"
fill="none" stroke="black" stroke-width="0.5"/>
<path d="M733.34 188.76L730.36 188.76"
fill="none" stroke="black" stroke-width="0.5"/>
<path d="M730.36 188.76L730.36 209.01"
fill="none" stroke="black" stroke-width="0.5"/>
<path d="M730.36 209.01L733.34 209.01"
fill="none" stroke="black" stroke-width="0.5"/>
<path d="M745.12 209.75L745.12 189.5"
fill="none" stroke="black" stroke-width="0.5"/>
<path d="M745.12 189.5L742.14 189.5"
fill="none" stroke="black" stroke-width="0.5"/>
<path d="M742.14 189.5L742.14 209.75"
fill="none" stroke="black" stroke-width="0.5"/>
<path d="M742.14 209.75L745.12 209.75"
fill="none" stroke="black" stroke-width="0.5"/>
<path d="M709.75 209.01L709.75 188.76"
fill="none" stroke="black" stroke-width="0.5"/>
<path d="M709.75 188.76L706.77 188.76"
fill="none" stroke="black" stroke-width="0.5"/>
<path d="M706.77 188.76L706.77 209.01"
fill="none" stroke="black" stroke-width="0.5"/>
<path d="M706.77 209.01L709.75 209.01"
fill="none" stroke="black" stroke-width="0.5"/>
<path d="M701.7 209.41L703.32 189.22"
fill="none" stroke="black" stroke-width="0.5"/>
<path d="M703.32 189.22L700.35 188.98"
fill="none" stroke="black" stroke-width="0.5"/>
<path d="M700.35 188.98L698.73 209.17"
fill="none" stroke="black" stroke-width="0.5"/>
<path d="M698.73 209.17L701.7 209.41"
fill="none" stroke="black" stroke-width="0.5"/>
<path d="M587.65 209.88L584.51 189.88"
fill="none" stroke="black" stroke-width="0.5"/>
<path d="M584.51 189.88L581.56 190.34"
fill="none" stroke="black" stroke-width="0.5"/>
<path d="M581.56 190.34L584.71 210.35"
fill="none" stroke="black" stroke-width="0.5"/>
<path d="M584.71 210.35L587.65 209.88"
fill="none" stroke="black" stroke-width="0.5"/>
<path d="M569.02 209.01L569.02 188.76"
fill="none" stroke="black" stroke-width="0.5"/>
<path d="M569.02 188.76L566.04 188.76"
fill="none" stroke="black" stroke-width="0.5"/>
<path d="M566.04 188.76L566.04 209.01"
fill="none" stroke="black" stroke-width="0.5"/>
<path d="M566.04 209.01L569.02 209.01"
fill="none" stroke="black" stroke-width="0.5"/>
<path d="M562.46 209.01L562.46 188.76"
fill="none" stroke="black" stroke-width="0.5"/>
<path d="M562.46 188.76L559.49 188.76"
fill="none" stroke="black" stroke-width="0.5"/>
<path d="M559.49 188.76L559.49 209.01"
fill="none" stroke="black" stroke-width="0.5"/>
<path d="M559.49 209.01L562.46 209.01"
fill="none" stroke="black" stroke-width="0.5"/>
<path d="M658.13 209.01L658.13 188.76"
fill="none" stroke="black" stroke-width="0.5"/>
<path d="M658.13 188.76L655.15 188.76"
fill="none" stroke="black" stroke-width="0.5"/>
<path d="M655.15 188.76L655.15 209.01"
fill="none" stroke="black" stroke-width="0.5"/>
<path d="M655.15 209.01L658.13 209.01"
fill="none" stroke="black" stroke-width="0.5"/>
<path d="M678.12 209.49L675.66 189.39"
fill="none" stroke="black" stroke-width="0.5"/>
<path d="M675.66 189.39L672.71 189.75"
fill="none" stroke="black" stroke-width="0.5"/>
<path d="M672.71 189.75L675.16 209.85"
fill="none" stroke="black" stroke-width="0.5"/>
<path d="M675.16 209.85L678.12 209.49"
fill="none" stroke="black" stroke-width="0.5"/>
<path d="M484.62 386.68L484.62 406.93"
fill="none" stroke="black" stroke-width="0.5"/>
<path d="M484.62 406.93L481.64 406.93"
fill="none" stroke="black" stroke-width="0.5"/>
<path d="M481.64 406.93L481.64 386.68"
fill="none" stroke="black" stroke-width="0.5"/>
<path d="M481.64 386.68L484.62 386.68"
fill="none" stroke="black" stroke-width="0.5"/>
<path d="M472.84 385.94L472.84 406.19"
fill="none" stroke="black" stroke-width="0.5"/>
<path d="M472.84 406.19L469.86 406.19"
fill="none" stroke="black" stroke-width="0.5"/>
<path d="M469.86 406.19L469.86 385.94"
fill="none" stroke="black" stroke-width="0.5"/>
<path d="M469.86 385.94L472.84 385.94"
fill="none" stroke="black" stroke-width="0.5"/>
<path d="M709.75 385.94L709.75 406.19"
fill="none" stroke="black" stroke-width="0.5"/>
<path d="M709.75 406.19L706.77 406.19"
fill="none" stroke="black" stroke-width="0.5"/>
<path d="M706.77 406.19L706.77 385.94"
fill="none" stroke="black" stroke-width="0.5"/>
<path d="M706.77 385.94L709.75 385.94"
fill="none" stroke="black" stroke-width="0.5"/>
<path d="M733.34 385.94L733.34 406.19"
fill="none" stroke="black" stroke-width="0.5"/>
<path d="M733.34 406.19L730.36 406.19"
fill="none" stroke="black" stroke-width="0.5"/>
<path d="M730.36 406.19L730.36 385.94"
fill="none" stroke="black" stroke-width="0.5"/>
<path d="M730.36 385.94L733.34 385.94"
fill="none" stroke="black" stroke-width="0.5"/>
<path d="M745.12 386.68L745.12 406.93"
fill="none" stroke="black" stroke-width="0.5"/>
<path d="M745.12 406.93L742.14 406.93"
fill="none" stroke="black" stroke-width="0.5"/>
<path d="M742.14 406.93L742.14 386.68"
fill="none" stroke="black" stroke-width="0.5"/>
<path d="M742.14 386.68L745.12 386.68"
fill="none" stroke="black" stroke-width="0.5"/>
<path d="M615.14 384.66L618.28 404.67"
fill="none" stroke="black" stroke-width="0.5"/>
<path d="M618.28 404.67L615.34 405.13"
fill="none" stroke="black" stroke-width="0.5"/>
<path d="M615.34 405.13L612.19 385.13"
fill="none" stroke="black" stroke-width="0.5"/>
<path d="M612.19 385.13L615.14 384.66"
fill="none" stroke="black" stroke-width="0.5"/>
<path d="M569.02 385.94L569.02 406.19"
fill="none" stroke="black" stroke-width="0.5"/>
<path d="M569.02 406.19L566.04 406.19"
fill="none" stroke="black" stroke-width="0.5"/>
<path d="M566.04 406.19L566.04 385.94"
fill="none" stroke="black" stroke-width="0.5"/>
<path d="M566.04 385.94L569.02 385.94"
fill="none" stroke="black" stroke-width="0.5"/>
<path d="M562.46 385.94L562.46 406.19"
fill="none" stroke="black" stroke-width="0.5"/>
<path d="M562.46 406.19L559.49 406.19"
fill="none" stroke="black" stroke-width="0.5"/>
<path d="M559.49 406.19L559.49 385.94"
fill="none" stroke="black" stroke-width="0.5"/>
<path d="M559.49 385.94L562.46 385.94"
fill="none" stroke="black" stroke-width="0.5"/>
<path d="M687.55 385.77L685.93 405.95"
fill="none" stroke="black" stroke-width="0.5"/>
<path d="M685.93 405.95L682.96 405.72"
fill="none" stroke="black" stroke-width="0.5"/>
<path d="M682.96 405.72L684.58 385.53"
fill="none" stroke="black" stroke-width="0.5"/>
<path d="M684.58 385.53L687.55 385.77"
fill="none" stroke="black" stroke-width="0.5"/>
<path d="M658.13 385.94L658.13 406.19"
fill="none" stroke="black" stroke-width="0.5"/>
<path d="M658.13 406.19L655.15 406.19"
fill="none" stroke="black" stroke-width="0.5"/>
<path d="M655.15 406.19L655.15 385.94"
fill="none" stroke="black" stroke-width="0.5"/>
<path d="M655.15 385.94L658.13 385.94"
fill="none" stroke="black" stroke-width="0.5"/>
<path d="M699.59 385.11L702.05 405.21"
fill="none" stroke="black" stroke-width="0.5"/>
<path d="M702.05 405.21L699.09 405.58"
fill="none" stroke="black" stroke-width="0.5"/>
<path d="M699.09 405.58L696.63 385.47"
fill="none" stroke="black" stroke-width="0.5"/>
<path d="M696.63 385.47L699.59 385.11"
fill="none" stroke="black" stroke-width="0.5"/>
<path d="M483.13 386.68L483.13 209.75"
fill="none" stroke="black" stroke-width="0.5"/>
<path d="M471.35 385.94L471.35 209.01"
fill="none" stroke="black" stroke-width="0.5"/>
<path d="M731.85 385.94L731.85 209.01"
fill="none" stroke="black" stroke-width="0.5"/>
<path d="M743.63 386.68L743.63 209.75"
fill="none" stroke="black" stroke-width="0.5"/>
<path d="M708.26 385.94L708.26 209.01"
fill="none" stroke="black" stroke-width="0.5"/>
<path d="M613.67 384.89L586.18 210.11"
fill="none" stroke="black" stroke-width="0.5"/>
<path d="M567.53 385.94L567.53 209.01"
fill="none" stroke="black" stroke-width="0.5"/>
<path d="M560.97 385.94L560.97 209.01"
fill="none" stroke="black" stroke-width="0.5"/>
<path d="M656.64 385.94L656.64 209.01"
fill="none" stroke="black" stroke-width="0.5"/>
<path d="M698.11 385.29L676.64 209.67"
fill="none" stroke="black" stroke-width="0.5"/>
<path d="M686.06 385.65L700.22 209.29"
fill="none" stroke="black" stroke-width="0.5"/>
<path d="M784.7 169.59L797.74 169.59"
fill="none" stroke="black" stroke-width="0.5"/>
<path d="M797.74 169.59L797.74 430.41"
fill="none" stroke="black" stroke-width="0.5"/>
<path d="M797.74 430.41L784.7 430.41"
fill="none" stroke="black" stroke-width="0.5"/>
<path d="M784.7 430.41L784.7 169.59"
fill="none" stroke="black" stroke-width="0.5"/>
<path d="M2.26 169.59L784.7 169.59"
fill="none" stroke="black" stroke-width="0.5"/>
<path d="M15.3 430.41L784.7 430.41"
fill="none" stroke="black" stroke-width="0.5"/>
</svg>
