<?xml version="1.0" encoding="UTF-8"?>
<svg xmlns="http://www.w3.org/2000/svg" width="800.000" height="600.000" viewBox="0.0 0.0 800.000 600.000" version="1.1">
  <title>Produce by Acme CAD Converter</title>
  <desc>Produce by Acme CAD Converter</desc>
<path d="M14.99 90.09L2.26 90.09"
fill="none" stroke="black" stroke-width="0.5"/>
<path d="M2.26 90.09L2.26 453.47"
fill="none" stroke="black" stroke-width="0.5"/>
<path d="M2.26 453.47L14.99 453.47"
fill="none" stroke="black" stroke-width="0.5"/>
<path d="M14.99 453.47L14.99 90.09"
fill="none" stroke="black" stroke-width="0.5"/>
<path d="M785.01 90.09L797.74 90.09"
fill="none" stroke="black" stroke-width="0.5"/>
<path d="M797.74 90.09L797.74 452.83"
fill="none" stroke="black" stroke-width="0.5"/>
<path d="M797.74 452.83L785.01 452.83"
fill="none" stroke="black" stroke-width="0.5"/>
<path d="M785.01 452.83L785.01 90.09"
fill="none" stroke="black" stroke-width="0.5"/>
<path d="M2.26 85L797.74 85"
fill="none" stroke="black" stroke-width="0.5"/>
<path d="M797.74 85L797.74 90.09"
fill="none" stroke="black" stroke-width="0.5"/>
<path d="M797.74 90.09L2.26 90.09"
fill="none" stroke="black" stroke-width="0.5"/>
<path d="M2.26 90.09L2.26 85"
fill="none" stroke="black" stroke-width="0.5"/>
<path d="M270.52 454.1L13.08 454.1"
fill="none" stroke="black" stroke-width="0.5"/>
<path d="M13.08 454.1L13.08 466.83"
fill="none" stroke="black" stroke-width="0.5"/>
<path d="M13.08 466.83L270.52 466.83"
fill="none" stroke="black" stroke-width="0.5"/>
<path d="M270.52 466.83L270.52 454.1"
fill="none" stroke="black" stroke-width="0.5"/>
<path d="M277.2 90.09L264.48 90.09"
fill="none" stroke="black" stroke-width="0.5"/>
<path d="M264.48 90.09L264.48 453.47"
fill="none" stroke="black" stroke-width="0.5"/>
<path d="M264.48 453.47L277.2 453.47"
fill="none" stroke="black" stroke-width="0.5"/>
<path d="M277.2 453.47L277.2 90.09"
fill="none" stroke="black" stroke-width="0.5"/>
<path d="M529.48 454.1L786.92 454.1"
fill="none" stroke="black" stroke-width="0.5"/>
<path d="M786.92 454.1L786.92 466.83"
fill="none" stroke="black" stroke-width="0.5"/>
<path d="M786.92 466.83L529.48 466.83"
fill="none" stroke="black" stroke-width="0.5"/>
<path d="M529.48 466.83L529.48 454.1"
fill="none" stroke="black" stroke-width="0.5"/>
<path d="M528.84 454.1L271.4 454.1"
fill="none" stroke="black" stroke-width="0.5"/>
<path d="M271.4 454.1L271.4 466.83"
fill="none" stroke="black" stroke-width="0.5"/>
<path d="M271.4 466.83L528.84 466.83"
fill="none" stroke="black" stroke-width="0.5"/>
<path d="M528.84 466.83L528.84 454.1"
fill="none" stroke="black" stroke-width="0.5"/>
<path d="M279.75 278.14L782.46 278.14"
fill="none" stroke="black" stroke-width="0.5"/>
<path d="M279.75 265.42L782.46 265.42"
fill="none" stroke="black" stroke-width="0.5"/>
<path d="M470.98 281.71L441 416.63"
fill="none" stroke="black" stroke-width="0.5"/>
<path d="M455.54 419.86L486.23 281.71"
fill="none" stroke="black" stroke-width="0.5"/>
<path d="M504.9 129.02L475.39 261.85"
fill="none" stroke="black" stroke-width="0.5"/>
<path d="M490.64 261.85L519.44 132.25"
fill="none" stroke="black" stroke-width="0.5"/>
<path d="M478.65 284.69L484.38 258.87"
fill="none" stroke="black" stroke-width="0.5"/>
<path d="M303.51 133.13L335.1 261.85"
fill="none" stroke="black" stroke-width="0.5"/>
<path d="M350.44 261.85L317.97 129.58"
fill="none" stroke="black" stroke-width="0.5"/>
<path d="M388.2 415.72L355.31 281.71"
fill="none" stroke="black" stroke-width="0.5"/>
<path d="M339.98 281.71L373.74 419.27"
fill="none" stroke="black" stroke-width="0.5"/>
<path d="M347.83 283.19L342.23 260.37"
fill="none" stroke="black" stroke-width="0.5"/>
<path d="M399.3 281.71L416.05 421.64"
fill="none" stroke="black" stroke-width="0.5"/>
<path d="M430.84 419.87L414.3 281.71"
fill="none" stroke="black" stroke-width="0.5"/>
<path d="M381.03 129.1L396.93 261.85"
fill="none" stroke="black" stroke-width="0.5"/>
<path d="M411.92 261.85L395.82 127.33"
fill="none" stroke="black" stroke-width="0.5"/>
<path d="M407.07 284.69L403.98 258.87"
fill="none" stroke="black" stroke-width="0.5"/>
<path d="M455.54 419.86L441 416.63"
fill="none" stroke="black" stroke-width="0.5"/>
<path d="M430.84 419.87L416.05 421.64"
fill="none" stroke="black" stroke-width="0.5"/>
<path d="M388.2 415.72L373.74 419.27"
fill="none" stroke="black" stroke-width="0.5"/>
<path d="M576.42 281.71L546.44 416.63"
fill="none" stroke="black" stroke-width="0.5"/>
<path d="M560.98 419.86L591.68 281.71"
fill="none" stroke="black" stroke-width="0.5"/>
<path d="M610.35 129.02L580.83 261.85"
fill="none" stroke="black" stroke-width="0.5"/>
<path d="M596.09 261.85L624.88 132.25"
fill="none" stroke="black" stroke-width="0.5"/>
<path d="M584.09 284.69L589.83 258.87"
fill="none" stroke="black" stroke-width="0.5"/>
<path d="M560.98 419.86L546.44 416.63"
fill="none" stroke="black" stroke-width="0.5"/>
<path d="M618.15 281.71L588.17 416.63"
fill="none" stroke="black" stroke-width="0.5"/>
<path d="M602.71 419.86L633.4 281.71"
fill="none" stroke="black" stroke-width="0.5"/>
<path d="M652.07 129.02L622.56 261.85"
fill="none" stroke="black" stroke-width="0.5"/>
<path d="M637.81 261.85L666.61 132.25"
fill="none" stroke="black" stroke-width="0.5"/>
<path d="M625.82 284.69L631.56 258.87"
fill="none" stroke="black" stroke-width="0.5"/>
<path d="M602.71 419.86L588.17 416.63"
fill="none" stroke="black" stroke-width="0.5"/>
<path d="M279.75 284.51L277.2 284.51"
fill="none" stroke="black" stroke-width="0.5"/>
<path d="M277.2 284.51L277.2 259.05"
fill="none" stroke="black" stroke-width="0.5"/>
<path d="M277.2 259.05L279.75 259.05"
fill="none" stroke="black" stroke-width="0.5"/>
<path d="M279.75 259.05L279.75 284.51"
fill="none" stroke="black" stroke-width="0.5"/>
<path d="M277.33 265.42L277.33 278.14"
fill="none" stroke="black" stroke-width="0.5"/>
<path d="M279.43 271.75L278.57 271.69"
fill="none" stroke="black" stroke-width="0.5"/>
<path d="M279.43 271.75L279.3 271.29M279.3 271.29L278.96 270.96M278.96 270.96L278.51 270.83"
fill="none" stroke="black" stroke-width="0.5"/>
<path d="M278.51 272.73L278.96 272.6M278.96 272.6L279.3 272.27M279.3 272.27L279.43 271.81"
fill="none" stroke="black" stroke-width="0.5"/>
<path d="M277.52 271.81L277.66 272.27M277.66 272.27L277.99 272.6M277.99 272.6L278.45 272.73"
fill="none" stroke="black" stroke-width="0.5"/>
<path d="M278.45 270.83L277.99 270.96M277.99 270.96L277.66 271.29M277.66 271.29L277.52 271.75"
fill="none" stroke="black" stroke-width="0.5"/>
<path d="M278.57 271.69L278.51 270.83"
fill="none" stroke="black" stroke-width="0.5"/>
<path d="M278.51 272.73L278.57 271.87"
fill="none" stroke="black" stroke-width="0.5"/>
<path d="M278.57 271.87L279.43 271.81"
fill="none" stroke="black" stroke-width="0.5"/>
<path d="M277.52 271.81L278.39 271.87"
fill="none" stroke="black" stroke-width="0.5"/>
<path d="M278.39 271.87L278.45 272.73"
fill="none" stroke="black" stroke-width="0.5"/>
<path d="M278.45 270.83L278.39 271.69"
fill="none" stroke="black" stroke-width="0.5"/>
<path d="M278.39 271.69L277.52 271.75"
fill="none" stroke="black" stroke-width="0.5"/>
<path d="M279.75 265.42L277.33 265.42"
fill="none" stroke="black" stroke-width="0.5"/>
<path d="M277.33 278.14L279.75 278.14"
fill="none" stroke="black" stroke-width="0.5"/>
<path d="M278.48 271.78L278.48 271.45"
fill="none" stroke="black" stroke-width="0.5"/>
<path d="M278.48 271.78L278.14 271.78"
fill="none" stroke="black" stroke-width="0.5"/>
<path d="M278.48 271.78L278.81 271.78"
fill="none" stroke="black" stroke-width="0.5"/>
<path d="M278.48 271.78L278.48 272.11"
fill="none" stroke="black" stroke-width="0.5"/>
<path d="M782.46 284.51L785.01 284.51"
fill="none" stroke="black" stroke-width="0.5"/>
<path d="M785.01 284.51L785.01 259.05"
fill="none" stroke="black" stroke-width="0.5"/>
<path d="M785.01 259.05L782.46 259.05"
fill="none" stroke="black" stroke-width="0.5"/>
<path d="M782.46 259.05L782.46 284.51"
fill="none" stroke="black" stroke-width="0.5"/>
<path d="M784.89 265.42L784.89 278.14"
fill="none" stroke="black" stroke-width="0.5"/>
<path d="M782.78 271.75L783.65 271.69"
fill="none" stroke="black" stroke-width="0.5"/>
<path d="M783.7 270.83L783.25 270.96M783.25 270.96L782.91 271.29M782.91 271.29L782.78 271.75"
fill="none" stroke="black" stroke-width="0.5"/>
<path d="M782.78 271.81L782.91 272.27M782.91 272.27L783.25 272.6M783.25 272.6L783.7 272.73"
fill="none" stroke="black" stroke-width="0.5"/>
<path d="M783.77 272.73L784.22 272.6M784.22 272.6L784.56 272.27M784.56 272.27L784.69 271.81"
fill="none" stroke="black" stroke-width="0.5"/>
<path d="M784.69 271.75L784.56 271.29M784.56 271.29L784.22 270.96M784.22 270.96L783.77 270.83"
fill="none" stroke="black" stroke-width="0.5"/>
<path d="M783.65 271.69L783.7 270.83"
fill="none" stroke="black" stroke-width="0.5"/>
<path d="M783.7 272.73L783.65 271.87"
fill="none" stroke="black" stroke-width="0.5"/>
<path d="M783.65 271.87L782.78 271.81"
fill="none" stroke="black" stroke-width="0.5"/>
<path d="M784.69 271.81L783.82 271.87"
fill="none" stroke="black" stroke-width="0.5"/>
<path d="M783.82 271.87L783.77 272.73"
fill="none" stroke="black" stroke-width="0.5"/>
<path d="M783.77 270.83L783.82 271.69"
fill="none" stroke="black" stroke-width="0.5"/>
<path d="M783.82 271.69L784.69 271.75"
fill="none" stroke="black" stroke-width="0.5"/>
<path d="M782.46 265.42L784.89 265.42"
fill="none" stroke="black" stroke-width="0.5"/>
<path d="M784.89 278.14L782.46 278.14"
fill="none" stroke="black" stroke-width="0.5"/>
<path d="M783.74 271.78L783.74 271.45"
fill="none" stroke="black" stroke-width="0.5"/>
<path d="M783.74 271.78L784.07 271.78"
fill="none" stroke="black" stroke-width="0.5"/>
<path d="M783.74 271.78L783.4 271.78"
fill="none" stroke="black" stroke-width="0.5"/>
<path d="M783.74 271.78L783.74 272.11"
fill="none" stroke="black" stroke-width="0.5"/>
<path d="M279.75 265.63L782.46 265.63"
fill="none" stroke="black" stroke-width="0.5"/>
<path d="M279.75 266.2L782.46 266.2"
fill="none" stroke="black" stroke-width="0.5"/>
<path d="M279.75 269.03L782.46 269.03"
fill="none" stroke="black" stroke-width="0.5"/>
<path d="M279.75 267.17L782.46 267.17"
fill="none" stroke="black" stroke-width="0.5"/>
<path d="M279.75 277.9L782.46 277.9"
fill="none" stroke="black" stroke-width="0.5"/>
<path d="M279.75 277.34L782.46 277.34"
fill="none" stroke="black" stroke-width="0.5"/>
<path d="M279.75 274.51L782.46 274.51"
fill="none" stroke="black" stroke-width="0.5"/>
<path d="M279.75 276.36L782.46 276.36"
fill="none" stroke="black" stroke-width="0.5"/>
<path d="M317.97 129.58L303.51 133.13"
fill="none" stroke="black" stroke-width="0.5"/>
<path d="M395.82 127.33L381.03 129.1"
fill="none" stroke="black" stroke-width="0.5"/>
<path d="M504.9 129.02L519.44 132.25"
fill="none" stroke="black" stroke-width="0.5"/>
<path d="M610.35 129.02L624.88 132.25"
fill="none" stroke="black" stroke-width="0.5"/>
<path d="M652.07 129.02L666.61 132.25"
fill="none" stroke="black" stroke-width="0.5"/>
<path d="M713.87 281.71L683.9 416.63"
fill="none" stroke="black" stroke-width="0.5"/>
<path d="M698.43 419.86L729.13 281.71"
fill="none" stroke="black" stroke-width="0.5"/>
<path d="M747.8 129.02L718.28 261.85"
fill="none" stroke="black" stroke-width="0.5"/>
<path d="M733.54 261.85L762.33 132.25"
fill="none" stroke="black" stroke-width="0.5"/>
<path d="M721.55 284.69L727.28 258.87"
fill="none" stroke="black" stroke-width="0.5"/>
<path d="M698.43 419.86L683.9 416.63"
fill="none" stroke="black" stroke-width="0.5"/>
<path d="M747.8 129.02L762.33 132.25"
fill="none" stroke="black" stroke-width="0.5"/>
<path d="M13.08 466.83L267.54 506.84"
fill="none" stroke="black" stroke-width="0.5"/>
<path d="M267.54 506.84L268.88 496.89M268.88 496.89L269.82 486.89M269.82 486.89L270.37 476.87M270.37 476.87L270.52 466.83"
fill="none" stroke="black" stroke-width="0.5"/>
<path d="M271.4 466.83L524.87 511.75"
fill="none" stroke="black" stroke-width="0.5"/>
<path d="M524.27 515L525.91 505.45M525.91 505.45L527.19 495.84M527.19 495.84L528.11 486.19M528.11 486.19L528.66 476.52M528.66 476.52L528.84 466.83"
fill="none" stroke="black" stroke-width="0.5"/>
<path d="M786.92 466.83L542 511.75"
fill="none" stroke="black" stroke-width="0.5"/>
<path d="M529.48 466.83L529.65 476.18M529.65 476.18L530.16 485.51M530.16 485.51L531.01 494.82M531.01 494.82L532.2 504.09M532.2 504.09L533.73 513.32"
fill="none" stroke="black" stroke-width="0.5"/>
</svg>
