<?xml version="1.0"?>
<svg width="800" height="600" xmlns="http://www.w3.org/2000/svg" xmlns:svg="http://www.w3.org/2000/svg" version="1.1">
 <!-- Created with SVG-edit - https://github.com/SVG-Edit/svgedit-->
 <g class="layer">
  <title>Layer 1</title>
  <ellipse cx="400.56" cy="300" fill="#000000" fill-opacity="0" id="svg_1" rx="396.72" ry="297.11" stroke="#000000" stroke-width="2"/>
  <circle cx="172" cy="197" fill="#000000" fill-opacity="0" id="svg_3" r="19.1" stroke="#000000" stroke-width="2" transform="matrix(1 0 0 1 0 0)"/>
  <circle cx="172.5" cy="410" fill="#000000" fill-opacity="0" id="svg_4" r="19.1" stroke="#000000" stroke-width="2" transform="matrix(1 0 0 1 0 0)"/>
  <circle cx="636.5" cy="410" fill="#000000" fill-opacity="0" id="svg_5" r="19.1" stroke="#000000" stroke-width="2"/>
  <circle cx="635.5" cy="195" fill="#000000" fill-opacity="0" id="svg_6" r="19.1" stroke="#000000" stroke-width="2" transform="matrix(1 0 0 1 0 0)"/>
  <path d="m173.7,191.57l168.02,86.16l-5.91,11.7l-168.02,-86.16l5.91,-11.7z" fill="#000000" fill-opacity="0" id="svg_7" stroke="#000000" transform="matrix(1 0 0 1 0 0)"/>
  <path d="m475.51,319.28l163.71,85.36l-4.87,9.8l-163.71,-85.36l4.87,-9.8z" fill="#000000" fill-opacity="0" id="svg_8" stroke="#000000" transform="matrix(1 0 0 1 0 0)"/>
  <path d="m639.87,202.14l-162.28,87.18l-6.2,-10.88l162.28,-87.18l6.2,10.88z" fill="#000000" fill-opacity="0" id="svg_9" stroke="#000000" transform="matrix(1 0 0 1 0 0)"/>
  <path d="m341.46,329.8l-169.36,88.17l-6.06,-11.78l169.36,-88.17l6.06,11.78z" fill="#000000" fill-opacity="0" id="svg_10" stroke="#000000" transform="matrix(1 0 0 1 0 0)"/>
  <path d="m342,277.5l128,0l0,11.5l-128,0l0,-11.5z" fill="none" fill-opacity="0" id="svg_15" stroke="#7f7f7f" transform="matrix(1 0 0 1 0 0)"/>
  <path d="m342,319.5l128,0l0,9.5l-128,0l0,-9.5z" fill="none" fill-opacity="0" id="svg_16" stroke="#7f7f7f" transform="matrix(1 0 0 1 0 0)"/>
  <path d="m335,289l7,0l0,30.5l-7,0l0,-30.5z" fill="#000000" fill-opacity="0" id="svg_17" stroke="#666666" transform="matrix(1 0 0 1 0 0)"/>
  <path d="m469.25,289.25l8,0l0,30.5l-8,0l0,-30.5z" fill="#000000" fill-opacity="0" id="svg_18" stroke="#7f7f7f" transform="matrix(1 0 0 1 0 0)"/>
 </g>
</svg>