<?xml version="1.0" encoding="UTF-8"?>
<svg xmlns="http://www.w3.org/2000/svg" width="800.000" height="600.000" viewBox="0.0 0.0 800.000 600.000" version="1.1">
  <title>Produce by Acme CAD Converter</title>
  <desc>Produce by Acme CAD Converter</desc>
<path d="M85.17 220.17L28.03 178.45"
fill="none" stroke="black" stroke-width="0.5"/>
<path d="M8.91 183.58L6.91 187.63M6.91 187.63L5.25 191.83M5.25 191.83L3.95 196.16M3.95 196.16L3.02 200.58M3.02 200.58L2.45 205.07M2.45 205.07L2.26 209.58"
fill="none" stroke="black" stroke-width="0.5"/>
<path d="M32.19 181.49L30.44 179.93M30.44 179.93L28.47 178.67M28.47 178.67L26.32 177.73M26.32 177.73L24.06 177.14M24.06 177.14L21.73 176.9M21.73 176.9L19.39 177.03M19.39 177.03L17.1 177.53M17.1 177.53L14.91 178.37M14.91 178.37L12.89 179.54M12.89 179.54L11.07 181.01M11.07 181.01L9.5 182.75M9.5 182.75L8.22 184.71M8.22 184.71L7.26 186.85"
fill="none" stroke="black" stroke-width="0.5"/>
<path d="M37.47 158.79L35.41 159.42M35.41 159.42L33.49 160.38M33.49 160.38L31.76 161.65M31.76 161.65L30.26 163.19M30.26 163.19L29.03 164.95M29.03 164.95L28.12 166.9M28.12 166.9L27.54 168.97M27.54 168.97L27.31 171.1M27.31 171.1L27.44 173.25M27.44 173.25L27.93 175.34M27.93 175.34L28.76 177.32M28.76 177.32L29.9 179.14M29.9 179.14L31.33 180.74M31.33 180.74L33.01 182.08"
fill="none" stroke="black" stroke-width="0.5"/>
<path d="M766.99 182.08L768.67 180.74M768.67 180.74L770.1 179.14M770.1 179.14L771.24 177.32M771.24 177.32L772.07 175.34M772.07 175.34L772.56 173.25M772.56 173.25L772.69 171.1M772.69 171.1L772.46 168.97M772.46 168.97L771.88 166.9M771.88 166.9L770.97 164.95M770.97 164.95L769.74 163.19M769.74 163.19L768.24 161.65M768.24 161.65L766.51 160.38M766.51 160.38L764.59 159.42M764.59 159.42L762.53 158.79"
fill="none" stroke="black" stroke-width="0.5"/>
<path d="M792.74 186.85L791.78 184.71M791.78 184.71L790.5 182.75M790.5 182.75L788.93 181.01M788.93 181.01L787.11 179.54M787.11 179.54L785.09 178.37M785.09 178.37L782.9 177.53M782.9 177.53L780.61 177.03M780.61 177.03L778.27 176.9M778.27 176.9L775.94 177.14M775.94 177.14L773.68 177.73M773.68 177.73L771.53 178.67M771.53 178.67L769.56 179.93M769.56 179.93L767.81 181.49"
fill="none" stroke="black" stroke-width="0.5"/>
<path d="M714.83 220.17L771.97 178.45"
fill="none" stroke="black" stroke-width="0.5"/>
<path d="M291.53 236.7L83.33 236.7"
fill="none" stroke="black" stroke-width="0.5"/>
<path d="M536.28 263.82L691.36 263.82"
fill="none" stroke="black" stroke-width="0.5"/>
<path d="M691.36 263.82L694.6 263.4M694.6 263.4L697.76 262.6M697.76 262.6L700.81 261.42M700.81 261.42L703.69 259.88M703.69 259.88L706.37 258.01M706.37 258.01L708.8 255.84M708.8 255.84L710.95 253.39M710.95 253.39L712.8 250.69M712.8 250.69L714.31 247.8M714.31 247.8L715.46 244.74M715.46 244.74L716.23 241.57M716.23 241.57L716.63 238.33M716.63 238.33L716.63 235.07M716.63 235.07L716.23 231.83M716.23 231.83L715.46 228.66M715.46 228.66L714.31 225.6M714.31 225.6L712.8 222.71M712.8 222.71L710.95 220.02M710.95 220.02L708.8 217.57M708.8 217.57L706.37 215.39M706.37 215.39L703.69 213.52M703.69 213.52L700.81 211.99M700.81 211.99L697.76 210.81M697.76 210.81L694.6 210M694.6 210L691.36 209.58"
fill="none" stroke="black" stroke-width="0.5"/>
<path d="M108.64 209.58L105.4 210M105.4 210L102.24 210.81M102.24 210.81L99.19 211.99M99.19 211.99L96.31 213.52M96.31 213.52L93.63 215.39M93.63 215.39L91.2 217.57M91.2 217.57L89.05 220.02M89.05 220.02L87.2 222.71M87.2 222.71L85.69 225.6M85.69 225.6L84.54 228.66M84.54 228.66L83.77 231.83M83.77 231.83L83.37 235.07M83.37 235.07L83.37 238.33M83.37 238.33L83.77 241.57M83.77 241.57L84.54 244.74M84.54 244.74L85.69 247.8M85.69 247.8L87.2 250.69M87.2 250.69L89.05 253.39M89.05 253.39L91.2 255.84M91.2 255.84L93.63 258.01M93.63 258.01L96.31 259.88M96.31 259.88L99.19 261.42M99.19 261.42L102.24 262.6M102.24 262.6L105.4 263.4M105.4 263.4L108.64 263.82"
fill="none" stroke="black" stroke-width="0.5"/>
<path d="M266.22 263.82L269.45 263.4M269.45 263.4L272.62 262.6M272.62 262.6L275.66 261.42M275.66 261.42L278.54 259.88M278.54 259.88L281.22 258.01M281.22 258.01L283.65 255.84M283.65 255.84L285.8 253.39M285.8 253.39L287.65 250.69M287.65 250.69L289.16 247.8M289.16 247.8L290.31 244.74M290.31 244.74L291.09 241.57M291.09 241.57L291.48 238.33M291.48 238.33L291.48 235.07M291.48 235.07L291.09 231.83M291.09 231.83L290.31 228.66M290.31 228.66L289.16 225.6M289.16 225.6L287.65 222.71M287.65 222.71L285.8 220.02M285.8 220.02L283.65 217.57M283.65 217.57L281.22 215.39M281.22 215.39L278.54 213.52M278.54 213.52L275.66 211.99M275.66 211.99L272.62 210.81M272.62 210.81L269.45 210M269.45 210L266.22 209.58"
fill="none" stroke="black" stroke-width="0.5"/>
<path d="M266.22 263.82L108.64 263.82"
fill="none" stroke="black" stroke-width="0.5"/>
<path d="M734.87 439.58L779.66 444.61"
fill="none" stroke="black" stroke-width="0.5"/>
<path d="M725.42 431.9L725.93 433.72M725.93 433.72L726.8 435.4M726.8 435.4L728 436.87M728 436.87L729.47 438.07M729.47 438.07L731.16 438.94M731.16 438.94L732.98 439.45M732.98 439.45L734.87 439.58"
fill="none" stroke="black" stroke-width="0.5"/>
<path d="M712.63 444.61L714.7 444.61M714.7 444.61L716.73 444.25M716.73 444.25L718.67 443.54M718.67 443.54L720.46 442.5M720.46 442.5L722.03 441.17M722.03 441.17L723.35 439.58M723.35 439.58L724.38 437.79M724.38 437.79L725.07 435.85M725.07 435.85L725.42 433.81"
fill="none" stroke="black" stroke-width="0.5"/>
<path d="M278.74 444.61L280.79 444.61M280.79 444.61L282.81 444.25M282.81 444.25L284.74 443.56M284.74 443.56L286.51 442.53M286.51 442.53L288.09 441.22M288.09 441.22L289.41 439.66M289.41 439.66L290.44 437.88M290.44 437.88L291.15 435.96M291.15 435.96L291.51 433.95M291.51 433.95L291.53 431.9"
fill="none" stroke="black" stroke-width="0.5"/>
<path d="M74.58 431.9L74.59 433.95M74.59 433.95L74.96 435.96M74.96 435.96L75.67 437.88M75.67 437.88L76.7 439.66M76.7 439.66L78.02 441.22M78.02 441.22L79.59 442.53M79.59 442.53L81.37 443.56M81.37 443.56L83.3 444.25M83.3 444.25L85.32 444.61"
fill="none" stroke="black" stroke-width="0.5"/>
<path d="M67.83 439.27L69.48 438.66M69.48 438.66L70.98 437.75M70.98 437.75L72.29 436.57M72.29 436.57L73.34 435.17M73.34 435.17L74.12 433.59M74.12 433.59L74.58 431.9"
fill="none" stroke="black" stroke-width="0.5"/>
<path d="M67.83 439.27L20.34 444.61"
fill="none" stroke="black" stroke-width="0.5"/>
<path d="M779.66 444.61L782.23 444.43M782.23 444.43L784.75 443.88M784.75 443.88L787.17 442.98M787.17 442.98L789.43 441.74M789.43 441.74L791.5 440.19M791.5 440.19L793.32 438.37M793.32 438.37L794.87 436.3M794.87 436.3L796.1 434.04M796.1 434.04L797 431.62M797 431.62L797.55 429.1M797.55 429.1L797.74 426.53"
fill="none" stroke="black" stroke-width="0.5"/>
<path d="M797.74 209.58L797.55 205.07M797.55 205.07L796.98 200.58M796.98 200.58L796.05 196.16M796.05 196.16L794.75 191.83M794.75 191.83L793.09 187.63M793.09 187.63L791.09 183.58"
fill="none" stroke="black" stroke-width="0.5"/>
<path d="M725.42 245.74L725.22 241.96M725.22 241.96L724.63 238.22M724.63 238.22L723.65 234.57M723.65 234.57L722.29 231.03M722.29 231.03L720.58 227.66M720.58 227.66L718.52 224.49M718.52 224.49L716.13 221.55M716.13 221.55L713.46 218.87M713.46 218.87L710.52 216.49M710.52 216.49L707.34 214.43M707.34 214.43L703.97 212.71M703.97 212.71L700.44 211.35M700.44 211.35L696.78 210.37M696.78 210.37L693.04 209.78M693.04 209.78L689.26 209.58"
fill="none" stroke="black" stroke-width="0.5"/>
<path d="M110.74 209.58L106.96 209.78M106.96 209.78L103.22 210.37M103.22 210.37L99.56 211.35M99.56 211.35L96.03 212.71M96.03 212.71L92.66 214.43M92.66 214.43L89.48 216.49M89.48 216.49L86.54 218.87M86.54 218.87L83.87 221.55M83.87 221.55L81.48 224.49M81.48 224.49L79.42 227.66M79.42 227.66L77.71 231.03M77.71 231.03L76.35 234.57M76.35 234.57L75.37 238.22M75.37 238.22L74.78 241.96M74.78 241.96L74.58 245.74"
fill="none" stroke="black" stroke-width="0.5"/>
<path d="M2.26 426.53L2.45 429.1M2.45 429.1L3 431.62M3 431.62L3.9 434.04M3.9 434.04L5.13 436.3M5.13 436.3L6.68 438.37M6.68 438.37L8.5 440.19M8.5 440.19L10.57 441.74M10.57 441.74L12.83 442.98M12.83 442.98L15.25 443.88M15.25 443.88L17.77 444.43M17.77 444.43L20.34 444.61"
fill="none" stroke="black" stroke-width="0.5"/>
<path d="M689.26 209.58L110.74 209.58"
fill="none" stroke="black" stroke-width="0.5"/>
<path d="M74.58 245.74L74.58 431.9"
fill="none" stroke="black" stroke-width="0.5"/>
<path d="M725.42 433.81L725.42 245.74"
fill="none" stroke="black" stroke-width="0.5"/>
<path d="M2.26 209.58L2.26 426.53"
fill="none" stroke="black" stroke-width="0.5"/>
<path d="M797.74 426.53L797.74 209.58"
fill="none" stroke="black" stroke-width="0.5"/>
<path d="M85.32 444.61L280.79 444.61"
fill="none" stroke="black" stroke-width="0.5"/>
<path d="M291.53 209.58L291.53 433.81"
fill="none" stroke="black" stroke-width="0.5"/>
<path d="M714.68 444.61L716.7 444.25M716.7 444.25L718.63 443.56M718.63 443.56L720.41 442.53M720.41 442.53L721.98 441.22M721.98 441.22L723.3 439.66M723.3 439.66L724.33 437.88M724.33 437.88L725.04 435.96M725.04 435.96L725.41 433.95M725.41 433.95L725.42 431.9"
fill="none" stroke="black" stroke-width="0.5"/>
<path d="M725.42 431.9L725.88 433.59M725.88 433.59L726.66 435.17M726.66 435.17L727.71 436.57M727.71 436.57L729.02 437.75M729.02 437.75L730.52 438.66M730.52 438.66L732.17 439.27"
fill="none" stroke="black" stroke-width="0.5"/>
<path d="M732.17 439.27L779.66 444.61"
fill="none" stroke="black" stroke-width="0.5"/>
<path d="M779.66 444.61L782.23 444.43M782.23 444.43L784.75 443.88M784.75 443.88L787.17 442.98M787.17 442.98L789.43 441.74M789.43 441.74L791.5 440.19M791.5 440.19L793.32 438.37M793.32 438.37L794.87 436.3M794.87 436.3L796.1 434.04M796.1 434.04L797 431.62M797 431.62L797.55 429.1M797.55 429.1L797.74 426.53"
fill="none" stroke="black" stroke-width="0.5"/>
<path d="M37.47 158.79L35.41 159.42M35.41 159.42L33.49 160.38M33.49 160.38L31.76 161.65M31.76 161.65L30.26 163.19M30.26 163.19L29.03 164.95M29.03 164.95L28.12 166.9M28.12 166.9L27.54 168.97M27.54 168.97L27.31 171.1M27.31 171.1L27.44 173.25M27.44 173.25L27.93 175.34M27.93 175.34L28.76 177.32M28.76 177.32L29.9 179.14M29.9 179.14L31.33 180.74M31.33 180.74L33.01 182.08"
fill="none" stroke="black" stroke-width="0.5"/>
<path d="M766.99 182.08L768.67 180.74M768.67 180.74L770.1 179.14M770.1 179.14L771.24 177.32M771.24 177.32L772.07 175.34M772.07 175.34L772.56 173.25M772.56 173.25L772.69 171.1M772.69 171.1L772.46 168.97M772.46 168.97L771.88 166.9M771.88 166.9L770.97 164.95M770.97 164.95L769.74 163.19M769.74 163.19L768.24 161.65M768.24 161.65L766.51 160.38M766.51 160.38L764.59 159.42M764.59 159.42L762.53 158.79"
fill="none" stroke="black" stroke-width="0.5"/>
<path d="M37.47 158.79L35.41 159.42M35.41 159.42L33.49 160.38M33.49 160.38L31.76 161.65M31.76 161.65L30.26 163.19M30.26 163.19L29.03 164.95M29.03 164.95L28.12 166.9M28.12 166.9L27.54 168.97M27.54 168.97L27.31 171.1M27.31 171.1L27.44 173.25M27.44 173.25L27.93 175.34M27.93 175.34L28.76 177.32M28.76 177.32L29.9 179.14M29.9 179.14L31.33 180.74M31.33 180.74L33.01 182.08"
fill="none" stroke="black" stroke-width="0.5"/>
<path d="M56.5 155.35L52.45 155.5M52.45 155.5L48.42 155.95M48.42 155.95L44.44 156.7M44.44 156.7L40.53 157.75M40.53 157.75L36.7 159.09M36.7 159.09L32.99 160.71"
fill="none" stroke="black" stroke-width="0.5"/>
<path d="M767.01 160.71L763.3 159.09M763.3 159.09L759.47 157.75M759.47 157.75L755.56 156.7M755.56 156.7L751.58 155.95M751.58 155.95L747.55 155.5M747.55 155.5L743.5 155.35"
fill="none" stroke="black" stroke-width="0.5"/>
<path d="M766.99 182.08L768.67 180.74M768.67 180.74L770.1 179.14M770.1 179.14L771.24 177.32M771.24 177.32L772.07 175.34M772.07 175.34L772.56 173.25M772.56 173.25L772.69 171.1M772.69 171.1L772.46 168.97M772.46 168.97L771.88 166.9M771.88 166.9L770.97 164.95M770.97 164.95L769.74 163.19M769.74 163.19L768.24 161.65M768.24 161.65L766.51 160.38M766.51 160.38L764.59 159.42M764.59 159.42L762.53 158.79"
fill="none" stroke="black" stroke-width="0.5"/>
<path d="M743.5 155.35L56.5 155.35"
fill="none" stroke="black" stroke-width="0.5"/>
<path d="M291.53 236.7L510.43 236.7"
fill="none" stroke="black" stroke-width="0.5"/>
<path d="M316.84 209.58L313.6 210M313.6 210L310.44 210.81M310.44 210.81L307.39 211.99M307.39 211.99L304.51 213.52M304.51 213.52L301.84 215.39M301.84 215.39L299.4 217.57M299.4 217.57L297.25 220.02M297.25 220.02L295.4 222.71M295.4 222.71L293.89 225.6M293.89 225.6L292.74 228.66M292.74 228.66L291.97 231.83M291.97 231.83L291.58 235.07M291.58 235.07L291.58 238.33M291.58 238.33L291.97 241.57M291.97 241.57L292.74 244.74M292.74 244.74L293.89 247.8M293.89 247.8L295.4 250.69M295.4 250.69L297.25 253.39M297.25 253.39L299.4 255.84M299.4 255.84L301.84 258.01M301.84 258.01L304.51 259.88M304.51 259.88L307.39 261.42M307.39 261.42L310.44 262.6M310.44 262.6L313.6 263.4M313.6 263.4L316.84 263.82"
fill="none" stroke="black" stroke-width="0.5"/>
<path d="M316.84 263.82L485.12 263.82"
fill="none" stroke="black" stroke-width="0.5"/>
<path d="M291.53 431.9L291.54 433.95M291.54 433.95L291.9 435.96M291.9 435.96L292.61 437.88M292.61 437.88L293.64 439.66M293.64 439.66L294.97 441.22M294.97 441.22L296.54 442.53M296.54 442.53L298.32 443.56M298.32 443.56L300.24 444.25M300.24 444.25L302.26 444.61M302.26 444.61L304.31 444.61"
fill="none" stroke="black" stroke-width="0.5"/>
<path d="M497.74 444.61L302.26 444.61"
fill="none" stroke="black" stroke-width="0.5"/>
<path d="M291.53 209.58L291.53 433.81"
fill="none" stroke="black" stroke-width="0.5"/>
<path d="M485.12 263.82L488.35 263.4M488.35 263.4L491.52 262.6M491.52 262.6L494.56 261.42M494.56 261.42L497.44 259.88M497.44 259.88L500.12 258.01M500.12 258.01L502.55 255.84M502.55 255.84L504.7 253.39M504.7 253.39L506.55 250.69M506.55 250.69L508.06 247.8M508.06 247.8L509.21 244.74M509.21 244.74L509.99 241.57M509.99 241.57L510.38 238.33M510.38 238.33L510.38 235.07M510.38 235.07L509.99 231.83M509.99 231.83L509.21 228.66M509.21 228.66L508.06 225.6M508.06 225.6L506.55 222.71M506.55 222.71L504.7 220.02M504.7 220.02L502.55 217.57M502.55 217.57L500.12 215.39M500.12 215.39L497.44 213.52M497.44 213.52L494.56 211.99M494.56 211.99L491.52 210.81M491.52 210.81L488.35 210M488.35 210L485.12 209.58"
fill="none" stroke="black" stroke-width="0.5"/>
<path d="M497.74 444.61L499.79 444.61M499.79 444.61L501.81 444.25M501.81 444.25L503.73 443.56M503.73 443.56L505.51 442.53M505.51 442.53L507.08 441.22M507.08 441.22L508.4 439.66M508.4 439.66L509.44 437.88M509.44 437.88L510.15 435.96M510.15 435.96L510.51 433.95M510.51 433.95L510.52 431.9"
fill="none" stroke="black" stroke-width="0.5"/>
<path d="M510.52 431.9L510.54 433.95M510.54 433.95L510.9 435.96M510.9 435.96L511.61 437.88M511.61 437.88L512.64 439.66M512.64 439.66L513.96 441.22M513.96 441.22L515.54 442.53M515.54 442.53L517.31 443.56M517.31 443.56L519.24 444.25M519.24 444.25L521.26 444.61M521.26 444.61L523.31 444.61"
fill="none" stroke="black" stroke-width="0.5"/>
<path d="M510.52 209.58L510.52 433.81"
fill="none" stroke="black" stroke-width="0.5"/>
<path d="M712.63 444.61L523.31 444.61"
fill="none" stroke="black" stroke-width="0.5"/>
<path d="M536.28 209.58L533.04 210M533.04 210L529.88 210.81M529.88 210.81L526.84 211.99M526.84 211.99L523.96 213.52M523.96 213.52L521.28 215.39M521.28 215.39L518.85 217.57M518.85 217.57L516.69 220.02M516.69 220.02L514.85 222.71M514.85 222.71L513.34 225.6M513.34 225.6L512.19 228.66M512.19 228.66L511.41 231.83M511.41 231.83L511.02 235.07M511.02 235.07L511.02 238.33M511.02 238.33L511.41 241.57M511.41 241.57L512.19 244.74M512.19 244.74L513.34 247.8M513.34 247.8L514.85 250.69M514.85 250.69L516.69 253.39M516.69 253.39L518.85 255.84M518.85 255.84L521.28 258.01M521.28 258.01L523.96 259.88M523.96 259.88L526.84 261.42M526.84 261.42L529.88 262.6M529.88 262.6L533.04 263.4M533.04 263.4L536.28 263.82"
fill="none" stroke="black" stroke-width="0.5"/>
<path d="M510.97 236.7L716.67 236.7"
fill="none" stroke="black" stroke-width="0.5"/>
</svg>
