<?xml version="1.0" encoding="UTF-8"?>
<svg xmlns="http://www.w3.org/2000/svg" width="800.000" height="600.000" viewBox="0.0 0.0 800.000 600.000" version="1.1">
  <title>Produce by Acme CAD Converter</title>
  <desc>Produce by Acme CAD Converter</desc>
<path d="M55.49 420.15L55.49 241.99"
fill="none" stroke="black" stroke-width="0.5"/>
<path d="M40.65 420.15L40.65 241.99"
fill="none" stroke="black" stroke-width="0.5"/>
<path d="M10.96 405.3L10.96 239.8"
fill="none" stroke="black" stroke-width="0.5"/>
<path d="M233.65 256.84L233.65 405.3"
fill="none" stroke="black" stroke-width="0.5"/>
<path d="M25.8 420.15L23.48 420.33M23.48 420.33L21.21 420.87M21.21 420.87L19.06 421.76M19.06 421.76L17.08 422.98M17.08 422.98L15.3 424.5M15.3 424.5L13.79 426.27M13.79 426.27L12.57 428.25M12.57 428.25L11.68 430.41M11.68 430.41L11.14 432.67M11.14 432.67L10.96 434.99"
fill="none" stroke="black" stroke-width="0.5"/>
<path d="M10.96 405.3L11.14 407.62M11.14 407.62L11.68 409.89M11.68 409.89L12.57 412.04M12.57 412.04L13.79 414.03M13.79 414.03L15.3 415.8M15.3 415.8L17.08 417.31M17.08 417.31L19.06 418.53M19.06 418.53L21.21 419.42M21.21 419.42L23.48 419.96M23.48 419.96L25.8 420.15"
fill="none" stroke="black" stroke-width="0.5"/>
<path d="M25.8 420.15L55.49 420.15"
fill="none" stroke="black" stroke-width="0.5"/>
<path d="M25.8 420.15L55.49 420.15"
fill="none" stroke="black" stroke-width="0.5"/>
<path d="M233.65 434.99L233.47 432.67M233.47 432.67L232.92 430.41M232.92 430.41L232.03 428.25M232.03 428.25L230.81 426.27M230.81 426.27L229.3 424.5M229.3 424.5L227.53 422.98M227.53 422.98L225.54 421.76M225.54 421.76L223.39 420.87M223.39 420.87L221.13 420.33M221.13 420.33L218.8 420.15"
fill="none" stroke="black" stroke-width="0.5"/>
<path d="M218.8 420.15L221.13 419.96M221.13 419.96L223.39 419.42M223.39 419.42L225.54 418.53M225.54 418.53L227.53 417.31M227.53 417.31L229.3 415.8M229.3 415.8L230.81 414.03M230.81 414.03L232.03 412.04M232.03 412.04L232.92 409.89M232.92 409.89L233.47 407.62M233.47 407.62L233.65 405.3"
fill="none" stroke="black" stroke-width="0.5"/>
<path d="M218.8 420.15L55.49 420.15"
fill="none" stroke="black" stroke-width="0.5"/>
<path d="M55.49 420.15L218.8 420.15"
fill="none" stroke="black" stroke-width="0.5"/>
<path d="M25.8 598.3L55.49 598.3"
fill="none" stroke="black" stroke-width="0.5"/>
<path d="M25.8 598.3L55.49 598.3"
fill="none" stroke="black" stroke-width="0.5"/>
<path d="M10.96 583.46L11.14 585.78M11.14 585.78L11.68 588.04M11.68 588.04L12.57 590.2M12.57 590.2L13.79 592.18M13.79 592.18L15.3 593.95M15.3 593.95L17.08 595.47M17.08 595.47L19.06 596.68M19.06 596.68L21.21 597.58M21.21 597.58L23.48 598.12M23.48 598.12L25.8 598.3"
fill="none" stroke="black" stroke-width="0.5"/>
<path d="M218.8 598.3L221.13 598.12M221.13 598.12L223.39 597.58M223.39 597.58L225.54 596.68M225.54 596.68L227.53 595.47M227.53 595.47L229.3 593.95M229.3 593.95L230.81 592.18M230.81 592.18L232.03 590.2M232.03 590.2L232.92 588.04M232.92 588.04L233.47 585.78M233.47 585.78L233.65 583.46"
fill="none" stroke="black" stroke-width="0.5"/>
<path d="M55.49 598.3L218.8 598.3"
fill="none" stroke="black" stroke-width="0.5"/>
<path d="M233.65 434.99L233.65 583.46"
fill="none" stroke="black" stroke-width="0.5"/>
<path d="M55.49 598.3L55.49 420.15"
fill="none" stroke="black" stroke-width="0.5"/>
<path d="M40.65 598.3L40.65 420.15"
fill="none" stroke="black" stroke-width="0.5"/>
<path d="M10.96 583.46L10.96 434.99"
fill="none" stroke="black" stroke-width="0.5"/>
<path d="M774.2 224.43L625.74 224.43"
fill="none" stroke="black" stroke-width="0.5"/>
<path d="M610.89 46.28L789.05 46.28"
fill="none" stroke="black" stroke-width="0.5"/>
<path d="M610.89 31.43L789.05 31.43"
fill="none" stroke="black" stroke-width="0.5"/>
<path d="M625.74 1.74L774.2 1.74"
fill="none" stroke="black" stroke-width="0.5"/>
<path d="M789.05 16.59L788.86 14.26M788.86 14.26L788.32 12M788.32 12L787.43 9.85M787.43 9.85L786.21 7.86M786.21 7.86L784.7 6.09M784.7 6.09L782.93 4.57M782.93 4.57L780.94 3.36M780.94 3.36L778.79 2.47M778.79 2.47L776.52 1.92M776.52 1.92L774.2 1.74"
fill="none" stroke="black" stroke-width="0.5"/>
<path d="M789.05 46.28L789.05 209.59"
fill="none" stroke="black" stroke-width="0.5"/>
<path d="M774.2 224.43L776.52 224.25M776.52 224.25L778.79 223.71M778.79 223.71L780.94 222.82M780.94 222.82L782.93 221.6M782.93 221.6L784.7 220.08M784.7 220.08L786.21 218.31M786.21 218.31L787.43 216.33M787.43 216.33L788.32 214.17M788.32 214.17L788.86 211.91M788.86 211.91L789.05 209.59"
fill="none" stroke="black" stroke-width="0.5"/>
<path d="M789.05 16.59L789.05 46.28"
fill="none" stroke="black" stroke-width="0.5"/>
<path d="M789.05 16.59L789.05 46.28"
fill="none" stroke="black" stroke-width="0.5"/>
<path d="M432.74 16.59L432.55 14.26M432.55 14.26L432.01 12M432.01 12L431.12 9.85M431.12 9.85L429.9 7.86M429.9 7.86L428.39 6.09M428.39 6.09L426.62 4.57M426.62 4.57L424.63 3.36M424.63 3.36L422.48 2.47M422.48 2.47L420.21 1.92M420.21 1.92L417.89 1.74"
fill="none" stroke="black" stroke-width="0.5"/>
<path d="M245.72 1.74L417.89 1.74"
fill="none" stroke="black" stroke-width="0.5"/>
<path d="M625.74 1.74L623.41 1.92M623.41 1.92L621.15 2.47M621.15 2.47L619 3.36M619 3.36L617.01 4.57M617.01 4.57L615.24 6.09M615.24 6.09L613.73 7.86M613.73 7.86L612.51 9.85M612.51 9.85L611.62 12M611.62 12L611.07 14.26M611.07 14.26L610.89 16.59"
fill="none" stroke="black" stroke-width="0.5"/>
<path d="M610.89 16.59L610.71 14.26M610.71 14.26L610.16 12M610.16 12L609.27 9.85M609.27 9.85L608.06 7.86M608.06 7.86L606.54 6.09M606.54 6.09L604.77 4.57M604.77 4.57L602.78 3.36M602.78 3.36L600.63 2.47M600.63 2.47L598.37 1.92M598.37 1.92L596.04 1.74"
fill="none" stroke="black" stroke-width="0.5"/>
<path d="M447.58 1.74L596.04 1.74"
fill="none" stroke="black" stroke-width="0.5"/>
<path d="M447.58 1.74L445.26 1.92M445.26 1.92L442.99 2.47M442.99 2.47L440.84 3.36M440.84 3.36L438.86 4.57M438.86 4.57L437.08 6.09M437.08 6.09L435.57 7.86M435.57 7.86L434.35 9.85M434.35 9.85L433.46 12M433.46 12L432.92 14.26M432.92 14.26L432.74 16.59"
fill="none" stroke="black" stroke-width="0.5"/>
<path d="M52.77 242.01L67.62 242.01"
fill="none" stroke="black" stroke-width="0.5"/>
<path d="M254.58 31.43L254.58 46.28"
fill="none" stroke="black" stroke-width="0.5"/>
<path d="M254.58 31.43L432.74 31.43"
fill="none" stroke="black" stroke-width="0.5"/>
<path d="M254.58 46.28L432.74 46.28"
fill="none" stroke="black" stroke-width="0.5"/>
<path d="M432.74 209.59L432.74 46.28"
fill="none" stroke="black" stroke-width="0.5"/>
<path d="M432.74 46.28L432.74 209.59"
fill="none" stroke="black" stroke-width="0.5"/>
<path d="M610.89 209.59L610.89 46.28"
fill="none" stroke="black" stroke-width="0.5"/>
<path d="M610.89 46.28L610.89 209.59"
fill="none" stroke="black" stroke-width="0.5"/>
<path d="M432.74 46.28L610.89 46.28"
fill="none" stroke="black" stroke-width="0.5"/>
<path d="M432.74 31.43L610.89 31.43"
fill="none" stroke="black" stroke-width="0.5"/>
<path d="M233.65 256.84L233.47 254.52M233.47 254.52L232.92 252.25M232.92 252.25L232.03 250.1M232.03 250.1L230.81 248.11M230.81 248.11L229.3 246.34M229.3 246.34L227.53 244.83M227.53 244.83L225.54 243.61M225.54 243.61L223.39 242.72M223.39 242.72L221.13 242.17M221.13 242.17L218.8 241.99"
fill="none" stroke="black" stroke-width="0.5"/>
<path d="M417.89 224.43L269.43 224.43"
fill="none" stroke="black" stroke-width="0.5"/>
<path d="M596.04 224.43L447.58 224.43"
fill="none" stroke="black" stroke-width="0.5"/>
<path d="M254.58 209.59L254.76 211.91M254.76 211.91L255.31 214.17M255.31 214.17L256.2 216.33M256.2 216.33L257.42 218.31M257.42 218.31L258.93 220.08M258.93 220.08L260.7 221.6M260.7 221.6L262.69 222.82M262.69 222.82L264.84 223.71M264.84 223.71L267.1 224.25M267.1 224.25L269.43 224.43"
fill="none" stroke="black" stroke-width="0.5"/>
<path d="M432.74 209.59L432.92 211.91M432.92 211.91L433.46 214.17M433.46 214.17L434.35 216.33M434.35 216.33L435.57 218.31M435.57 218.31L437.08 220.08M437.08 220.08L438.86 221.6M438.86 221.6L440.84 222.82M440.84 222.82L442.99 223.71M442.99 223.71L445.26 224.25M445.26 224.25L447.58 224.43"
fill="none" stroke="black" stroke-width="0.5"/>
<path d="M417.89 224.43L420.21 224.25M420.21 224.25L422.48 223.71M422.48 223.71L424.63 222.82M424.63 222.82L426.62 221.6M426.62 221.6L428.39 220.08M428.39 220.08L429.9 218.31M429.9 218.31L431.12 216.33M431.12 216.33L432.01 214.17M432.01 214.17L432.55 211.91M432.55 211.91L432.74 209.59"
fill="none" stroke="black" stroke-width="0.5"/>
<path d="M223.42 242.73L226.61 243.21M226.61 243.21L229.84 243.31M229.84 243.31L233.06 243.03M233.06 243.03L236.22 242.36M236.22 242.36L239.28 241.31M239.28 241.31L242.19 239.91M242.19 239.91L244.91 238.17M244.91 238.17L247.4 236.11M247.4 236.11L249.63 233.77M249.63 233.77L251.57 231.18M251.57 231.18L253.18 228.38M253.18 228.38L254.44 225.41M254.44 225.41L255.33 222.3M255.33 222.3L255.85 219.11M255.85 219.11L255.98 215.88"
fill="none" stroke="black" stroke-width="0.5"/>
<path d="M610.89 209.59L611.07 211.91M611.07 211.91L611.62 214.17M611.62 214.17L612.51 216.33M612.51 216.33L613.73 218.31M613.73 218.31L615.24 220.08M615.24 220.08L617.01 221.6M617.01 221.6L619 222.82M619 222.82L621.15 223.71M621.15 223.71L623.41 224.25M623.41 224.25L625.74 224.43"
fill="none" stroke="black" stroke-width="0.5"/>
<path d="M596.04 224.43L598.37 224.25M598.37 224.25L600.63 223.71M600.63 223.71L602.78 222.82M602.78 222.82L604.77 221.6M604.77 221.6L606.54 220.08M606.54 220.08L608.06 218.31M608.06 218.31L609.27 216.33M609.27 216.33L610.16 214.17M610.16 214.17L610.71 211.91M610.71 211.91L610.89 209.59"
fill="none" stroke="black" stroke-width="0.5"/>
<path d="M10.96 241.99L220.08 241.99"
fill="none" stroke="black" stroke-width="0.5"/>
<path d="M432.74 16.59L432.74 46.28"
fill="none" stroke="black" stroke-width="0.5"/>
<path d="M432.74 16.59L432.74 46.28"
fill="none" stroke="black" stroke-width="0.5"/>
<path d="M254.58 211.22L254.58 1.74"
fill="none" stroke="black" stroke-width="0.5"/>
<path d="M610.89 16.59L610.89 46.28"
fill="none" stroke="black" stroke-width="0.5"/>
<path d="M610.89 16.59L610.89 46.28"
fill="none" stroke="black" stroke-width="0.5"/>
<path d="M254.58 1.74L244.8 1.76M244.8 1.76L235.04 2.18M235.04 2.18L225.3 2.99M225.3 2.99L215.6 4.21M215.6 4.21L205.96 5.82M205.96 5.82L196.39 7.82M196.39 7.82L186.91 10.21M186.91 10.21L177.54 12.99M177.54 12.99L168.29 16.14M168.29 16.14L159.17 19.67M159.17 19.67L150.21 23.58M150.21 23.58L141.41 27.84M141.41 27.84L132.8 32.46M132.8 32.46L124.38 37.43M124.38 37.43L116.17 42.74M116.17 42.74L108.19 48.38M108.19 48.38L100.44 54.34M100.44 54.34L92.94 60.61M92.94 60.61L85.71 67.19M85.71 67.19L78.75 74.05M78.75 74.05L72.08 81.19M72.08 81.19L65.7 88.6M65.7 88.6L59.63 96.26M59.63 96.26L53.88 104.17M53.88 104.17L48.46 112.3M48.46 112.3L43.37 120.65M43.37 120.65L38.63 129.2M38.63 129.2L34.25 137.94M34.25 137.94L30.22 146.84M30.22 146.84L26.56 155.91M26.56 155.91L23.27 165.11M23.27 165.11L20.37 174.45M20.37 174.45L17.84 183.89M17.84 183.89L15.71 193.43M15.71 193.43L13.97 203.05M13.97 203.05L12.62 212.73M12.62 212.73L11.66 222.46M11.66 222.46L11.11 232.22M11.11 232.22L10.96 241.99"
fill="none" stroke="black" stroke-width="0.5"/>
<path d="M254.03 31.43L245.01 31.45M245.01 31.45L235.99 31.87M235.99 31.87L227 32.67M227 32.67L218.06 33.86M218.06 33.86L209.17 35.44M209.17 35.44L200.36 37.39M200.36 37.39L191.64 39.73M191.64 39.73L183.03 42.43M183.03 42.43L174.55 45.51M174.55 45.51L166.2 48.94M166.2 48.94L158.02 52.74M158.02 52.74L150 56.88M150 56.88L142.17 61.36M142.17 61.36L134.54 66.18M134.54 66.18L127.12 71.32M127.12 71.32L119.93 76.78M119.93 76.78L112.98 82.54M112.98 82.54L106.29 88.59M106.29 88.59L99.87 94.93M99.87 94.93L93.72 101.53M93.72 101.53L87.86 108.4M87.86 108.4L82.31 115.51M82.31 115.51L77.06 122.86M77.06 122.86L72.14 130.42M72.14 130.42L67.55 138.19M67.55 138.19L63.29 146.15M63.29 146.15L59.39 154.28M59.39 154.28L55.83 162.58M55.83 162.58L52.64 171.02M52.64 171.02L49.82 179.59M49.82 179.59L47.36 188.27M47.36 188.27L45.28 197.06M45.28 197.06L43.59 205.92M43.59 205.92L42.27 214.85M42.27 214.85L41.34 223.82M41.34 223.82L40.8 232.83M40.8 232.83L40.65 241.85"
fill="none" stroke="black" stroke-width="0.5"/>
<path d="M253.75 46.27L245.14 46.3M245.14 46.3L236.53 46.71M236.53 46.71L227.95 47.51M227.95 47.51L219.41 48.68M219.41 48.68L210.93 50.23M210.93 50.23L202.53 52.15M202.53 52.15L194.23 54.44M194.23 54.44L186.03 57.1M186.03 57.1L177.96 60.12M177.96 60.12L170.02 63.49M170.02 63.49L162.25 67.21M162.25 67.21L154.65 71.27M154.65 71.27L147.24 75.67M147.24 75.67L140.02 80.38M140.02 80.38L133.03 85.41M133.03 85.41L126.26 90.75M126.26 90.75L119.74 96.38M119.74 96.38L113.47 102.29M113.47 102.29L107.47 108.48M107.47 108.48L101.75 114.92M101.75 114.92L96.32 121.62M96.32 121.62L91.19 128.54M91.19 128.54L86.37 135.69M86.37 135.69L81.88 143.04M81.88 143.04L77.71 150.58M77.71 150.58L73.88 158.3M73.88 158.3L70.4 166.19M70.4 166.19L67.27 174.22M67.27 174.22L64.5 182.38M64.5 182.38L62.09 190.65M62.09 190.65L60.05 199.02M60.05 199.02L58.38 207.48M58.38 207.48L57.09 216M57.09 216L56.18 224.57M56.18 224.57L55.65 233.17M55.65 233.17L55.49 241.79"
fill="none" stroke="black" stroke-width="0.5"/>
</svg>
