<?xml version="1.0" encoding="UTF-8"?>
<svg xmlns="http://www.w3.org/2000/svg" width="800.000" height="600.000" viewBox="0.0 0.0 800.000 600.000" version="1.1">
  <title>Produce by Acme CAD Converter</title>
  <desc>Produce by Acme CAD Converter</desc>
<path d="M24.51 1.71L775.5 1.71"
fill="none" stroke="black" stroke-width="0.5"/>
<path d="M24.5 1.7L24.5 598.3"
fill="none" stroke="black" stroke-width="0.5"/>
<path d="M24.5 598.3L273.52 598.3"
fill="none" stroke="black" stroke-width="0.5"/>
<path d="M775.5 1.71L775.5 250.72"
fill="none" stroke="black" stroke-width="0.5"/>
<path d="M50.44 250.72L266.02 250.72"
fill="none" stroke="black" stroke-width="0.5"/>
<path d="M273.52 27.64L273.52 243.54"
fill="none" stroke="black" stroke-width="0.5"/>
<path d="M50.44 27.64L50.44 559.39"
fill="none" stroke="black" stroke-width="0.5"/>
<path d="M50.45 27.64L736.59 27.64"
fill="none" stroke="black" stroke-width="0.5"/>
<path d="M24.5 1.7L50.44 27.64"
fill="none" stroke="black" stroke-width="0.5"/>
<path d="M50.44 559.39L273.52 559.39"
fill="none" stroke="black" stroke-width="0.5"/>
<path d="M736.59 27.64L736.59 73.86"
fill="none" stroke="black" stroke-width="0.5"/>
<path d="M736.59 27.64L775.5 1.71"
fill="none" stroke="black" stroke-width="0.5"/>
<path d="M50.44 559.39L24.5 598.3"
fill="none" stroke="black" stroke-width="0.5"/>
<path d="M582.25 27.64L582.25 63.07"
fill="none" stroke="black" stroke-width="0.5"/>
<path d="M50.44 405.05L98.67 405.05"
fill="none" stroke="black" stroke-width="0.5"/>
<path d="M102.32 79.52L102.32 391.15"
fill="none" stroke="black" stroke-width="0.5"/>
<path d="M102.32 79.52L544.95 79.52"
fill="none" stroke="black" stroke-width="0.5"/>
<path d="M50.44 27.64L102.32 79.52"
fill="none" stroke="black" stroke-width="0.5"/>
<path d="M268.33 559.39L270.05 545.43M270.05 545.43L271.42 531.42M271.42 531.42L272.45 517.38M272.45 517.38L273.14 503.33M273.14 503.33L273.49 489.26M273.49 489.26L273.49 475.19M273.49 475.19L273.14 461.12M273.14 461.12L272.45 447.06M272.45 447.06L271.42 433.03M271.42 433.03L270.05 419.02M270.05 419.02L268.33 405.05"
fill="none" stroke="black" stroke-width="0.5"/>
<path d="M268.33 405.05L270.05 391.08M270.05 391.08L271.42 377.08M271.42 377.08L272.45 363.04M272.45 363.04L273.14 348.98M273.14 348.98L273.49 334.91M273.49 334.91L273.49 320.83M273.49 320.83L273.14 306.76M273.14 306.76L272.45 292.7M272.45 292.7L271.42 278.67M271.42 278.67L270.04 264.66M270.04 264.66L268.33 250.69"
fill="none" stroke="black" stroke-width="0.5"/>
<path d="M427.86 245.52L441.83 247.23M441.83 247.23L455.84 248.61M455.84 248.61L469.88 249.65M469.88 249.65L483.94 250.33M483.94 250.33L498.01 250.68M498.01 250.68L512.09 250.68M512.09 250.68L526.17 250.34M526.17 250.34L540.23 249.65M540.23 249.65L554.27 248.62M554.27 248.62L568.28 247.24M568.28 247.24L582.25 245.52"
fill="none" stroke="black" stroke-width="0.5"/>
<path d="M266.02 250.72L267.52 250.79M267.52 250.79L269 250.52M269 250.52L270.37 249.92M270.37 249.92L271.57 249.01M271.57 249.01L272.53 247.85M272.53 247.85L273.19 246.51M273.19 246.51L273.53 245.04M273.53 245.04L273.52 243.54"
fill="none" stroke="black" stroke-width="0.5"/>
<path d="M582.25 245.52L596.23 247.24M596.23 247.24L610.24 248.62M610.24 248.62L624.28 249.65M624.28 249.65L638.34 250.34M638.34 250.34L652.41 250.68M652.41 250.68L666.49 250.68M666.49 250.68L680.56 250.33M680.56 250.33L694.63 249.65M694.63 249.65L708.67 248.61M708.67 248.61L722.68 247.23M722.68 247.23L736.65 245.52"
fill="none" stroke="black" stroke-width="0.5"/>
<path d="M736.59 250.72L775.5 250.72"
fill="none" stroke="black" stroke-width="0.5"/>
<path d="M273.52 559.39L273.52 598.3"
fill="none" stroke="black" stroke-width="0.5"/>
<path d="M654.03 54.61L666.29 58.41M666.29 58.41L678.64 61.9M678.64 61.9L691.08 65.08M691.08 65.08L703.59 67.93M703.59 67.93L716.17 70.46M716.17 70.46L728.82 72.67M728.82 72.67L741.51 74.56"
fill="none" stroke="black" stroke-width="0.5"/>
<path d="M627.22 147.19L630.75 138.84M630.75 138.84L633.95 130.36M633.95 130.36L636.81 121.76M636.81 121.76L639.34 113.06M639.34 113.06L641.53 104.27M641.53 104.27L643.37 95.39M643.37 95.39L644.86 86.46M644.86 86.46L646.01 77.47M646.01 77.47L646.8 68.44M646.8 68.44L647.25 59.39"
fill="none" stroke="black" stroke-width="0.5"/>
<path d="M745.56 81.81L742.03 90.16M742.03 90.16L738.83 98.63M738.83 98.63L735.97 107.23M735.97 107.23L733.44 115.93M733.44 115.93L731.25 124.73M731.25 124.73L729.41 133.6M729.41 133.6L727.91 142.54M727.91 142.54L726.77 151.53M726.77 151.53L725.97 160.55M725.97 160.55L725.53 169.61"
fill="none" stroke="black" stroke-width="0.5"/>
<path d="M718.75 174.39L706.49 170.58M706.49 170.58L694.14 167.09M694.14 167.09L681.7 163.92M681.7 163.92L669.19 161.06M669.19 161.06L656.6 158.53M656.6 158.53L643.96 156.32M643.96 156.32L631.27 154.44"
fill="none" stroke="black" stroke-width="0.5"/>
<path d="M627.22 147.19L626.83 148.5M626.83 148.5L626.81 149.87M626.81 149.87L627.14 151.2M627.14 151.2L627.8 152.4M627.8 152.4L628.76 153.38M628.76 153.38L629.94 154.08M629.94 154.08L631.27 154.44"
fill="none" stroke="black" stroke-width="0.5"/>
<path d="M654.03 54.61L652.68 54.36M652.68 54.36L651.32 54.47M651.32 54.47L650.03 54.94M650.03 54.94L648.91 55.73M648.91 55.73L648.03 56.79M648.03 56.79L647.47 58.03M647.47 58.03L647.25 59.39"
fill="none" stroke="black" stroke-width="0.5"/>
<path d="M745.56 81.81L745.94 80.49M745.94 80.49L745.97 79.12M745.97 79.12L745.64 77.79M745.64 77.79L744.98 76.59M744.98 76.59L744.02 75.61M744.02 75.61L742.84 74.92M742.84 74.92L741.51 74.56"
fill="none" stroke="black" stroke-width="0.5"/>
<path d="M718.75 174.39L720.09 174.64M720.09 174.64L721.46 174.52M721.46 174.52L722.75 174.05M722.75 174.05L723.87 173.26M723.87 173.26L724.75 172.21M724.75 172.21L725.31 170.96M725.31 170.96L725.53 169.61"
fill="none" stroke="black" stroke-width="0.5"/>
<path d="M657.99 60.18L656.64 59.93M656.64 59.93L655.27 60.04M655.27 60.04L653.98 60.51M653.98 60.51L652.86 61.3M652.86 61.3L651.99 62.36M651.99 62.36L651.42 63.61M651.42 63.61L651.2 64.96"
fill="none" stroke="black" stroke-width="0.5"/>
<path d="M739.58 85.12L739.97 83.8M739.97 83.8L739.99 82.43M739.99 82.43L739.66 81.1M739.66 81.1L739 79.9M739 79.9L738.04 78.92M738.04 78.92L736.86 78.22M736.86 78.22L735.53 77.86"
fill="none" stroke="black" stroke-width="0.5"/>
<path d="M633.2 143.88L632.81 145.19M632.81 145.19L632.78 146.56M632.78 146.56L633.11 147.89M633.11 147.89L633.78 149.09M633.78 149.09L634.74 150.07M634.74 150.07L635.92 150.77M635.92 150.77L637.24 151.13"
fill="none" stroke="black" stroke-width="0.5"/>
<path d="M714.79 168.82L716.14 169.06M716.14 169.06L717.51 168.95M717.51 168.95L718.8 168.48M718.8 168.48L719.92 167.69M719.92 167.69L720.79 166.63M720.79 166.63L721.36 165.39M721.36 165.39L721.58 164.03"
fill="none" stroke="black" stroke-width="0.5"/>
<path d="M713 77.81L707.22 75.79M707.22 75.79L701.35 74.06M701.35 74.06L695.4 72.64M695.4 72.64L689.38 71.52M689.38 71.52L683.31 70.71M683.31 70.71L677.21 70.21M677.21 70.21L671.09 70.03M671.09 70.03L664.97 70.15"
fill="none" stroke="black" stroke-width="0.5"/>
<path d="M671.14 156.46L675.62 157.92M675.62 157.92L680.2 159.04M680.2 159.04L684.85 159.82M684.85 159.82L689.54 160.24M689.54 160.24L694.26 160.32M694.26 160.32L698.96 160.05M698.96 160.05L703.64 159.43M703.64 159.43L708.25 158.47M708.25 158.47L712.78 157.16"
fill="none" stroke="black" stroke-width="0.5"/>
<path d="M681.9 112.35L680.06 111.36M680.06 111.36L678.09 110.69M678.09 110.69L676.03 110.35M676.03 110.35L673.95 110.35M673.95 110.35L671.9 110.69"
fill="none" stroke="black" stroke-width="0.5"/>
<path d="M695.76 109.93L694.1 109.37M694.1 109.37L692.36 109.15M692.36 109.15L690.62 109.3M690.62 109.3L688.94 109.79M688.94 109.79L687.4 110.62M687.4 110.62L686.05 111.74"
fill="none" stroke="black" stroke-width="0.5"/>
<path d="M689.95 125.51L690.89 124.2M690.89 124.2L691.48 122.69M691.48 122.69L691.7 121.09M691.7 121.09L691.52 119.48M691.52 119.48L690.97 117.96M690.97 117.96L690.06 116.62M690.06 116.62L688.86 115.54M688.86 115.54L687.43 114.78"
fill="none" stroke="black" stroke-width="0.5"/>
<path d="M681.37 115.48L679.64 116.6M679.64 116.6L678.13 118M678.13 118L676.88 119.64M676.88 119.64L675.92 121.47"
fill="none" stroke="black" stroke-width="0.5"/>
<path d="M681.16 114.37L681.35 113.29M681.35 113.29L681.9 112.34M681.9 112.34L682.74 111.64M682.74 111.64L683.77 111.27M683.77 111.27L684.86 111.27M684.86 111.27L685.89 111.64M685.89 111.64L686.72 112.34M686.72 112.34L687.27 113.29M687.27 113.29L687.46 114.37M687.46 114.37L687.27 115.44M687.27 115.44L686.72 116.39M686.72 116.39L685.89 117.09M685.89 117.09L684.86 117.47M684.86 117.47L683.77 117.47M683.77 117.47L682.74 117.09M682.74 117.09L681.9 116.39M681.9 116.39L681.35 115.44M681.35 115.44L681.16 114.37"
fill="none" stroke="black" stroke-width="0.5"/>
<path d="M553.2 54.61L565.46 58.41M565.46 58.41L577.81 61.9M577.81 61.9L590.25 65.08M590.25 65.08L602.76 67.93M602.76 67.93L615.34 70.46M615.34 70.46L627.99 72.67M627.99 72.67L640.68 74.56"
fill="none" stroke="black" stroke-width="0.5"/>
<path d="M526.39 147.19L529.92 138.84M529.92 138.84L533.12 130.36M533.12 130.36L535.98 121.76M535.98 121.76L538.51 113.06M538.51 113.06L540.7 104.27M540.7 104.27L542.54 95.39M542.54 95.39L544.03 86.46M544.03 86.46L545.18 77.47M545.18 77.47L545.97 68.44M545.97 68.44L546.42 59.39"
fill="none" stroke="black" stroke-width="0.5"/>
<path d="M644.73 81.81L641.2 90.16M641.2 90.16L638 98.63M638 98.63L635.14 107.23M635.14 107.23L632.61 115.93M632.61 115.93L630.42 124.73M630.42 124.73L628.58 133.6M628.58 133.6L627.08 142.54M627.08 142.54L625.94 151.53M625.94 151.53L625.14 160.55M625.14 160.55L624.7 169.61"
fill="none" stroke="black" stroke-width="0.5"/>
<path d="M617.92 174.39L605.66 170.58M605.66 170.58L593.31 167.09M593.31 167.09L580.87 163.92M580.87 163.92L568.36 161.06M568.36 161.06L555.77 158.53M555.77 158.53L543.13 156.32M543.13 156.32L530.44 154.44"
fill="none" stroke="black" stroke-width="0.5"/>
<path d="M526.39 147.19L526 148.5M526 148.5L525.97 149.87M525.97 149.87L526.31 151.2M526.31 151.2L526.97 152.4M526.97 152.4L527.93 153.38M527.93 153.38L529.11 154.08M529.11 154.08L530.44 154.44"
fill="none" stroke="black" stroke-width="0.5"/>
<path d="M553.2 54.61L551.85 54.36M551.85 54.36L550.49 54.47M550.49 54.47L549.2 54.94M549.2 54.94L548.08 55.73M548.08 55.73L547.2 56.79M547.2 56.79L546.64 58.03M546.64 58.03L546.42 59.39"
fill="none" stroke="black" stroke-width="0.5"/>
<path d="M644.73 81.81L645.11 80.49M645.11 80.49L645.14 79.12M645.14 79.12L644.81 77.79M644.81 77.79L644.15 76.59M644.15 76.59L643.19 75.61M643.19 75.61L642.01 74.92M642.01 74.92L640.68 74.56"
fill="none" stroke="black" stroke-width="0.5"/>
<path d="M617.92 174.39L619.26 174.64M619.26 174.64L620.63 174.52M620.63 174.52L621.92 174.05M621.92 174.05L623.04 173.26M623.04 173.26L623.91 172.21M623.91 172.21L624.48 170.96M624.48 170.96L624.7 169.61"
fill="none" stroke="black" stroke-width="0.5"/>
<path d="M557.16 60.18L555.81 59.93M555.81 59.93L554.44 60.04M554.44 60.04L553.15 60.51M553.15 60.51L552.03 61.3M552.03 61.3L551.16 62.36M551.16 62.36L550.59 63.61M550.59 63.61L550.37 64.96"
fill="none" stroke="black" stroke-width="0.5"/>
<path d="M638.75 85.12L639.13 83.8M639.13 83.8L639.16 82.43M639.16 82.43L638.83 81.1M638.83 81.1L638.17 79.9M638.17 79.9L637.21 78.92M637.21 78.92L636.03 78.22M636.03 78.22L634.7 77.86"
fill="none" stroke="black" stroke-width="0.5"/>
<path d="M532.37 143.88L531.98 145.19M531.98 145.19L531.95 146.56M531.95 146.56L532.28 147.89M532.28 147.89L532.95 149.09M532.95 149.09L533.91 150.07M533.91 150.07L535.09 150.77M535.09 150.77L536.41 151.13"
fill="none" stroke="black" stroke-width="0.5"/>
<path d="M613.96 168.82L615.31 169.06M615.31 169.06L616.68 168.95M616.68 168.95L617.97 168.48M617.97 168.48L619.09 167.69M619.09 167.69L619.96 166.63M619.96 166.63L620.53 165.39M620.53 165.39L620.75 164.03"
fill="none" stroke="black" stroke-width="0.5"/>
<path d="M612.17 77.81L606.39 75.79M606.39 75.79L600.52 74.06M600.52 74.06L594.57 72.64M594.57 72.64L588.55 71.52M588.55 71.52L582.48 70.71M582.48 70.71L576.38 70.21M576.38 70.21L570.26 70.03M570.26 70.03L564.14 70.15"
fill="none" stroke="black" stroke-width="0.5"/>
<path d="M570.31 156.46L574.79 157.92M574.79 157.92L579.37 159.04M579.37 159.04L584.02 159.82M584.02 159.82L588.71 160.24M588.71 160.24L593.43 160.32M593.43 160.32L598.13 160.05M598.13 160.05L602.81 159.43M602.81 159.43L607.42 158.47M607.42 158.47L611.95 157.16"
fill="none" stroke="black" stroke-width="0.5"/>
<path d="M581.07 112.35L579.23 111.36M579.23 111.36L577.26 110.69M577.26 110.69L575.2 110.35M575.2 110.35L573.12 110.35M573.12 110.35L571.07 110.69"
fill="none" stroke="black" stroke-width="0.5"/>
<path d="M594.93 109.93L593.27 109.37M593.27 109.37L591.53 109.15M591.53 109.15L589.79 109.3M589.79 109.3L588.11 109.79M588.11 109.79L586.57 110.62M586.57 110.62L585.22 111.74"
fill="none" stroke="black" stroke-width="0.5"/>
<path d="M589.12 125.51L590.06 124.2M590.06 124.2L590.65 122.69M590.65 122.69L590.87 121.09M590.87 121.09L590.69 119.48M590.69 119.48L590.13 117.96M590.13 117.96L589.23 116.62M589.23 116.62L588.03 115.54M588.03 115.54L586.6 114.78"
fill="none" stroke="black" stroke-width="0.5"/>
<path d="M580.54 115.48L578.81 116.6M578.81 116.6L577.3 118M577.3 118L576.05 119.64M576.05 119.64L575.09 121.47"
fill="none" stroke="black" stroke-width="0.5"/>
<path d="M580.33 114.37L580.52 113.29M580.52 113.29L581.07 112.34M581.07 112.34L581.91 111.64M581.91 111.64L582.94 111.27M582.94 111.27L584.03 111.27M584.03 111.27L585.06 111.64M585.06 111.64L585.89 112.34M585.89 112.34L586.44 113.29M586.44 113.29L586.63 114.37M586.63 114.37L586.44 115.44M586.44 115.44L585.89 116.39M585.89 116.39L585.06 117.09M585.06 117.09L584.03 117.47M584.03 117.47L582.94 117.47M582.94 117.47L581.91 117.09M581.91 117.09L581.07 116.39M581.07 116.39L580.52 115.44M580.52 115.44L580.33 114.37"
fill="none" stroke="black" stroke-width="0.5"/>
<path d="M212.24 461.81L208.44 474.07M208.44 474.07L204.94 486.42M204.94 486.42L201.77 498.85M201.77 498.85L198.92 511.37M198.92 511.37L196.38 523.95M196.38 523.95L194.18 536.59M194.18 536.59L192.29 549.29"
fill="none" stroke="black" stroke-width="0.5"/>
<path d="M119.66 435L128.01 438.52M128.01 438.52L136.49 441.72M136.49 441.72L145.09 444.59M145.09 444.59L153.79 447.12M153.79 447.12L162.58 449.3M162.58 449.3L171.45 451.14M171.45 451.14L180.39 452.64M180.39 452.64L189.38 453.78M189.38 453.78L198.41 454.58M198.41 454.58L207.46 455.02"
fill="none" stroke="black" stroke-width="0.5"/>
<path d="M185.04 553.33L176.69 549.8M176.69 549.8L168.21 546.61M168.21 546.61L159.62 543.74M159.62 543.74L150.91 541.21M150.91 541.21L142.12 539.03M142.12 539.03L133.25 537.18M133.25 537.18L124.31 535.69M124.31 535.69L115.32 534.54M115.32 534.54L106.29 533.75M106.29 533.75L97.24 533.31"
fill="none" stroke="black" stroke-width="0.5"/>
<path d="M92.46 526.52L96.26 514.26M96.26 514.26L99.76 501.91M99.76 501.91L102.93 489.48M102.93 489.48L105.78 476.96M105.78 476.96L108.32 464.38M108.32 464.38L110.52 451.74M110.52 451.74L112.41 439.04"
fill="none" stroke="black" stroke-width="0.5"/>
<path d="M119.66 435L118.35 434.61M118.35 434.61L116.98 434.58M116.98 434.58L115.65 434.91M115.65 434.91L114.45 435.58M114.45 435.58L113.47 436.54M113.47 436.54L112.77 437.72M112.77 437.72L112.41 439.04"
fill="none" stroke="black" stroke-width="0.5"/>
<path d="M212.24 461.81L212.49 460.46M212.49 460.46L212.37 459.09M212.37 459.09L211.91 457.8M211.91 457.8L211.12 456.68M211.12 456.68L210.06 455.81M210.06 455.81L208.81 455.24M208.81 455.24L207.46 455.02"
fill="none" stroke="black" stroke-width="0.5"/>
<path d="M185.04 553.33L186.35 553.72M186.35 553.72L187.72 553.75M187.72 553.75L189.06 553.42M189.06 553.42L190.25 552.75M190.25 552.75L191.23 551.79M191.23 551.79L191.93 550.61M191.93 550.61L192.29 549.29"
fill="none" stroke="black" stroke-width="0.5"/>
<path d="M92.46 526.52L92.21 527.87M92.21 527.87L92.33 529.24M92.33 529.24L92.79 530.52M92.79 530.52L93.58 531.64M93.58 531.64L94.64 532.52M94.64 532.52L95.89 533.09M95.89 533.09L97.24 533.31"
fill="none" stroke="black" stroke-width="0.5"/>
<path d="M206.67 465.76L206.92 464.41M206.92 464.41L206.8 463.05M206.8 463.05L206.33 461.76M206.33 461.76L205.54 460.64M205.54 460.64L204.49 459.76M204.49 459.76L203.24 459.19M203.24 459.19L201.89 458.97"
fill="none" stroke="black" stroke-width="0.5"/>
<path d="M181.73 547.35L183.05 547.74M183.05 547.74L184.42 547.77M184.42 547.77L185.75 547.44M185.75 547.44L186.95 546.77M186.95 546.77L187.93 545.81M187.93 545.81L188.62 544.63M188.62 544.63L188.98 543.31"
fill="none" stroke="black" stroke-width="0.5"/>
<path d="M122.97 440.98L121.65 440.59M121.65 440.59L120.28 440.56M120.28 440.56L118.95 440.89M118.95 440.89L117.75 441.56M117.75 441.56L116.77 442.51M116.77 442.51L116.08 443.7M116.08 443.7L115.72 445.02"
fill="none" stroke="black" stroke-width="0.5"/>
<path d="M98.03 522.57L97.78 523.92M97.78 523.92L97.9 525.28M97.9 525.28L98.37 526.57M98.37 526.57L99.16 527.69M99.16 527.69L100.21 528.57M100.21 528.57L101.46 529.13M101.46 529.13L102.81 529.35"
fill="none" stroke="black" stroke-width="0.5"/>
<path d="M189.04 520.78L191.06 515M191.06 515L192.79 509.13M192.79 509.13L194.21 503.17M194.21 503.17L195.33 497.15M195.33 497.15L196.14 491.09M196.14 491.09L196.63 484.99M196.63 484.99L196.82 478.87M196.82 478.87L196.69 472.75"
fill="none" stroke="black" stroke-width="0.5"/>
<path d="M110.39 478.91L108.93 483.4M108.93 483.4L107.81 487.98M107.81 487.98L107.03 492.63M107.03 492.63L106.6 497.32M106.6 497.32L106.52 502.03M106.52 502.03L106.79 506.74M106.79 506.74L107.41 511.41M107.41 511.41L108.38 516.02M108.38 516.02L109.68 520.55"
fill="none" stroke="black" stroke-width="0.5"/>
<path d="M154.5 489.67L155.48 487.84M155.48 487.84L156.15 485.86M156.15 485.86L156.49 483.81M156.49 483.81L156.5 481.73M156.5 481.73L156.16 479.67"
fill="none" stroke="black" stroke-width="0.5"/>
<path d="M156.92 503.53L157.48 501.87M157.48 501.87L157.69 500.14M157.69 500.14L157.55 498.39M157.55 498.39L157.05 496.71M157.05 496.71L156.23 495.17M156.23 495.17L155.1 493.83"
fill="none" stroke="black" stroke-width="0.5"/>
<path d="M141.33 497.72L142.65 498.66M142.65 498.66L144.16 499.26M144.16 499.26L145.76 499.47M145.76 499.47L147.37 499.3M147.37 499.3L148.88 498.74M148.88 498.74L150.22 497.83M150.22 497.83L151.31 496.63M151.31 496.63L152.07 495.21"
fill="none" stroke="black" stroke-width="0.5"/>
<path d="M151.37 489.14L150.25 487.41M150.25 487.41L148.85 485.9M148.85 485.9L147.21 484.65M147.21 484.65L145.38 483.7"
fill="none" stroke="black" stroke-width="0.5"/>
<path d="M149.33 492.09L149.52 491.01M149.52 491.01L150.07 490.06M150.07 490.06L150.91 489.36M150.91 489.36L151.93 488.99M151.93 488.99L153.03 488.99M153.03 488.99L154.06 489.36M154.06 489.36L154.89 490.06M154.89 490.06L155.44 491.01M155.44 491.01L155.63 492.09M155.63 492.09L155.44 493.16M155.44 493.16L154.89 494.11M154.89 494.11L154.06 494.81M154.06 494.81L153.03 495.19M153.03 495.19L151.93 495.19M151.93 495.19L150.91 494.81M150.91 494.81L150.07 494.11M150.07 494.11L149.52 493.16M149.52 493.16L149.33 492.09"
fill="none" stroke="black" stroke-width="0.5"/>
<path d="M212.24 360.98L208.44 373.23M208.44 373.23L204.94 385.59M204.94 385.59L201.77 398.02M201.77 398.02L198.92 410.54M198.92 410.54L196.38 423.12M196.38 423.12L194.18 435.76M194.18 435.76L192.29 448.46"
fill="none" stroke="black" stroke-width="0.5"/>
<path d="M119.66 334.17L128.01 337.69M128.01 337.69L136.49 340.89M136.49 340.89L145.09 343.76M145.09 343.76L153.79 346.28M153.79 346.28L162.58 348.47M162.58 348.47L171.45 350.31M171.45 350.31L180.39 351.81M180.39 351.81L189.38 352.95M189.38 352.95L198.41 353.75M198.41 353.75L207.46 354.19"
fill="none" stroke="black" stroke-width="0.5"/>
<path d="M185.04 452.5L176.69 448.97M176.69 448.97L168.21 445.78M168.21 445.78L159.62 442.91M159.62 442.91L150.91 440.38M150.91 440.38L142.12 438.2M142.12 438.2L133.25 436.35M133.25 436.35L124.31 434.86M124.31 434.86L115.32 433.71M115.32 433.71L106.29 432.92M106.29 432.92L97.24 432.48"
fill="none" stroke="black" stroke-width="0.5"/>
<path d="M92.46 425.69L96.26 413.43M96.26 413.43L99.76 401.08M99.76 401.08L102.93 388.65M102.93 388.65L105.78 376.13M105.78 376.13L108.32 363.55M108.32 363.55L110.52 350.91M110.52 350.91L112.41 338.21"
fill="none" stroke="black" stroke-width="0.5"/>
<path d="M119.66 334.17L118.35 333.78M118.35 333.78L116.98 333.75M116.98 333.75L115.65 334.08M115.65 334.08L114.45 334.75M114.45 334.75L113.47 335.71M113.47 335.71L112.77 336.89M112.77 336.89L112.41 338.21"
fill="none" stroke="black" stroke-width="0.5"/>
<path d="M212.24 360.98L212.49 359.63M212.49 359.63L212.37 358.26M212.37 358.26L211.91 356.97M211.91 356.97L211.12 355.85M211.12 355.85L210.06 354.98M210.06 354.98L208.81 354.41M208.81 354.41L207.46 354.19"
fill="none" stroke="black" stroke-width="0.5"/>
<path d="M185.04 452.5L186.35 452.89M186.35 452.89L187.72 452.92M187.72 452.92L189.06 452.59M189.06 452.59L190.25 451.92M190.25 451.92L191.23 450.96M191.23 450.96L191.93 449.78M191.93 449.78L192.29 448.46"
fill="none" stroke="black" stroke-width="0.5"/>
<path d="M92.46 425.69L92.21 427.04M92.21 427.04L92.33 428.41M92.33 428.41L92.79 429.69M92.79 429.69L93.58 430.81M93.58 430.81L94.64 431.69M94.64 431.69L95.89 432.26M95.89 432.26L97.24 432.48"
fill="none" stroke="black" stroke-width="0.5"/>
<path d="M206.67 364.93L206.92 363.58M206.92 363.58L206.8 362.22M206.8 362.22L206.33 360.93M206.33 360.93L205.54 359.81M205.54 359.81L204.49 358.93M204.49 358.93L203.24 358.36M203.24 358.36L201.89 358.14"
fill="none" stroke="black" stroke-width="0.5"/>
<path d="M181.73 446.52L183.05 446.91M183.05 446.91L184.42 446.94M184.42 446.94L185.75 446.61M185.75 446.61L186.95 445.94M186.95 445.94L187.93 444.98M187.93 444.98L188.62 443.8M188.62 443.8L188.98 442.48"
fill="none" stroke="black" stroke-width="0.5"/>
<path d="M122.97 340.15L121.65 339.76M121.65 339.76L120.28 339.73M120.28 339.73L118.95 340.06M118.95 340.06L117.75 340.73M117.75 340.73L116.77 341.68M116.77 341.68L116.08 342.87M116.08 342.87L115.72 344.19"
fill="none" stroke="black" stroke-width="0.5"/>
<path d="M98.03 421.74L97.78 423.09M97.78 423.09L97.9 424.45M97.9 424.45L98.37 425.74M98.37 425.74L99.16 426.86M99.16 426.86L100.21 427.74M100.21 427.74L101.46 428.3M101.46 428.3L102.81 428.52"
fill="none" stroke="black" stroke-width="0.5"/>
<path d="M189.04 419.95L191.06 414.17M191.06 414.17L192.79 408.3M192.79 408.3L194.21 402.34M194.21 402.34L195.33 396.32M195.33 396.32L196.14 390.26M196.14 390.26L196.63 384.16M196.63 384.16L196.82 378.04M196.82 378.04L196.69 371.92"
fill="none" stroke="black" stroke-width="0.5"/>
<path d="M110.39 378.08L108.93 382.57M108.93 382.57L107.81 387.15M107.81 387.15L107.03 391.79M107.03 391.79L106.6 396.49M106.6 396.49L106.52 401.2M106.52 401.2L106.79 405.91M106.79 405.91L107.41 410.58M107.41 410.58L108.38 415.19M108.38 415.19L109.68 419.72"
fill="none" stroke="black" stroke-width="0.5"/>
<path d="M154.5 388.84L155.48 387.01M155.48 387.01L156.15 385.03M156.15 385.03L156.49 382.98M156.49 382.98L156.5 380.9M156.5 380.9L156.16 378.84"
fill="none" stroke="black" stroke-width="0.5"/>
<path d="M156.92 402.7L157.48 401.04M157.48 401.04L157.69 399.31M157.69 399.31L157.55 397.56M157.55 397.56L157.05 395.88M157.05 395.88L156.23 394.34M156.23 394.34L155.1 393"
fill="none" stroke="black" stroke-width="0.5"/>
<path d="M141.33 396.89L142.65 397.83M142.65 397.83L144.16 398.43M144.16 398.43L145.76 398.64M145.76 398.64L147.37 398.47M147.37 398.47L148.88 397.91M148.88 397.91L150.22 397M150.22 397L151.31 395.8M151.31 395.8L152.07 394.38"
fill="none" stroke="black" stroke-width="0.5"/>
<path d="M151.37 388.31L150.25 386.58M150.25 386.58L148.85 385.07M148.85 385.07L147.21 383.82M147.21 383.82L145.38 382.87"
fill="none" stroke="black" stroke-width="0.5"/>
<path d="M149.33 391.26L149.52 390.18M149.52 390.18L150.07 389.23M150.07 389.23L150.91 388.53M150.91 388.53L151.93 388.16M151.93 388.16L153.03 388.16M153.03 388.16L154.06 388.53M154.06 388.53L154.89 389.23M154.89 389.23L155.44 390.18M155.44 390.18L155.63 391.26M155.63 391.26L155.44 392.33M155.44 392.33L154.89 393.28M154.89 393.28L154.06 393.98M154.06 393.98L153.03 394.36M153.03 394.36L151.93 394.36M151.93 394.36L150.91 393.98M150.91 393.98L150.07 393.28M150.07 393.28L149.52 392.33M149.52 392.33L149.33 391.26"
fill="none" stroke="black" stroke-width="0.5"/>
<path d="M200.13 405.05L268.33 405.05"
fill="none" stroke="black" stroke-width="0.5"/>
<path d="M102.32 432.68L102.32 491.98"
fill="none" stroke="black" stroke-width="0.5"/>
<path d="M102.32 533.51L102.32 559.39"
fill="none" stroke="black" stroke-width="0.5"/>
<path d="M582.25 164.25L582.25 245.52"
fill="none" stroke="black" stroke-width="0.5"/>
<path d="M736.59 105.26L736.59 250.72"
fill="none" stroke="black" stroke-width="0.5"/>
<path d="M427.86 27.64L427.86 164.25"
fill="none" stroke="black" stroke-width="0.5"/>
<path d="M273.46 245.51L287.43 247.23M287.43 247.23L301.44 248.6M301.44 248.6L315.48 249.64M315.48 249.64L329.54 250.33M329.54 250.33L343.62 250.67M343.62 250.67L357.7 250.67M357.7 250.67L371.77 250.33M371.77 250.33L385.83 249.64M385.83 249.64L399.87 248.61M399.87 248.61L413.88 247.23M413.88 247.23L427.86 245.52"
fill="none" stroke="black" stroke-width="0.5"/>
<path d="M427.86 164.25L427.86 245.52"
fill="none" stroke="black" stroke-width="0.5"/>
</svg>
