<?xml version="1.0" encoding="UTF-8"?>
<svg xmlns="http://www.w3.org/2000/svg" width="800.000" height="600.000" viewBox="0.0 0.0 800.000 600.000" version="1.1">
  <title>Produce by Acme CAD Converter</title>
  <desc>Produce by Acme CAD Converter</desc>
<path d="M797.74 47.92L796.16 43.14"
fill="none" stroke="black" stroke-width="0.5"/>
<path d="M796.16 43.14L792.36 41.16"
fill="none" stroke="black" stroke-width="0.5"/>
<path d="M792.36 41.16L749.35 41.16"
fill="none" stroke="black" stroke-width="0.5"/>
<path d="M749.35 41.16L745.55 43.14"
fill="none" stroke="black" stroke-width="0.5"/>
<path d="M745.55 43.14L743.98 47.92"
fill="none" stroke="black" stroke-width="0.5"/>
<path d="M743.98 47.92L743.33 44.73"
fill="none" stroke="black" stroke-width="0.5"/>
<path d="M743.33 44.73L740.97 42.26"
fill="none" stroke="black" stroke-width="0.5"/>
<path d="M740.97 42.26L736.03 41.08"
fill="none" stroke="black" stroke-width="0.5"/>
<path d="M736.03 41.08L491.34 41.08"
fill="none" stroke="black" stroke-width="0.5"/>
<path d="M491.34 41.08L486.39 42.26"
fill="none" stroke="black" stroke-width="0.5"/>
<path d="M486.39 42.26L484.03 44.73"
fill="none" stroke="black" stroke-width="0.5"/>
<path d="M484.03 44.73L481.66 42.26"
fill="none" stroke="black" stroke-width="0.5"/>
<path d="M481.66 42.26L476.71 41.08"
fill="none" stroke="black" stroke-width="0.5"/>
<path d="M476.71 41.08L231.41 41.08"
fill="none" stroke="black" stroke-width="0.5"/>
<path d="M231.41 41.08L226.24 42.49"
fill="none" stroke="black" stroke-width="0.5"/>
<path d="M226.24 42.49L224.09 44.73"
fill="none" stroke="black" stroke-width="0.5"/>
<path d="M224.09 44.73L224.09 55.35"
fill="none" stroke="black" stroke-width="0.5"/>
<path d="M224.09 55.35L222.09 48.23"
fill="none" stroke="black" stroke-width="0.5"/>
<path d="M222.09 48.23L217.88 40.95"
fill="none" stroke="black" stroke-width="0.5"/>
<path d="M217.88 40.95L7.39 41.16"
fill="none" stroke="black" stroke-width="0.5"/>
<path d="M7.39 41.16L3.77 44.56"
fill="none" stroke="black" stroke-width="0.5"/>
<path d="M3.77 44.56L2.26 52.77"
fill="none" stroke="black" stroke-width="0.5"/>
<path d="M2.26 52.77L2.26 441.85"
fill="none" stroke="black" stroke-width="0.5"/>
<path d="M2.26 441.85L3.77 450.07"
fill="none" stroke="black" stroke-width="0.5"/>
<path d="M3.77 450.07L3.77 536.53"
fill="none" stroke="black" stroke-width="0.5"/>
<path d="M3.77 536.53L5.77 551.77"
fill="none" stroke="black" stroke-width="0.5"/>
<path d="M5.77 551.77L9.97 559.05"
fill="none" stroke="black" stroke-width="0.5"/>
<path d="M9.97 559.05L217.88 559.05"
fill="none" stroke="black" stroke-width="0.5"/>
<path d="M217.88 559.05L222.09 551.77"
fill="none" stroke="black" stroke-width="0.5"/>
<path d="M222.09 551.77L224.85 533.96"
fill="none" stroke="black" stroke-width="0.5"/>
<path d="M224.85 533.96L224.09 356.27"
fill="none" stroke="black" stroke-width="0.5"/>
<path d="M224.09 356.27L226.43 365.94"
fill="none" stroke="black" stroke-width="0.5"/>
<path d="M226.43 365.94L231.32 370.56"
fill="none" stroke="black" stroke-width="0.5"/>
<path d="M231.32 370.56L473.56 370.56"
fill="none" stroke="black" stroke-width="0.5"/>
<path d="M473.56 370.56L478.45 365.94"
fill="none" stroke="black" stroke-width="0.5"/>
<path d="M478.45 365.94L480.79 356.27"
fill="none" stroke="black" stroke-width="0.5"/>
<path d="M480.79 356.27L482.96 365.03"
fill="none" stroke="black" stroke-width="0.5"/>
<path d="M482.96 365.03L488.2 370.56"
fill="none" stroke="black" stroke-width="0.5"/>
<path d="M488.2 370.56L736.56 370.56"
fill="none" stroke="black" stroke-width="0.5"/>
<path d="M736.56 370.56L741.58 365.94"
fill="none" stroke="black" stroke-width="0.5"/>
<path d="M741.58 365.94L743.98 356.27"
fill="none" stroke="black" stroke-width="0.5"/>
<path d="M743.98 356.27L743.98 274.18"
fill="none" stroke="black" stroke-width="0.5"/>
<path d="M743.98 274.18L745.55 278.95"
fill="none" stroke="black" stroke-width="0.5"/>
<path d="M745.55 278.95L749.35 280.93"
fill="none" stroke="black" stroke-width="0.5"/>
<path d="M749.35 280.93L792.36 280.93"
fill="none" stroke="black" stroke-width="0.5"/>
<path d="M792.36 280.93L796.16 278.95"
fill="none" stroke="black" stroke-width="0.5"/>
<path d="M796.16 278.95L797.74 274.18"
fill="none" stroke="black" stroke-width="0.5"/>
<path d="M797.74 274.18L797.74 47.92"
fill="none" stroke="black" stroke-width="0.5"/>
<path d="M484.03 44.73L491.34 41.08"
fill="none" stroke="black" stroke-width="0.5"/>
<path d="M491.34 41.08L736.03 41.08"
fill="none" stroke="black" stroke-width="0.5"/>
<path d="M736.03 41.08L743.98 47.92"
fill="none" stroke="black" stroke-width="0.5"/>
<path d="M743.98 47.92L743.98 54.57"
fill="none" stroke="black" stroke-width="0.5"/>
<path d="M743.98 54.57L743.98 121.48"
fill="none" stroke="black" stroke-width="0.5"/>
<path d="M743.98 121.48L740.97 123.96"
fill="none" stroke="black" stroke-width="0.5"/>
<path d="M740.97 123.96L736.03 125.14"
fill="none" stroke="black" stroke-width="0.5"/>
<path d="M736.03 125.14L491.34 125.14"
fill="none" stroke="black" stroke-width="0.5"/>
<path d="M491.34 125.14L486.17 123.72"
fill="none" stroke="black" stroke-width="0.5"/>
<path d="M486.17 123.72L484.03 121.48"
fill="none" stroke="black" stroke-width="0.5"/>
<path d="M484.03 121.48L484.03 44.73"
fill="none" stroke="black" stroke-width="0.5"/>
<path d="M484.03 44.73L481.89 42.49"
fill="none" stroke="black" stroke-width="0.5"/>
<path d="M481.89 42.49L476.71 41.08"
fill="none" stroke="black" stroke-width="0.5"/>
<path d="M476.71 41.08L231.41 41.08"
fill="none" stroke="black" stroke-width="0.5"/>
<path d="M231.41 41.08L226.46 42.26"
fill="none" stroke="black" stroke-width="0.5"/>
<path d="M226.46 42.26L224.09 44.73"
fill="none" stroke="black" stroke-width="0.5"/>
<path d="M224.09 44.73L224.09 125.48"
fill="none" stroke="black" stroke-width="0.5"/>
<path d="M224.09 125.48L477.58 125.48"
fill="none" stroke="black" stroke-width="0.5"/>
<path d="M477.58 125.48L481.66 123.96"
fill="none" stroke="black" stroke-width="0.5"/>
<path d="M481.66 123.96L484.03 121.48"
fill="none" stroke="black" stroke-width="0.5"/>
<path d="M484.03 121.48L484.03 44.73"
fill="none" stroke="black" stroke-width="0.5"/>
<path d="M484.03 44.73L481.89 42.49"
fill="none" stroke="black" stroke-width="0.5"/>
<path d="M481.89 42.49L476.71 41.08"
fill="none" stroke="black" stroke-width="0.5"/>
<path d="M476.71 41.08L231.41 41.08"
fill="none" stroke="black" stroke-width="0.5"/>
<path d="M231.41 41.08L226.46 42.26"
fill="none" stroke="black" stroke-width="0.5"/>
<path d="M226.46 42.26L224.09 44.73"
fill="none" stroke="black" stroke-width="0.5"/>
<path d="M224.09 44.73L224.09 55.35"
fill="none" stroke="black" stroke-width="0.5"/>
<path d="M224.09 55.35L224.09 51.85"
fill="none" stroke="black" stroke-width="0.5"/>
<path d="M224.09 51.85L222.09 48.23"
fill="none" stroke="black" stroke-width="0.5"/>
<path d="M222.09 48.23L217.88 40.95"
fill="none" stroke="black" stroke-width="0.5"/>
<path d="M217.88 40.95L7.39 40.95"
fill="none" stroke="black" stroke-width="0.5"/>
<path d="M7.39 40.95L3.77 44.56"
fill="none" stroke="black" stroke-width="0.5"/>
<path d="M3.77 44.56L2.26 52.77"
fill="none" stroke="black" stroke-width="0.5"/>
<path d="M2.26 52.77L2.26 441.85"
fill="none" stroke="black" stroke-width="0.5"/>
<path d="M2.26 441.85L3.77 450.07"
fill="none" stroke="black" stroke-width="0.5"/>
<path d="M3.77 450.07L7.39 453.47"
fill="none" stroke="black" stroke-width="0.5"/>
<path d="M7.39 453.47L48.41 453.47"
fill="none" stroke="black" stroke-width="0.5"/>
<path d="M48.41 453.47L52.03 450.07"
fill="none" stroke="black" stroke-width="0.5"/>
<path d="M52.03 450.07L53.53 441.85"
fill="none" stroke="black" stroke-width="0.5"/>
<path d="M53.53 441.85L53.53 128.51"
fill="none" stroke="black" stroke-width="0.5"/>
<path d="M53.53 128.51L222.56 128.51"
fill="none" stroke="black" stroke-width="0.5"/>
<path d="M222.56 128.51L224.09 125.48"
fill="none" stroke="black" stroke-width="0.5"/>
<path d="M224.09 125.48L224.09 125.48"
fill="none" stroke="black" stroke-width="0.5"/>
<path d="M224.09 125.48L477.58 125.48"
fill="none" stroke="black" stroke-width="0.5"/>
<path d="M477.58 125.48L481.66 123.96"
fill="none" stroke="black" stroke-width="0.5"/>
<path d="M481.66 123.96L484.03 121.48"
fill="none" stroke="black" stroke-width="0.5"/>
<path d="M484.03 121.48L481.66 123.96"
fill="none" stroke="black" stroke-width="0.5"/>
<path d="M481.66 123.96L480.79 356.27"
fill="none" stroke="black" stroke-width="0.5"/>
<path d="M480.79 356.27L478.45 365.94"
fill="none" stroke="black" stroke-width="0.5"/>
<path d="M478.45 365.94L473.56 370.56"
fill="none" stroke="black" stroke-width="0.5"/>
<path d="M473.56 370.56L231.32 370.56"
fill="none" stroke="black" stroke-width="0.5"/>
<path d="M231.32 370.56L226.21 365.03"
fill="none" stroke="black" stroke-width="0.5"/>
<path d="M226.21 365.03L224.09 356.27"
fill="none" stroke="black" stroke-width="0.5"/>
<path d="M224.09 356.27L224.09 125.48"
fill="none" stroke="black" stroke-width="0.5"/>
<path d="M224.09 125.48L224.09 536.53"
fill="none" stroke="black" stroke-width="0.5"/>
<path d="M224.09 536.53L222.09 551.77"
fill="none" stroke="black" stroke-width="0.5"/>
<path d="M222.09 551.77L217.88 559.05"
fill="none" stroke="black" stroke-width="0.5"/>
<path d="M217.88 559.05L9.97 559.05"
fill="none" stroke="black" stroke-width="0.5"/>
<path d="M9.97 559.05L5.58 550.34"
fill="none" stroke="black" stroke-width="0.5"/>
<path d="M5.58 550.34L3.77 536.53"
fill="none" stroke="black" stroke-width="0.5"/>
<path d="M3.77 536.53L3.77 450.07"
fill="none" stroke="black" stroke-width="0.5"/>
<path d="M3.77 450.07L3.77 538.95"
fill="none" stroke="black" stroke-width="0.5"/>
<path d="M3.77 538.95L5.58 550.34"
fill="none" stroke="black" stroke-width="0.5"/>
<path d="M5.58 550.34L9.97 559.05"
fill="none" stroke="black" stroke-width="0.5"/>
<path d="M9.97 559.05L217.88 559.05"
fill="none" stroke="black" stroke-width="0.5"/>
<path d="M217.88 559.05L222.09 551.77"
fill="none" stroke="black" stroke-width="0.5"/>
<path d="M222.09 551.77L224.09 536.53"
fill="none" stroke="black" stroke-width="0.5"/>
<path d="M224.09 536.53L224.09 356.27"
fill="none" stroke="black" stroke-width="0.5"/>
<path d="M224.09 356.27L226.21 365.03"
fill="none" stroke="black" stroke-width="0.5"/>
<path d="M226.21 365.03L231.32 370.56"
fill="none" stroke="black" stroke-width="0.5"/>
<path d="M231.32 370.56L473.56 370.56"
fill="none" stroke="black" stroke-width="0.5"/>
<path d="M473.56 370.56L478.45 365.94"
fill="none" stroke="black" stroke-width="0.5"/>
<path d="M478.45 365.94L480.79 356.27"
fill="none" stroke="black" stroke-width="0.5"/>
<path d="M480.79 356.27L483.18 365.94"
fill="none" stroke="black" stroke-width="0.5"/>
<path d="M483.18 365.94L488.2 370.56"
fill="none" stroke="black" stroke-width="0.5"/>
<path d="M488.2 370.56L736.56 370.56"
fill="none" stroke="black" stroke-width="0.5"/>
<path d="M736.56 370.56L741.58 365.94"
fill="none" stroke="black" stroke-width="0.5"/>
<path d="M741.58 365.94L743.98 356.27"
fill="none" stroke="black" stroke-width="0.5"/>
<path d="M743.98 356.27L743.98 274.18"
fill="none" stroke="black" stroke-width="0.5"/>
<path d="M743.98 274.18L745.55 278.95"
fill="none" stroke="black" stroke-width="0.5"/>
<path d="M745.55 278.95L749.35 280.93"
fill="none" stroke="black" stroke-width="0.5"/>
<path d="M749.35 280.93L792.36 280.93"
fill="none" stroke="black" stroke-width="0.5"/>
<path d="M792.36 280.93L796.16 278.95"
fill="none" stroke="black" stroke-width="0.5"/>
<path d="M796.16 278.95L797.74 274.18"
fill="none" stroke="black" stroke-width="0.5"/>
<path d="M797.74 274.18L797.74 47.92"
fill="none" stroke="black" stroke-width="0.5"/>
<path d="M797.74 47.92L796.16 43.14"
fill="none" stroke="black" stroke-width="0.5"/>
<path d="M796.16 43.14L792.36 41.16"
fill="none" stroke="black" stroke-width="0.5"/>
<path d="M792.36 41.16L749.35 41.16"
fill="none" stroke="black" stroke-width="0.5"/>
<path d="M749.35 41.16L745.55 43.14"
fill="none" stroke="black" stroke-width="0.5"/>
<path d="M745.55 43.14L743.98 47.92"
fill="none" stroke="black" stroke-width="0.5"/>
<path d="M743.98 47.92L743.98 356.27"
fill="none" stroke="black" stroke-width="0.5"/>
<path d="M743.98 356.27L741.58 365.94"
fill="none" stroke="black" stroke-width="0.5"/>
<path d="M741.58 365.94L736.56 370.56"
fill="none" stroke="black" stroke-width="0.5"/>
<path d="M736.56 370.56L488.2 370.56"
fill="none" stroke="black" stroke-width="0.5"/>
<path d="M488.2 370.56L483.18 365.94"
fill="none" stroke="black" stroke-width="0.5"/>
<path d="M483.18 365.94L480.79 356.27"
fill="none" stroke="black" stroke-width="0.5"/>
</svg>
