<?xml version="1.0" encoding="UTF-8"?>
<svg xmlns="http://www.w3.org/2000/svg" width="800.000" height="600.000" viewBox="0.0 0.0 800.000 600.000" version="1.1">
  <title>Produce by Acme CAD Converter</title>
  <desc>Produce by Acme CAD Converter</desc>
<path d="M698.18 267.41L101.94 267.41"
fill="none" stroke="black" stroke-width="0.5"/>
<path d="M698.18 276.99L101.94 276.99"
fill="none" stroke="black" stroke-width="0.5"/>
<path d="M690.81 267.41L690.81 276.99"
fill="none" stroke="black" stroke-width="0.5"/>
<path d="M688.16 267.41L688.16 276.99"
fill="none" stroke="black" stroke-width="0.5"/>
<path d="M669.9 267.41L669.9 276.99"
fill="none" stroke="black" stroke-width="0.5"/>
<path d="M667.25 267.41L667.25 276.99"
fill="none" stroke="black" stroke-width="0.5"/>
<path d="M698.37 267.41L698.37 276.99"
fill="none" stroke="black" stroke-width="0.5"/>
<path d="M607.61 267.41L607.61 276.99"
fill="none" stroke="black" stroke-width="0.5"/>
<path d="M604.96 267.41L604.96 276.99"
fill="none" stroke="black" stroke-width="0.5"/>
<path d="M627.64 267.41L627.64 276.99"
fill="none" stroke="black" stroke-width="0.5"/>
<path d="M624.99 267.41L624.99 276.99"
fill="none" stroke="black" stroke-width="0.5"/>
<path d="M270.02 267.41L270.02 276.99"
fill="none" stroke="black" stroke-width="0.5"/>
<path d="M272.66 267.41L272.66 276.99"
fill="none" stroke="black" stroke-width="0.5"/>
<path d="M530.29 267.41L530.29 276.99"
fill="none" stroke="black" stroke-width="0.5"/>
<path d="M527.65 267.41L527.65 276.99"
fill="none" stroke="black" stroke-width="0.5"/>
<path d="M172.67 267.41L172.67 276.99"
fill="none" stroke="black" stroke-width="0.5"/>
<path d="M175.32 267.41L175.32 276.99"
fill="none" stroke="black" stroke-width="0.5"/>
<path d="M192.7 267.41L192.7 276.99"
fill="none" stroke="black" stroke-width="0.5"/>
<path d="M195.35 267.41L195.35 276.99"
fill="none" stroke="black" stroke-width="0.5"/>
<path d="M611.51 283.12L611.68 282.41M611.68 282.41L612.17 281.86M612.17 281.86L612.86 281.6M612.86 281.6L613.58 281.68M613.58 281.68L614.19 282.1M614.19 282.1L614.53 282.75M614.53 282.75L614.53 283.48M614.53 283.48L614.19 284.13M614.19 284.13L613.58 284.55M613.58 284.55L612.86 284.64M612.86 284.64L612.17 284.38M612.17 284.38L611.68 283.83M611.68 283.83L611.51 283.12"
fill="none" stroke="black" stroke-width="0.5"/>
<path d="M618.4 283.12L618.58 282.41M618.58 282.41L619.07 281.86M619.07 281.86L619.75 281.6M619.75 281.6L620.48 281.68M620.48 281.68L621.08 282.1M621.08 282.1L621.43 282.75M621.43 282.75L621.43 283.48M621.43 283.48L621.08 284.13M621.08 284.13L620.48 284.55M620.48 284.55L619.75 284.64M619.75 284.64L619.07 284.38M619.07 284.38L618.58 283.83M618.58 283.83L618.4 283.12"
fill="none" stroke="black" stroke-width="0.5"/>
<path d="M605.76 285.42L605.76 272.2"
fill="none" stroke="black" stroke-width="0.5"/>
<path d="M606.53 285.42L606.53 272.2"
fill="none" stroke="black" stroke-width="0.5"/>
<path d="M624.92 286.18L624.92 272.2"
fill="none" stroke="black" stroke-width="0.5"/>
<path d="M608.06 286.18L608.06 272.2"
fill="none" stroke="black" stroke-width="0.5"/>
<path d="M626.45 285.42L626.45 272.2"
fill="none" stroke="black" stroke-width="0.5"/>
<path d="M627.22 285.42L627.22 272.2"
fill="none" stroke="black" stroke-width="0.5"/>
<path d="M625.68 286.95L607.29 286.95"
fill="none" stroke="black" stroke-width="0.5"/>
<path d="M625.68 286.18L626.07 286.08M626.07 286.08L626.35 285.8M626.35 285.8L626.45 285.42"
fill="none" stroke="black" stroke-width="0.5"/>
<path d="M625.68 286.95L626.27 286.83M626.27 286.83L626.77 286.5M626.77 286.5L627.1 286M627.1 286L627.22 285.42"
fill="none" stroke="black" stroke-width="0.5"/>
<path d="M625.68 286.18L624.92 286.18"
fill="none" stroke="black" stroke-width="0.5"/>
<path d="M606.53 285.42L606.63 285.8M606.63 285.8L606.91 286.08M606.91 286.08L607.29 286.18"
fill="none" stroke="black" stroke-width="0.5"/>
<path d="M605.76 285.42L605.88 286M605.88 286L606.21 286.5M606.21 286.5L606.71 286.83M606.71 286.83L607.29 286.95"
fill="none" stroke="black" stroke-width="0.5"/>
<path d="M608.06 286.18L607.29 286.18"
fill="none" stroke="black" stroke-width="0.5"/>
<path d="M624.92 272.2L608.06 272.2"
fill="none" stroke="black" stroke-width="0.5"/>
<path d="M627.22 272.2L626.45 272.2"
fill="none" stroke="black" stroke-width="0.5"/>
<path d="M617.26 276.8L617.83 276.64M617.83 276.64L618.25 276.22M618.25 276.22L618.4 275.65M618.4 275.65L618.25 275.07M618.25 275.07L617.83 274.65M617.83 274.65L617.26 274.5"
fill="none" stroke="black" stroke-width="0.5"/>
<path d="M615.72 274.5L615.15 274.65M615.15 274.65L614.73 275.07M614.73 275.07L614.57 275.65M614.57 275.65L614.73 276.22M614.73 276.22L615.15 276.64M615.15 276.64L615.72 276.8"
fill="none" stroke="black" stroke-width="0.5"/>
<path d="M617.26 276.8L615.72 276.8"
fill="none" stroke="black" stroke-width="0.5"/>
<path d="M617.26 274.5L615.72 274.5"
fill="none" stroke="black" stroke-width="0.5"/>
<path d="M606.53 272.2L605.76 272.2"
fill="none" stroke="black" stroke-width="0.5"/>
<path d="M178.59 283.12L178.76 282.41M178.76 282.41L179.25 281.86M179.25 281.86L179.93 281.6M179.93 281.6L180.66 281.68M180.66 281.68L181.27 282.1M181.27 282.1L181.61 282.75M181.61 282.75L181.61 283.48M181.61 283.48L181.27 284.13M181.27 284.13L180.66 284.55M180.66 284.55L179.93 284.64M179.93 284.64L179.25 284.38M179.25 284.38L178.76 283.83M178.76 283.83L178.59 283.12"
fill="none" stroke="black" stroke-width="0.5"/>
<path d="M185.48 283.12L185.66 282.41M185.66 282.41L186.14 281.86M186.14 281.86L186.83 281.6M186.83 281.6L187.56 281.68M187.56 281.68L188.16 282.1M188.16 282.1L188.5 282.75M188.5 282.75L188.5 283.48M188.5 283.48L188.16 284.13M188.16 284.13L187.56 284.55M187.56 284.55L186.83 284.64M186.83 284.64L186.14 284.38M186.14 284.38L185.66 283.83M185.66 283.83L185.48 283.12"
fill="none" stroke="black" stroke-width="0.5"/>
<path d="M172.84 285.42L172.84 272.2"
fill="none" stroke="black" stroke-width="0.5"/>
<path d="M173.61 285.42L173.61 272.2"
fill="none" stroke="black" stroke-width="0.5"/>
<path d="M192 286.18L192 272.2"
fill="none" stroke="black" stroke-width="0.5"/>
<path d="M175.14 286.18L175.14 272.2"
fill="none" stroke="black" stroke-width="0.5"/>
<path d="M193.53 285.42L193.53 272.2"
fill="none" stroke="black" stroke-width="0.5"/>
<path d="M194.3 285.42L194.3 272.2"
fill="none" stroke="black" stroke-width="0.5"/>
<path d="M192.76 286.95L174.37 286.95"
fill="none" stroke="black" stroke-width="0.5"/>
<path d="M192.76 286.18L193.15 286.08M193.15 286.08L193.43 285.8M193.43 285.8L193.53 285.42"
fill="none" stroke="black" stroke-width="0.5"/>
<path d="M192.76 286.95L193.35 286.83M193.35 286.83L193.85 286.5M193.85 286.5L194.18 286M194.18 286L194.3 285.42"
fill="none" stroke="black" stroke-width="0.5"/>
<path d="M192.76 286.18L192 286.18"
fill="none" stroke="black" stroke-width="0.5"/>
<path d="M173.61 285.42L173.71 285.8M173.71 285.8L173.99 286.08M173.99 286.08L174.37 286.18"
fill="none" stroke="black" stroke-width="0.5"/>
<path d="M172.84 285.42L172.96 286M172.96 286L173.29 286.5M173.29 286.5L173.79 286.83M173.79 286.83L174.37 286.95"
fill="none" stroke="black" stroke-width="0.5"/>
<path d="M175.14 286.18L174.37 286.18"
fill="none" stroke="black" stroke-width="0.5"/>
<path d="M192 272.2L175.14 272.2"
fill="none" stroke="black" stroke-width="0.5"/>
<path d="M194.3 272.2L193.53 272.2"
fill="none" stroke="black" stroke-width="0.5"/>
<path d="M184.33 276.8L184.91 276.64M184.91 276.64L185.33 276.22M185.33 276.22L185.48 275.65M185.48 275.65L185.33 275.07M185.33 275.07L184.91 274.65M184.91 274.65L184.33 274.5"
fill="none" stroke="black" stroke-width="0.5"/>
<path d="M182.8 274.5L182.23 274.65M182.23 274.65L181.81 275.07M181.81 275.07L181.65 275.65M181.65 275.65L181.81 276.22M181.81 276.22L182.23 276.64M182.23 276.64L182.8 276.8"
fill="none" stroke="black" stroke-width="0.5"/>
<path d="M184.33 276.8L182.8 276.8"
fill="none" stroke="black" stroke-width="0.5"/>
<path d="M184.33 274.5L182.8 274.5"
fill="none" stroke="black" stroke-width="0.5"/>
<path d="M173.61 272.2L172.84 272.2"
fill="none" stroke="black" stroke-width="0.5"/>
<path d="M109.3 267.41L109.3 276.99"
fill="none" stroke="black" stroke-width="0.5"/>
<path d="M111.95 267.41L111.95 276.99"
fill="none" stroke="black" stroke-width="0.5"/>
<path d="M130.21 267.41L130.21 276.99"
fill="none" stroke="black" stroke-width="0.5"/>
<path d="M132.86 267.41L132.86 276.99"
fill="none" stroke="black" stroke-width="0.5"/>
<path d="M101.74 267.41L101.74 276.99"
fill="none" stroke="black" stroke-width="0.5"/>
<path d="M767.4 304.2L767.4 295.52"
fill="none" stroke="black" stroke-width="0.5"/>
<path d="M767.4 295.52L767.21 294.04M767.21 294.04L766.63 292.65M766.63 292.65L765.72 291.46M765.72 291.46L764.53 290.55M764.53 290.55L763.14 289.97M763.14 289.97L761.66 289.78"
fill="none" stroke="black" stroke-width="0.5"/>
<path d="M767.4 286.95L32.65 286.95"
fill="none" stroke="black" stroke-width="0.5"/>
<path d="M761.66 289.78L38.4 289.78"
fill="none" stroke="black" stroke-width="0.5"/>
<path d="M786.12 301.62L780.81 301.62"
fill="none" stroke="black" stroke-width="0.5"/>
<path d="M793.79 309.95L773.15 309.95"
fill="none" stroke="black" stroke-width="0.5"/>
<path d="M775.07 294.61L775.07 295.87"
fill="none" stroke="black" stroke-width="0.5"/>
<path d="M793.79 309.28L793.6 307.57M793.6 307.57L793.03 305.95M793.03 305.95L792.12 304.5M792.12 304.5L790.9 303.29M790.9 303.29L789.45 302.37M789.45 302.37L787.83 301.81M787.83 301.81L786.12 301.62"
fill="none" stroke="black" stroke-width="0.5"/>
<path d="M775.07 294.61L774.88 292.91M774.88 292.91L774.31 291.29M774.31 291.29L773.4 289.83M773.4 289.83L772.18 288.62M772.18 288.62L770.73 287.71M770.73 287.71L769.11 287.14M769.11 287.14L767.4 286.95"
fill="none" stroke="black" stroke-width="0.5"/>
<path d="M775.07 295.87L775.26 297.36M775.26 297.36L775.84 298.74M775.84 298.74L776.75 299.93M776.75 299.93L777.94 300.85M777.94 300.85L779.33 301.42M779.33 301.42L780.81 301.62"
fill="none" stroke="black" stroke-width="0.5"/>
<path d="M767.4 304.2L767.6 305.69M767.6 305.69L768.17 307.07M768.17 307.07L769.09 308.26M769.09 308.26L770.28 309.18M770.28 309.18L771.66 309.75M771.66 309.75L773.15 309.95"
fill="none" stroke="black" stroke-width="0.5"/>
<path d="M797.74 315.94L2.26 315.94"
fill="none" stroke="black" stroke-width="0.5"/>
<path d="M2.26 332.59L797.74 332.59"
fill="none" stroke="black" stroke-width="0.5"/>
<path d="M797.74 332.59L797.74 315.94"
fill="none" stroke="black" stroke-width="0.5"/>
<path d="M793.79 309.28L793.79 315.94"
fill="none" stroke="black" stroke-width="0.5"/>
<path d="M2.26 332.59L2.26 315.94"
fill="none" stroke="black" stroke-width="0.5"/>
<path d="M10.04 309.95L26.9 309.95"
fill="none" stroke="black" stroke-width="0.5"/>
<path d="M10.04 309.28L10.04 315.94"
fill="none" stroke="black" stroke-width="0.5"/>
<path d="M17.7 301.62L15.99 301.81M15.99 301.81L14.37 302.37M14.37 302.37L12.92 303.29M12.92 303.29L11.71 304.5M11.71 304.5L10.79 305.95M10.79 305.95L10.23 307.57M10.23 307.57L10.04 309.28"
fill="none" stroke="black" stroke-width="0.5"/>
<path d="M26.9 309.95L28.39 309.75M28.39 309.75L29.78 309.18M29.78 309.18L30.97 308.26M30.97 308.26L31.88 307.07M31.88 307.07L32.46 305.69M32.46 305.69L32.65 304.2"
fill="none" stroke="black" stroke-width="0.5"/>
<path d="M17.7 301.62L19.24 301.62"
fill="none" stroke="black" stroke-width="0.5"/>
<path d="M24.99 294.61L24.99 295.87"
fill="none" stroke="black" stroke-width="0.5"/>
<path d="M32.65 286.95L30.95 287.14M30.95 287.14L29.33 287.71M29.33 287.71L27.87 288.62M27.87 288.62L26.66 289.83M26.66 289.83L25.75 291.29M25.75 291.29L25.18 292.91M25.18 292.91L24.99 294.61"
fill="none" stroke="black" stroke-width="0.5"/>
<path d="M32.65 304.2L32.65 295.52"
fill="none" stroke="black" stroke-width="0.5"/>
<path d="M19.24 301.62L20.73 301.42M20.73 301.42L22.12 300.85M22.12 300.85L23.31 299.93M23.31 299.93L24.22 298.74M24.22 298.74L24.79 297.36M24.79 297.36L24.99 295.87"
fill="none" stroke="black" stroke-width="0.5"/>
<path d="M38.4 289.78L36.91 289.97M36.91 289.97L35.53 290.55M35.53 290.55L34.33 291.46M34.33 291.46L33.42 292.65M33.42 292.65L32.85 294.04M32.85 294.04L32.65 295.52"
fill="none" stroke="black" stroke-width="0.5"/>
</svg>
