<?xml version="1.0" encoding="UTF-8"?>
<svg xmlns="http://www.w3.org/2000/svg" width="800.000" height="600.000" viewBox="0.0 0.0 800.000 600.000" version="1.1">
  <title>Produce by Acme CAD Converter</title>
  <desc>Produce by Acme CAD Converter</desc>
<path d="M219.21 345.2L219.21 366.89"
fill="none" stroke="black" stroke-width="2"/>
<path d="M219.21 374.12L219.21 388.59"
fill="none" stroke="black" stroke-width="2"/>
<path d="M219.21 388.59L219.38 390.47M219.38 390.47L219.86 392.3M219.86 392.3L220.66 394.01M220.66 394.01L221.75 395.56M221.75 395.56L223.09 396.9M223.09 396.9L224.63 397.98M224.63 397.98L226.35 398.78M226.35 398.78L228.17 399.27M228.17 399.27L230.06 399.43"
fill="none" stroke="black" stroke-width="2"/>
<path d="M230.06 399.43L569.94 399.43"
fill="none" stroke="black" stroke-width="2"/>
<path d="M569.94 399.43L571.83 399.27M571.83 399.27L573.65 398.78M573.65 398.78L575.37 397.98M575.37 397.98L576.91 396.9M576.91 396.9L578.25 395.56M578.25 395.56L579.34 394.01M579.34 394.01L580.14 392.3M580.14 392.3L580.62 390.47M580.62 390.47L580.79 388.59"
fill="none" stroke="black" stroke-width="2"/>
<path d="M580.79 388.59L580.79 374.12"
fill="none" stroke="black" stroke-width="2"/>
<path d="M580.79 366.89L580.79 345.2"
fill="none" stroke="black" stroke-width="2"/>
<path d="M580.79 345.2L786.89 345.2"
fill="none" stroke="black" stroke-width="2"/>
<path d="M786.89 345.2L788.77 345.03M788.77 345.03L790.6 344.54M790.6 344.54L792.31 343.74M792.31 343.74L793.86 342.66M793.86 342.66L795.2 341.32M795.2 341.32L796.28 339.77M796.28 339.77L797.08 338.06M797.08 338.06L797.57 336.23M797.57 336.23L797.74 334.35"
fill="none" stroke="black" stroke-width="2"/>
<path d="M797.74 334.35L797.74 200.57"
fill="none" stroke="black" stroke-width="2"/>
<path d="M797.74 200.57L2.26 200.57"
fill="none" stroke="black" stroke-width="2"/>
<path d="M2.26 200.57L2.26 334.35"
fill="none" stroke="black" stroke-width="2"/>
<path d="M2.26 334.35L2.43 336.23M2.43 336.23L2.92 338.06M2.92 338.06L3.72 339.77M3.72 339.77L4.8 341.32M4.8 341.32L6.14 342.66M6.14 342.66L7.69 343.74M7.69 343.74L9.4 344.54M9.4 344.54L11.23 345.03M11.23 345.03L13.11 345.2"
fill="none" stroke="black" stroke-width="2"/>
<path d="M13.11 345.2L219.21 345.2"
fill="none" stroke="black" stroke-width="2"/>
<path d="M797.74 207.8L2.26 207.8"
fill="none" stroke="black" stroke-width="2"/>
<path d="M580.79 345.2L219.21 345.2"
fill="none" stroke="black" stroke-width="2"/>
<path d="M774.26 366.89L577.17 366.89"
fill="none" stroke="black" stroke-width="2"/>
<path d="M577.17 366.89L577.17 374.12"
fill="none" stroke="black" stroke-width="2"/>
<path d="M577.17 374.12L774.26 374.12"
fill="none" stroke="black" stroke-width="2"/>
<path d="M774.26 374.12L774.26 366.89"
fill="none" stroke="black" stroke-width="2"/>
<path d="M770.62 345.2L770.62 366.89"
fill="none" stroke="black" stroke-width="2"/>
<path d="M763.39 345.2L763.39 366.89"
fill="none" stroke="black" stroke-width="2"/>
<path d="M689.26 374.12L689.26 380.58"
fill="none" stroke="black" stroke-width="2"/>
<path d="M686.37 374.12L686.37 380.58"
fill="none" stroke="black" stroke-width="2"/>
<path d="M663.23 374.12L663.23 380.58"
fill="none" stroke="black" stroke-width="2"/>
<path d="M660.34 374.12L660.34 380.58"
fill="none" stroke="black" stroke-width="2"/>
<path d="M692.88 380.58L656.72 380.58"
fill="none" stroke="black" stroke-width="2"/>
<path d="M692.88 383.47L656.72 383.47"
fill="none" stroke="black" stroke-width="2"/>
<path d="M656.72 380.58L656.72 383.47"
fill="none" stroke="black" stroke-width="2"/>
<path d="M692.88 383.47L692.88 380.58"
fill="none" stroke="black" stroke-width="2"/>
<path d="M580.79 345.2L580.79 366.89"
fill="none" stroke="black" stroke-width="2"/>
<path d="M588.02 345.2L588.02 366.89"
fill="none" stroke="black" stroke-width="2"/>
<path d="M25.74 366.89L222.83 366.89"
fill="none" stroke="black" stroke-width="2"/>
<path d="M222.83 366.89L222.83 374.12"
fill="none" stroke="black" stroke-width="2"/>
<path d="M222.83 374.12L25.74 374.12"
fill="none" stroke="black" stroke-width="2"/>
<path d="M25.74 374.12L25.74 366.89"
fill="none" stroke="black" stroke-width="2"/>
<path d="M29.38 345.2L29.38 366.89"
fill="none" stroke="black" stroke-width="2"/>
<path d="M36.61 345.2L36.61 366.89"
fill="none" stroke="black" stroke-width="2"/>
<path d="M110.74 374.12L110.74 380.58"
fill="none" stroke="black" stroke-width="2"/>
<path d="M113.63 374.12L113.63 380.58"
fill="none" stroke="black" stroke-width="2"/>
<path d="M136.77 374.12L136.77 380.58"
fill="none" stroke="black" stroke-width="2"/>
<path d="M139.66 374.12L139.66 380.58"
fill="none" stroke="black" stroke-width="2"/>
<path d="M107.12 380.58L143.28 380.58"
fill="none" stroke="black" stroke-width="2"/>
<path d="M107.12 383.47L143.28 383.47"
fill="none" stroke="black" stroke-width="2"/>
<path d="M143.28 380.58L143.28 383.47"
fill="none" stroke="black" stroke-width="2"/>
<path d="M107.12 383.47L107.12 380.58"
fill="none" stroke="black" stroke-width="2"/>
<path d="M219.21 345.2L219.21 366.89"
fill="none" stroke="black" stroke-width="2"/>
<path d="M211.98 345.2L211.98 366.89"
fill="none" stroke="black" stroke-width="2"/>
</svg>
