<?xml version="1.0" encoding="UTF-8"?>
<svg xmlns="http://www.w3.org/2000/svg" width="800.000" height="600.000" viewBox="0.0 0.0 800.000 600.000" version="1.1">
<path d="M778.8 284.85L797.74 284.85"
fill="none" stroke="black" stroke-width="3"/>
<path d="M797.74 284.85L797.74 315.15"
fill="none" stroke="black" stroke-width="3"/>
<path d="M797.74 315.15L778.8 315.15"
fill="none" stroke="black" stroke-width="3"/>
<path d="M778.8 315.15L778.8 284.85"
fill="none" stroke="black" stroke-width="3"/>
<path d="M759.86 284.85L778.8 284.85"
fill="none" stroke="black" stroke-width="3"/>
<path d="M778.8 284.85L778.8 315.15"
fill="none" stroke="black" stroke-width="3"/>
<path d="M778.8 315.15L759.86 315.15"
fill="none" stroke="black" stroke-width="3"/>
<path d="M759.86 315.15L759.86 284.85"
fill="none" stroke="black" stroke-width="3"/>
<path d="M381.06 300L40.14 300"
fill="none" stroke="black" stroke-width="3"/>
<path d="M40.14 315.15L400 315.15"
fill="none" stroke="black" stroke-width="3"/>
<path d="M400 315.15L400 284.85"
fill="none" stroke="black" stroke-width="3"/>
<path d="M400 284.85L40.14 284.85"
fill="none" stroke="black" stroke-width="3"/>
<path d="M40.14 284.85L40.14 315.15"
fill="none" stroke="black" stroke-width="3"/>
<path d="M40.14 284.85L21.2 284.85"
fill="none" stroke="black" stroke-width="3"/>
<path d="M21.2 284.85L21.2 315.15"
fill="none" stroke="black" stroke-width="3"/>
<path d="M21.2 315.15L40.14 315.15"
fill="none" stroke="black" stroke-width="3"/>
<path d="M40.14 315.15L40.14 284.85"
fill="none" stroke="black" stroke-width="3"/>
<path d="M21.2 284.85L2.26 284.85"
fill="none" stroke="black" stroke-width="3"/>
<path d="M2.26 284.85L2.26 315.15"
fill="none" stroke="black" stroke-width="3"/>
<path d="M2.26 315.15L21.2 315.15"
fill="none" stroke="black" stroke-width="3"/>
<path d="M21.2 315.15L21.2 284.85"
fill="none" stroke="black" stroke-width="3"/>
<path d="M400 284.85L418.94 284.85"
fill="none" stroke="black" stroke-width="3"/>
<path d="M418.94 284.85L418.94 315.15"
fill="none" stroke="black" stroke-width="3"/>
<path d="M418.94 315.15L400 315.15"
fill="none" stroke="black" stroke-width="3"/>
<path d="M400 315.15L400 284.85"
fill="none" stroke="black" stroke-width="3"/>
<path d="M400 284.85L381.06 284.85"
fill="none" stroke="black" stroke-width="3"/>
<path d="M381.06 284.85L381.06 315.15"
fill="none" stroke="black" stroke-width="3"/>
<path d="M381.06 315.15L400 315.15"
fill="none" stroke="black" stroke-width="3"/>
<path d="M400 315.15L400 284.85"
fill="none" stroke="black" stroke-width="3"/>
<path d="M418.94 300L759.86 300"
fill="none" stroke="black" stroke-width="3"/>
<path d="M759.86 315.15L400 315.15"
fill="none" stroke="black" stroke-width="3"/>
<path d="M400 315.15L400 284.85"
fill="none" stroke="black" stroke-width="3"/>
<path d="M400 284.85L759.86 284.85"
fill="none" stroke="black" stroke-width="3"/>
<path d="M759.86 284.85L759.86 315.15"
fill="none" stroke="black" stroke-width="3"/>
</svg>
