<?xml version="1.0" encoding="UTF-8"?>
<svg width="108px" height="54px" viewBox="0 0 108 54" version="1.1" xmlns="http://www.w3.org/2000/svg" xmlns:xlink="http://www.w3.org/1999/xlink">
    <!-- Generator: Sketch 56.3 (81716) - https://sketch.com -->
    <title>logo</title>
    <desc>Created with Sketch.</desc>
    <g id="Page-1" stroke="none" stroke-width="1" fill="none" fill-rule="evenodd">
        <g id="logo" fill-rule="nonzero">
            <path d="M9.05322,42.1875 C8.87474,42.1875 8.72751,42.1345 8.61151,42.0283 C8.4955,41.9223 8.4375,41.7808 8.4375,41.6041 L8.4375,24.2348 C8.4375,24.0404 8.4955,23.89 8.61151,23.784 C8.72751,23.678 8.87474,23.625 9.05322,23.625 L9.72247,23.625 C9.99018,23.625 10.1776,23.7399 10.2846,23.9696 L16.3615,35.6905 L22.4652,23.9696 C22.5901,23.7399 22.7774,23.625 23.0273,23.625 L23.6698,23.625 C23.8661,23.625 24.0178,23.678 24.1249,23.784 C24.2321,23.89 24.2856,24.0404 24.2856,24.2348 L24.2856,41.6041 C24.2856,41.7808 24.2276,41.9223 24.1116,42.0283 C23.9955,42.1345 23.8484,42.1875 23.6698,42.1875 L23.188,42.1875 C23.0096,42.1875 22.8667,42.1345 22.7597,42.0283 C22.6525,41.9223 22.599,41.7808 22.599,41.6041 L22.599,27.2313 L17.4859,37.2022 C17.3253,37.5557 17.0487,37.7324 16.656,37.7324 L16.0671,37.7324 C15.6744,37.7324 15.3978,37.5557 15.2372,37.2022 L10.124,27.2313 L10.124,41.6041 C10.124,41.7808 10.0705,41.9223 9.96341,42.0283 C9.85633,42.1345 9.71356,42.1875 9.53508,42.1875 L9.05322,42.1875 Z M34.4241,42.1875 C34.2457,42.1875 34.1029,42.1345 33.9958,42.0283 C33.8886,41.9223 33.8351,41.7808 33.8351,41.6041 L33.8351,35.1071 L27.3032,24.5 C27.2318,24.3586 27.1961,24.2437 27.1961,24.1552 C27.1961,24.0138 27.2497,23.89 27.3567,23.784 C27.4639,23.678 27.5888,23.625 27.7316,23.625 L28.2669,23.625 C28.5167,23.625 28.722,23.7574 28.8827,24.0226 L34.6918,33.3835 L40.501,24.0226 C40.6617,23.7574 40.8668,23.625 41.1168,23.625 L41.652,23.625 C41.7949,23.625 41.9198,23.678 42.027,23.784 C42.134,23.89 42.1875,24.0138 42.1875,24.1552 C42.1875,24.2437 42.1519,24.3586 42.0805,24.5 L35.5485,35.1071 L35.5485,41.6041 C35.5485,41.7808 35.4905,41.9223 35.3744,42.0283 C35.2584,42.1345 35.1111,42.1875 34.9327,42.1875 L34.4241,42.1875 Z" id="Shape" fill="#FF5A59"></path>
            <path d="M50.625,11.8125 L47.25,11.8125 L47.25,0 C39.8591,0 34.0772,5.47668 33.75,11.8125 L0,11.8125 L0,54 L16.875,54 L16.875,52.3125 L1.6875,52.3125 L1.6875,13.5 L35.4375,13.5 L35.4375,11.8125 C35.4375,6.75 40.5,1.6875 45.5625,1.6875 L45.5625,11.8125 L45.5625,13.5 L48.9375,13.5 L48.9375,52.3125 L33.75,52.3125 L33.75,54 L50.625,54 L50.625,11.8125 Z" id="Path" fill="#624848"></path>
            <path d="M57.9567,41.9297 C57.7803,41.9297 57.6394,41.8781 57.5336,41.7751 C57.4279,41.6718 57.375,41.5345 57.375,41.3625 L57.375,24.4757 C57.375,24.3039 57.4279,24.162 57.5336,24.0504 C57.6394,23.9387 57.7803,23.8828 57.9567,23.8828 L64.3818,23.8828 C66.2681,23.8828 67.753,24.3425 68.8371,25.2622 C69.9212,26.1816 70.4633,27.5008 70.4633,29.2195 C70.4633,30.9383 69.9212,32.2574 68.8371,33.177 C67.753,34.0965 66.2681,34.5563 64.3818,34.5563 L59.0408,34.5563 L59.0408,41.3625 C59.0408,41.5345 58.9835,41.6718 58.8688,41.7751 C58.7543,41.8781 58.6088,41.9297 58.4326,41.9297 L57.9567,41.9297 Z M64.2496,33.0093 C65.7657,33.0093 66.9026,32.6872 67.6606,32.0426 C68.4186,31.398 68.7975,30.457 68.7975,29.2195 C68.7975,27.982 68.4186,27.041 67.6606,26.3966 C66.9026,25.752 65.7657,25.4297 64.2496,25.4297 L59.0408,25.4297 L59.0408,33.0093 L64.2496,33.0093 Z M75.1754,41.9297 C74.9992,41.9297 74.8581,41.8781 74.7524,41.7751 C74.6465,41.6718 74.5937,41.5345 74.5937,41.3625 L74.5937,24.1922 C74.5937,24.0204 74.6465,23.8828 74.7524,23.7798 C74.8581,23.6765 74.9992,23.625 75.1754,23.625 L75.6249,23.625 C75.8011,23.625 75.9422,23.6765 76.0481,23.7798 C76.1538,23.8828 76.2066,24.0204 76.2066,24.1922 L76.2066,41.3625 C76.2066,41.5345 76.1538,41.6718 76.0481,41.7751 C75.9422,41.8781 75.8011,41.9297 75.6249,41.9297 L75.1754,41.9297 Z M85.1493,42.1875 C84.3032,42.1875 83.5189,42.0157 82.7961,41.6718 C82.0733,41.3282 81.496,40.864 81.0642,40.2797 C80.6323,39.6953 80.4163,39.0507 80.4163,38.3461 C80.4163,37.2117 80.888,36.2836 81.831,35.5617 C82.774,34.8398 84.0476,34.3757 85.6517,34.1696 L89.8294,33.6024 L89.8294,32.6999 C89.8294,31.7548 89.5341,31.0285 88.9437,30.5214 C88.3531,30.0144 87.4497,29.761 86.2334,29.761 C85.3344,29.761 84.5985,29.9329 84.0256,30.2765 C83.4528,30.6204 83.0869,31.0328 82.9283,31.514 C82.8578,31.7203 82.774,31.8621 82.6771,31.9395 C82.5801,32.0167 82.4523,32.0555 82.2937,32.0555 L81.9236,32.0555 C81.7649,32.0555 81.6282,31.9997 81.5137,31.8878 C81.3991,31.7761 81.3419,31.6429 81.3419,31.4883 C81.3419,31.1102 81.5181,30.6676 81.8706,30.1605 C82.2232,29.6535 82.7696,29.2109 83.51,28.8327 C84.2503,28.4548 85.1582,28.2657 86.2334,28.2657 C88.1196,28.2657 89.4593,28.7038 90.2524,29.5804 C91.0457,30.457 91.4424,31.5226 91.4424,32.7773 L91.4424,41.3625 C91.4424,41.5345 91.3894,41.6718 91.2837,41.7751 C91.178,41.8781 91.0369,41.9297 90.8607,41.9297 L90.4112,41.9297 C90.2348,41.9297 90.0939,41.8781 89.988,41.7751 C89.8823,41.6718 89.8294,41.5345 89.8294,41.3625 L89.8294,40.1508 C89.4416,40.718 88.8732,41.1992 88.1239,41.5946 C87.3748,41.9898 86.3833,42.1875 85.1493,42.1875 Z M85.4138,40.6922 C86.7006,40.6922 87.7582,40.2797 88.5866,39.4547 C89.4151,38.6297 89.8294,37.4437 89.8294,35.8969 L89.8294,35.0203 L86.4185,35.4844 C84.9731,35.6735 83.8802,35.9999 83.1399,36.4641 C82.3994,36.9282 82.0293,37.5125 82.0293,38.2172 C82.0293,39.0078 82.3687,39.6179 83.0473,40.0476 C83.7259,40.4774 84.5148,40.6922 85.4138,40.6922 Z M97.1327,41.9297 C96.9564,41.9297 96.8154,41.8781 96.7097,41.7751 C96.604,41.6718 96.5511,41.5345 96.5511,41.3625 L96.5511,29.0906 C96.5511,28.9187 96.604,28.7812 96.7097,28.6781 C96.8154,28.5751 96.9564,28.5234 97.1327,28.5234 L97.5822,28.5234 C97.7586,28.5234 97.8995,28.5751 98.0053,28.6781 C98.1111,28.7812 98.1639,28.9187 98.1639,29.0906 L98.1639,30.3024 C98.6928,29.6321 99.2966,29.1251 99.9752,28.7812 C100.654,28.4375 101.531,28.2657 102.606,28.2657 C104.334,28.2657 105.664,28.8028 106.599,29.877 C107.533,30.9511 108,32.339 108,34.0407 L108,41.3625 C108,41.5345 107.947,41.6718 107.841,41.7751 C107.736,41.8781 107.595,41.9297 107.418,41.9297 L106.969,41.9297 C106.793,41.9297 106.652,41.8781 106.546,41.7751 C106.44,41.6718 106.387,41.5345 106.387,41.3625 L106.387,34.1696 C106.387,32.7773 106.039,31.6946 105.343,30.9211 C104.646,30.1476 103.646,29.761 102.342,29.761 C101.073,29.761 100.059,30.1519 99.301,30.934 C98.5429,31.716 98.1639,32.7946 98.1639,34.1696 L98.1639,41.3625 C98.1639,41.5345 98.1111,41.6718 98.0053,41.7751 C97.8995,41.8781 97.7586,41.9297 97.5822,41.9297 L97.1327,41.9297 Z" id="Shape" fill="#527EED"></path>
        </g>
    </g>
</svg>